<svg height="69" viewBox="0 0 132 69" width="132" xmlns="http://www.w3.org/2000/svg" xmlns:xlink="http://www.w3.org/1999/xlink"><mask id="a" fill="#fff"><path d="m.04.04h16.64v16.53h-16.64z" fill="#fff" fill-rule="evenodd"/></mask><mask id="b" fill="#fff"><path d="m.04.05h5.16v9.12h-5.16z" fill="#fff" fill-rule="evenodd"/></mask><mask id="c" fill="#fff"><path d="m0 16.61h45v-16.53h-45z" fill="#fff" fill-rule="evenodd"/></mask><mask id="d" fill="#fff"><path d="m.03.02h7.28v10.17h-7.28z" fill="#fff" fill-rule="evenodd"/></mask><mask id="e" fill="#fff"><path d="m0 .06h7.02v10.73h-7.02z" fill="#fff" fill-rule="evenodd"/></mask><mask id="f" fill="#fff"><path d="m0 0h44.85v8h-44.85z" fill="#fff" fill-rule="evenodd"/></mask><mask id="g" fill="#fff"><path d="m.05.09h2.96v7.28h-2.96z" fill="#fff" fill-rule="evenodd"/></mask><mask id="h" fill="#fff"><path d="m.08.07h2.99v7.05h-2.99z" fill="#fff" fill-rule="evenodd"/></mask><mask id="i" fill="#fff"><path d="m.05.07h2.98v7.05h-2.98z" fill="#fff" fill-rule="evenodd"/></mask><mask id="j" fill="#fff"><path d="m.06.04h.76v7.36h-.76z" fill="#fff" fill-rule="evenodd"/></mask><mask id="k" fill="#fff"><path d="m0 .1h5.84v7.43h-5.84z" fill="#fff" fill-rule="evenodd"/></mask><mask id="l" fill="#fff"><path d="m.03.09h6.42v7.36h-6.42z" fill="#fff" fill-rule="evenodd"/></mask><g fill="none" fill-rule="evenodd"><path d="m40.58 68h1.74v-8.02h3.08v-1.6h-7.9v1.6h3.08zm8.01-5.84v-1.4h-1.7v7.24h1.7v-3.65c0-1.38 1.04-2.3 2.6-2.3v-1.46c-1.2 0-2.14.6-2.6 1.57zm7-1.57c-.9 0-1.86.26-2.88.76l.59 1.19c.61-.3 1.27-.55 1.96-.55 1.31 0 1.77.82 1.77 1.66v.2a5.8 5.8 0 0 0 -2.03-.4c-1.62 0-2.95.98-2.95 2.4 0 1.4 1.16 2.32 2.7 2.32.84 0 1.75-.37 2.28-1.04v.87h1.67v-4.35c0-1.84-1.19-3.06-3.1-3.06zm-.46 6.33c-.81 0-1.41-.43-1.41-1.12 0-.68.68-1.16 1.54-1.16.64 0 1.24.1 1.77.28v.81c-.2.77-1.07 1.2-1.9 1.2zm9.37-6.33c-.96 0-1.8.47-2.24 1.14v-.97h-1.71v7.24h1.7v-4.58c.12-.77.86-1.37 1.76-1.37s1.52.7 1.52 1.68v4.27h1.65v-4.6c0-1.64-1.1-2.8-2.68-2.8zm7.2 7.58c1.7 0 2.85-.9 2.85-2.28 0-1.52-1.32-1.94-2.54-2.27l-.36-.1c-.83-.26-1.12-.42-1.12-.83 0-.4.46-.64 1.06-.64.63 0 1.38.22 2.06.66l.72-1.25a5.15 5.15 0 0 0 -2.78-.87c-1.6 0-2.73.93-2.73 2.29.02 1.23.93 1.7 2.38 2.08l.52.15c.66.19 1.14.39 1.14.87 0 .45-.48.75-1.17.75-.9 0-1.72-.34-2.42-.84l-.77 1.19c.87.7 2.06 1.09 3.17 1.09zm6.52-8.01c0-.49.3-.84.71-.84.3 0 .56.11.71.27l.5-1.1c-.41-.35-1-.57-1.55-.57-1.2 0-2.04.87-2.04 2.09v.75h-1.05v1.42h1.05v5.82h1.67v-5.82h1.63v-1.42h-1.63zm6.37 6.5c-1.04 0-1.8-.7-2-1.7h5.45c0-2.67-1.3-4.37-3.54-4.37a3.65 3.65 0 0 0 -3.68 3.77c0 2.23 1.7 3.8 3.78 3.8 1.05 0 2.31-.44 2.94-1.11l-1.08-1.12c-.4.42-1.2.73-1.87.73zm-.02-4.55c1.02 0 1.64.64 1.84 1.55h-3.81a2 2 0 0 1 1.97-1.55zm6.7.05a2.76 2.76 0 0 1 2.6-1.57v1.46c-1.56 0-2.6.92-2.6 2.3v3.65h-1.7v-7.24h1.7z" fill="#23095c" fill-rule="nonzero"/><g transform="translate(7 20)"><path d="m33.5 16.36a8.06 8.06 0 0 1 -8.07-8.02 8.05 8.05 0 0 1 8.07-8.02c4.45 0 8.07 3.6 8.07 8.02a8.06 8.06 0 0 1 -8.07 8.02" fill="#ffde00"/><path d="m8.36.53a7.81 7.81 0 0 1 7.83 7.78 7.81 7.81 0 0 1 -7.83 7.77 7.81 7.81 0 0 1 -7.82-7.77 7.8 7.8 0 0 1 7.82-7.78m0-.49a8.3 8.3 0 0 0 -8.32 8.27 8.3 8.3 0 0 0 8.32 8.26 8.3 8.3 0 0 0 8.32-8.26 8.3 8.3 0 0 0 -8.32-8.27" fill="#fff" mask="url(#a)" transform="translate(25.14 .03)"/><path d="m1.12 12.66-.06-.16a11.03 11.03 0 0 1 0-8.32l.06-.15h25.62l-.21.36a7.92 7.92 0 0 0 0 7.9l.21.37z" fill="#7d868c"/><path d="m26.31 4.27a8.12 8.12 0 0 0 0 8.14h-25.03a10.81 10.81 0 0 1 0-8.14zm.85-.49h-26.21l-.12.31a11.25 11.25 0 0 0 0 8.5l.12.31h26.21l-.42-.73a7.68 7.68 0 0 1 0-7.65z" fill="#fff"/><path d="m40.26 12.66.21-.37a7.93 7.93 0 0 0 0-7.9l-.2-.36h3.61l.06.15a11.02 11.02 0 0 1 0 8.32l-.06.16z" fill="#7d868c"/><path d="m3.91.54a10.8 10.8 0 0 1 0 8.14h-3.01a8.13 8.13 0 0 0 0-8.14h3zm.34-.5h-4.21l.42.74a7.68 7.68 0 0 1 0 7.65l-.42.74h4.21l.12-.3a11.27 11.27 0 0 0 0-8.51l-.12-.31z" fill="#fff" mask="url(#b)" transform="translate(39.8 3.73)"/><path d="m26.17 10.79h1.51v-1.7h.58c1.41 0 2.25-.6 2.25-1.58 0-1.1-.81-1.61-2.54-1.61h-1.8zm1.51-3.97h.39c.52 0 .93.17.93.67 0 .51-.41.67-.93.67h-.39zm1.94 3.97h1.53l.44-1.04h2.12l.42 1.04h1.65l-2.18-4.89h-1.84zm3.73-1.96h-1.4l.71-1.92h.02zm7.48 1.82a9.5 9.5 0 0 1 -2.18.22c-1.5 0-3.24-.65-3.24-2.5s1.5-2.56 3.56-2.56c.37 0 1.16.04 1.7.22l-.12 1.07a3.21 3.21 0 0 0 -1.37-.32c-1.22 0-2.22.44-2.22 1.59 0 .96.78 1.54 1.88 1.54.2 0 .4-.03.53-.09v-.96h-.88v-.92h2.34z" fill="#7d868c"/><g fill="#fff"><path d="m3.43 9.58c.38.19.92.33 1.54.33.48 0 .93-.09.93-.48 0-.91-2.66-.34-2.66-2.12 0-1.17 1.32-1.5 2.45-1.5.54 0 1.07.07 1.45.18l-.1 1.01a3.41 3.41 0 0 0 -1.24-.22c-.38 0-1.01.03-1.01.45 0 .8 2.66.26 2.66 2.03 0 1.27-1.23 1.61-2.48 1.61-.52 0-1.17-.07-1.67-.2zm4.45-3.68h3.98v.92h-2.47v1.01h2.33v.92h-2.33v1.11h2.56v.93h-4.07zm4.61 4.89h1.5v-1.94h.32c.56 0 .75.21 1.06 1.05l.32.89h1.57l-.55-1.34c-.28-.59-.3-.96-.8-1.07v-.02c.73-.14 1.09-.58 1.09-1.23 0-.84-.82-1.23-1.82-1.23h-2.7v4.89zm1.5-3.97h.4c.58 0 1.1.08 1.1.54 0 .56-.62.57-1.1.57h-.4v-1.1zm3.03-.92h1.6l1.25 3.83h.02l1.27-3.83h1.54l-1.92 4.89h-1.86z"/><path d="m23.05 10.79h1.5v-4.89h-1.5z" mask="url(#c)"/></g></g><path d="m2.15 3.7v1.48c0 .17.03.24.22.24.41-.02.82 0 1.24-.01.69-.03 1.2-.43 1.4-1.09.12-.38.12-.77.05-1.16-.12-.69-.62-1.1-1.33-1.12-.45-.02-.9 0-1.34-.02-.19 0-.25.06-.24.25zm-2.12 1.4v-4.6c0-.38.1-.49.5-.49h3.15c1.93.02 3.39 1.23 3.6 3.13.27 2.36-1.31 4.19-3.62 4.22h-1.26c-.2-.01-.24.05-.25.24 0 .52.08 1.05-.05 1.56-.18.72-1.18 1.22-1.86.94-.18-.07-.2-.24-.2-.42v-4.58" fill="#483774" mask="url(#d)" transform="translate(93.78 10.61)"/><path d="m83.73 11.16.58-.32c1.13-.53 2.77-.23 3.55.67.54.63.68 1.41.7 2.21.02 1.29 0 2.57 0 3.86.01.3-.11.41-.41.4h-1.27c-.33.02-.43-.13-.42-.44v-3.38c0-.14-.02-.28-.05-.43-.18-.84-.62-1.16-1.51-1.08-.66.07-1.16.64-1.17 1.37v3.48c0 .43-.05.48-.49.48h-1.24c-.26 0-.39-.1-.39-.37v-9.98c0-.25.12-.36.36-.37.25 0 .5.02.73.08.66.17 1.02.66 1.03 1.38z" fill="#483774"/><path d="m2.12 5.82 1.84-2.1a.7.7 0 0 1 .57-.28h1.88c.17 0 .27.12.34.24.07.13-.1.19-.16.26l-2.9 2.78c-.17.16-.18.24 0 .4l3.16 3.19c.07.07.24.12.15.25-.07.12-.17.23-.34.23h-2.01c-.22 0-.34-.15-.47-.3l-2.06-2.4v2.31c0 .26-.13.39-.4.39h-1.32c-.3 0-.39-.13-.39-.4v-5.38-4.51c-.01-.32.11-.44.42-.44.85 0 1.43.34 1.61.98.07.23.08.46.08.7z" fill="#483774" mask="url(#e)" transform="translate(74 7.2)"/><path d="m108.93 13.08c-.03.62.04 1.38-.04 2.14a3.16 3.16 0 0 1 -3.1 2.82 4.05 4.05 0 0 1 -2.07-.4 2.98 2.98 0 0 1 -1.63-2.41c-.15-1.4-.03-2.8-.06-4.21 0-.26.15-.38.4-.38h1.3c.3 0 .43.13.42.42v3.59c0 .96.64 1.5 1.58 1.38.68-.1 1.08-.58 1.08-1.33v-3.6c0-.38.1-.47.47-.47h1.18c.38 0 .47.09.47.46v1.98m-18.75 1.25v-3.25c-.01-.33.12-.45.43-.44h1.24c.3 0 .45.14.45.45v6.46c0 .31-.12.45-.44.44h-1.26c-.3.01-.42-.11-.42-.41z" fill="#483774"/><path d="m91.24 7c.78 0 1.33.55 1.33 1.32a1.3 1.3 0 0 1 -1.36 1.33c-.73 0-1.34-.6-1.34-1.32-.01-.73.61-1.33 1.37-1.33" fill="#36a0ff"/><path d="m44.85 3.63c0 .27-.04.57-.08.75-.2-.02-.4-.04-.64-.04-.2 0-.41.02-.62.04v3.4h-.84v-3.98c.35-.14.97-.23 1.45-.23.24.02.54.02.73.06m-5.72 1.71h1.92c0-.65-.34-1.04-.93-1.04-.62.02-.94.37-1 1.04m2.74.74h-2.73c.1.7.5 1.04 1.28 1.04.47 0 .94-.1 1.35-.31-.04.23-.07.54-.13.79-.4.17-.8.25-1.26.25-1.43 0-2.11-.81-2.11-2.16 0-1.18.53-2.12 1.88-2.12 1.23 0 1.75.8 1.75 1.81 0 .27 0 .46-.03.7m-5.14.79v-2.45a4.06 4.06 0 0 0 -.68-.08c-.85 0-1.24.54-1.24 1.45 0 .8.32 1.38 1.07 1.38.34-.01.62-.13.85-.3m.84-4.65v5.55h-.79l-.04-.5c-.22.37-.54.6-1.1.6-1.02 0-1.72-.77-1.72-2.1 0-1.4.73-2.2 2.17-2.2.22 0 .43.02.64.06v-1.33c.26-.07.56-.1.84-.1m-4.3 2.9v2.66h-.88v-2.5c0-.64-.2-.93-1.05-.93-.2 0-.43.02-.68.06v3.37h-.84v-3.96a7.28 7.28 0 0 1 1.54-.23c1.43.02 1.9.58 1.9 1.54m-5.23 1.76v-2.5c-.17-.03-.38-.03-.62-.03-.89 0-1.3.56-1.3 1.45 0 .8.32 1.38 1.07 1.38.36-.01.64-.13.85-.3m.86-3.07v3.97h-.79l-.04-.48a1.2 1.2 0 0 1 -1.09.58c-1.01 0-1.71-.77-1.71-2.1 0-1.4.73-2.2 2.16-2.2a4.9 4.9 0 0 1 1.47.23m-4.57 3.34c.24 0 .49-.04.66-.12-.02.23-.06.5-.1.73-.22.1-.49.14-.71.14-.83 0-1.36-.39-1.36-1.35v-4.19c.26-.1.58-.13.85-.13v1.5h1.35a8.5 8.5 0 0 1 -.07.75h-1.28v1.95c0 .5.24.72.66.72m-2.37-2.04v2.66h-.85v-2.5c0-.64-.2-.93-1.06-.93-.2 0-.43.02-.67.06v3.37h-.85v-3.96a7.28 7.28 0 0 1 1.54-.23c1.43.02 1.89.58 1.89 1.54m-5.22 1.76v-2.5c-.17-.03-.38-.03-.62-.03-.89 0-1.3.56-1.3 1.45 0 .8.32 1.38 1.07 1.38.36-.01.62-.13.85-.3m.85-3.07v3.97h-.8l-.03-.48a1.2 1.2 0 0 1 -1.1.58c-1.01 0-1.7-.77-1.7-2.1 0-1.4.73-2.2 2.16-2.2a4.8 4.8 0 0 1 1.47.23m-7.74 3.8c.02-.33.05-.54.15-.81.43.21 1 .3 1.41.3.72 0 1.13-.22 1.13-.7 0-.47-.3-.68-1.02-1l-.4-.16c-.73-.33-1.22-.76-1.22-1.58 0-.91.63-1.49 1.87-1.49.5 0 .98.08 1.41.23-.02.31-.07.56-.15.8a4 4 0 0 0 -1.28-.24c-.68 0-.98.27-.98.7 0 .4.3.65.85.88l.41.18c.98.42 1.4.88 1.4 1.65 0 .91-.68 1.55-2 1.55-.62 0-1.15-.1-1.58-.31m-3.9-3.92c-.02-.29-.1-.57-.24-.83l-1.29-2.3a2 2 0 0 1 -.2-.55l-.06.1a1.87 1.87 0 0 0 0 1.83l1.04 1.83c.32.56.32 1.27 0 1.83l-.06.1a2 2 0 0 0 -.2-.56l-.95-1.68-.6-1.08a2 2 0 0 1 -.2-.56l-.06.1a1.87 1.87 0 0 0 0 1.83l1.03 1.83c.32.56.32 1.28 0 1.84l-.05.1a2 2 0 0 0 -.21-.57l-1.3-2.3c-.17-.3-.25-.65-.25-1-1.37.38-2.33 1.16-2.33 2.08 0 1.26 1.85 2.28 4.12 2.28 2.28 0 4.13-1.03 4.13-2.3.02-.87-.93-1.66-2.32-2.03" fill="#ea1d25" mask="url(#f)" transform="translate(7 41)"/><path d="m45.34 10.3c.01-.54-.08-1.02-.61-1.27-.55-.26-1.06-.1-1.49.27a2.4 2.4 0 0 0 -.84 2.04c.05.93.78 1.4 1.64 1.04.92-.39 1.26-1.15 1.3-2.09zm-4.65 5.05c.06-1.09.37-2.14.54-3.2.2-1.22.45-2.43.68-3.64.08-.42.49-.64.86-.43.27.15-.03.39.02.59.22.09.3-.12.44-.22 1.3-.92 2.9-.25 3.07 1.33.15 1.3-.26 2.4-1.36 3.17-1 .7-1.95.57-2.85-.34-.13.93-.43 1.81-.43 2.74z" fill="#08a4d1"/><path d="m28.03 15.35c-.27-.2-.53-.37-.23-.77.14-.17.21-.23.42-.14.38.16.73.07.95-.26.26-.39.62-.75.38-1.3l-1.79-4.24-.2-.5c.94-.23 1.02-.18 1.34.66l1.22 3.2 1.16-3.15c.32-.87.32-.87 1.33-.74l-2.06 5.22-.31.8c-.22.6-.66.98-1.24 1.22z" fill="#2261a5"/><path d="m51.1 15.35c-.3-.2-.6-.39-.2-.78.14-.13.2-.18.4-.13.88.23 1.84-.76 1.64-1.66-.32-1.37-.65-2.74-.94-4.12-.03-.17-.36-.52.07-.58.3-.04.79-.27.89.4.16 1.14.42 2.25.65 3.37 0 .07.03.14.06.3l1.82-3.31c.46-.84.46-.84 1.5-.74l-1.33 2.26c-.7 1.19-1.42 2.36-2.1 3.55a3.1 3.1 0 0 1 -1.5 1.44z" fill="#08a4d1"/><path d="m7 12.56c.06-.06.14-.11.18-.19.18-.38.37-.38.72-.14.42.28.9.41 1.43.22.23-.09.4-.25.43-.5.03-.23-.11-.41-.31-.51-.43-.22-.88-.4-1.31-.61-.75-.38-1.04-.85-.95-1.51.09-.63.54-1.06 1.32-1.21.63-.13 1.23-.01 1.81.28.37.19.2.4.1.65-.13.31-.27.26-.51.11a1.6 1.6 0 0 0 -1.24-.2c-.25.07-.46.2-.5.5-.03.27.12.45.34.55.43.21.88.39 1.31.6.7.36 1.01.86.93 1.48-.09.64-.6 1.1-1.36 1.25-.9.18-1.68-.12-2.39-.66v-.1z" fill="#2261a5"/><path d="m39.3 10.74a4.54 4.54 0 0 1 -3.14 4.39c-.17.06-.39.04-.51.22h-.86c-.14-.86.16-1.26 1.09-1.53 1.44-.4 2.1-1.6 2.2-3.08z" fill="#08a4d1"/><path d="m20.32 10.08.13.03c.63 0 1.26.02 1.88 0 .21 0 .52.14.62-.1.1-.26-.09-.52-.25-.74-.12-.18-.3-.3-.51-.36-.81-.28-1.56.18-1.87 1.17m1.8.78c-.46 0-.93.03-1.4 0-.47-.04-.48.18-.35.53.32.94 1.3 1.37 2.32 1.01.17-.06.33-.13.48-.23.21-.15.37-.24.52.09.14.26.23.43-.1.64-1.1.7-2.63.62-3.53-.24a2.86 2.86 0 0 1 -.41-3.4c.55-.95 1.7-1.41 2.77-1.12.99.27 1.56 1.14 1.56 2.3 0 .36-.13.44-.47.43-.46-.03-.92-.01-1.39-.01" fill="#2261a5"/><path d="m50.04 10.84a3.83 3.83 0 0 0 -1.88.24c-.5.22-.72.68-.56 1.06.17.38.67.54 1.16.34.73-.3 1.07-.9 1.28-1.64m-.35 1.72c-.4.4-.8.71-1.35.8-.74.1-1.46-.23-1.7-.83-.23-.6.02-1.37.62-1.79.68-.48 1.47-.6 2.28-.66.26-.02.66.17.65-.36 0-.46-.2-.75-.67-.81a2.5 2.5 0 0 0 -1.44.31c-.15.07-.32.17-.35-.09-.03-.2-.38-.45 0-.64.82-.4 1.68-.61 2.58-.28.68.24 1 .89.85 1.7-.18 1.04-.42 2.07-.58 3.1-.09.54-.45.36-.73.37-.44 0-.15-.29-.16-.46z" fill="#08a4d1"/><path d="m13.94 10.83c-.42 0-.82.05-1.2.22-.37.16-.58.43-.51.84.07.43.36.64.77.69.63.07 1.18-.35 1.4-1.08.2-.62.16-.68-.46-.67m.65 1.65c-.41.4-.8.83-1.45.9-1.22.13-2.17-.85-1.86-1.97.16-.58.58-.88 1.1-1.06.57-.2 1.15-.28 1.74-.26.33.01.42-.1.34-.4-.11-.46-.38-.72-.84-.78-.45-.06-.88 0-1.24.25-.37.25-.49.1-.67-.21-.24-.42.11-.46.32-.55.3-.14.64-.25.97-.3 1.52-.27 2.46.53 2.46 2.07l.01 2.78c0 .32-.05.46-.4.44-.31-.02-.6-.01-.51-.45l.04-.43v-.03" fill="#2261a5"/><path d="m.72 4.43v-1.28c.01-.23-.06-.35-.3-.32-.32.04-.37-.13-.37-.41-.01-.32.11-.42.4-.38.24.04.31-.08.3-.3-.01-.38.03-.76 0-1.14-.05-.37.05-.5.47-.5.43 0 .5.16.48.53-.03.34.01.68-.02 1.02-.03.35.11.45.43.4.14-.01.29.02.43 0 .35-.05.34.17.36.42 0 .28-.09.36-.37.37-.84.02-.84.03-.84.9v1.65c.01.71.27 1.03.98 1.08.48.04.27.35.31.57.06.33-.16.34-.39.34-1.14-.01-1.83-.68-1.87-1.82z" fill="#2261a5" mask="url(#g)" transform="translate(24.49 6.02)"/><path d="m17.84 11.16c0 .63-.02 1.26 0 1.88.02.42-.25.34-.49.34s-.49.08-.48-.35c.02-1.24 0-2.5.01-3.74 0-.29 0-.5-.38-.46-.33.04-.24-.22-.26-.4-.01-.2-.01-.41.3-.37.29.05.32-.1.36-.36.15-1.04.85-1.6 1.88-1.58.27 0 .4.08.37.37-.03.22.12.54-.33.5a.9.9 0 0 0 -.6.19c-.25.18-.41.45-.35.73.06.32.39.08.58.15.21.07.57-.2.6.3 0 .34-.06.5-.46.49-.75-.02-.75 0-.75.76v1.56zm21.46-.42h-1.23c-.26-1.99-1.07-2.9-2.98-3.3-.34-.08-.27-.27-.28-.47-.01-.93-.01-.93.88-.73a4.55 4.55 0 0 1 3.6 4.5" fill="#2261a5"/><path d="m36.1 10.74c-.68.71-1.52 1.2-2.32 1.91v-1.91h2.31" fill="#08a4d1"/><path d="m36.1 10.74h-2.32v-1.89c.8.67 1.6 1.2 2.31 1.89" fill="#2261a5"/><g fill="#004b93"><path d="m82.93 46.88c-1.13 0-1.81-.8-1.81-2.16s.68-2.17 1.8-2.17c1.15 0 1.83.81 1.83 2.17s-.68 2.16-1.82 2.16m0-4.99c-1.57 0-2.58 1.11-2.58 2.83 0 1.71 1 2.82 2.58 2.82 1.57 0 2.6-1.1 2.6-2.82s-1.03-2.83-2.6-2.83m6.53.04c-.74 0-1.48.26-2.19.78v-.06c0-.4-.03-.65-.4-.65h-.36v5.54h.76v-4.1c.74-.55 1.4-.82 2-.82.66 0 .93.26.93.91v4h.76v-4.06c0-1-.52-1.54-1.5-1.54"/><path d="m1.54 5.75v-3.57h1.41v-.64h-1.4v-1.47h-.78v1.47h-.7v.64h.7v3.63c0 .87.46 1.31 1.38 1.31.32 0 .63-.03.8-.06l.1-.02v-.59h-.73c-.6 0-.79-.17-.79-.7" mask="url(#h)" transform="translate(91.67 40.41)"/><path d="m96.28 40.5a.48.48 0 0 0 -.47.47c0 .26.2.47.47.47s.47-.2.47-.47a.48.48 0 0 0 -.47-.48m-.1 1.51h-.3v5.54h.77v-4.87c0-.48-.04-.67-.47-.67m4.72-.07c-.74 0-1.48.26-2.19.78v-.06c0-.4-.03-.65-.4-.65h-.36v5.54h.76v-4.1c.74-.55 1.4-.82 2-.82.66 0 .93.26.93.91v4h.76v-4.06c0-1-.51-1.54-1.5-1.54m11.04 0c-.75 0-1.48.26-2.2.78v-.06c0-.4-.02-.65-.4-.65h-.36v5.54h.77v-4.1c.74-.55 1.4-.82 2-.82.65 0 .92.26.92.91v4h.77v-4.06c0-1-.52-1.54-1.5-1.54"/><path d="m1.51 5.75v-3.57h1.41v-.64h-1.4v-1.47h-.78v1.47h-.7v.64h.7v3.63c0 .87.46 1.31 1.38 1.31.32 0 .63-.03.8-.06l.1-.02v-.59h-.72c-.6 0-.79-.17-.79-.7" mask="url(#i)" transform="translate(114.14 40.41)"/><path d="m.37.04h-.31v7.36h.76v-6.74c0-.44-.04-.62-.45-.62" mask="url(#j)" transform="translate(123.18 40.14)"/><path d="m121.22 46.1a1.92 1.92 0 0 1 -1.6.77 1.7 1.7 0 0 1 -.47-.05.98.98 0 0 1 -.28-.13.8.8 0 0 1 -.28-.32 1.2 1.2 0 0 1 -.11-.54.89.89 0 0 1 .32-.7c.12-.11.3-.18.5-.24.2-.05.43-.08.69-.08.45 0 .85.06 1.23.15v1.15zm.34-3.75a1.5 1.5 0 0 0 -.65-.36c-.25-.08-.54-.1-.85-.1-1.05 0-1.65.3-2.03.53.28.6.59.45.98.28.3-.13.64-.18 1-.18.17 0 .36.04.54.08.1.03.2.06.28.11a.8.8 0 0 1 .28.3c.07.13.1.3.1.52v.8a5.7 5.7 0 0 0 -2.14-.04c-.2.05-.38.11-.56.2-.24.14-.44.32-.59.55a1.86 1.86 0 0 0 -.08 1.55c.14.3.37.55.66.7a2.58 2.58 0 0 0 2.15.01c.22-.1.4-.22.57-.37l.01.2a.44.44 0 0 0 .13.25c.05.04.1.07.16.08.06.02.12.02.2.02h.26v-3.98c0-.29-.05-.53-.14-.75a1.2 1.2 0 0 0 -.28-.4z"/><path d="m3.28.79c.17 0 .33.01.47.03.3.04.55.11.75.22h.02l.07.05.1.06h.01l.06.04.06.05.16.14c.06.05.11.09.17.12.19.12.39.12.69-.22a2.7 2.7 0 0 0 -.3-.36c-.5-.5-1.04-.65-1.27-.72a3.66 3.66 0 0 0 -1.03-.1c-1.61 0-3.24 1.14-3.24 3.7v.04c0 2.55 1.63 3.7 3.25 3.7a5.42 5.42 0 0 0 1.01-.1v-.01c.23-.07.78-.21 1.28-.72.1-.1.2-.22.3-.36-.3-.34-.5-.34-.7-.22l-.16.12-.16.14-.06.05c-.02 0-.04.02-.06.04a1.97 1.97 0 0 1 -.2.11c-.2.1-.45.18-.75.22-.14.02-.3.03-.47.03-1.52 0-2.47-1.14-2.47-2.98v-.04-.05c0-1.84.95-2.97 2.47-2.97" mask="url(#k)" transform="translate(74 40)"/><path d="m104.06 44.22c.04-.26.1-.48.17-.68.15-.34.35-.59.6-.75.26-.17.56-.26.9-.26.23 0 .45.04.63.1.13.05.25.12.36.21.16.14.29.32.38.57.08.22.14.48.16.8h-3.2zm3.47-1.53c-.2-.27-.46-.47-.77-.6a2.73 2.73 0 0 0 -2.02 0c-.44.2-.82.54-1.08 1a3.68 3.68 0 0 0 -.23 2.8c.17.5.47.92.88 1.2.4.28.94.44 1.55.44.5 0 .9-.08 1.22-.2.53-.2.8-.44.92-.58-.35-.52-.56-.31-.97-.12a2.87 2.87 0 0 1 -1.94.09 1.43 1.43 0 0 1 -.46-.27c-.19-.18-.34-.4-.44-.68-.1-.26-.14-.56-.15-.91h3.98v-.16-.22c0-.43-.05-.81-.16-1.14a2.29 2.29 0 0 0 -.33-.65zm-14.07-8.86 1-3.36 1.03 3.36zm1.7-4.7h-1.4l-2.25 7.36h1.15l.48-1.58h2.67l.49 1.58h2l-2.24-6.6c-.2-.61-.32-.75-.9-.75zm-12.1 6.38h-.53v-5.41h.95c.45 0 .85.37.85.82 0 .16-.03.31-.19.54l-.61.92c.64.15 1.07.64 1.07 1.55 0 1.11-.67 1.58-1.54 1.58m1.85-3.49.36-.53c.76-1.13.24-2.35-1.26-2.35h-3.21v7.36h3.1c2.71 0 3.53-3.17 1.01-4.48m-8.08 3.49h-.52v-5.41h.94c.46 0 .85.37.85.82 0 .16-.03.31-.19.54l-.61.92c.64.15 1.07.64 1.07 1.55 0 1.11-.66 1.58-1.54 1.58m1.85-3.49.36-.53c.77-1.13.24-2.35-1.26-2.35h-3.21v7.36h3.1c2.71 0 3.54-3.17 1.01-4.48"/><path d="m5.29.1-1.66 5.57-1.4-4.63c-.26-.82-.4-.94-.9-.94h-1.3l2.41 7.36h1.77l2.24-7.37h-1.15z" mask="url(#l)" transform="translate(85.92 29.04)"/></g></g></svg>