<svg xmlns="http://www.w3.org/2000/svg" xmlns:xlink="http://www.w3.org/1999/xlink" width="92" height="25" viewBox="0 0 92 25"><defs><path id="a" d="M.42.53h7.42v19.84H.42z"/></defs><g fill="none" fill-rule="evenodd"><path fill="#253B80" d="M11.85 6.7c-.4 2.55-2.35 2.55-4.25 2.55H6.52l.76-4.78a.6.6 0 0 1 .59-.5h.5c1.28 0 2.5 0 3.13.73.37.44.49 1.1.35 2M11.02 0H3.88a1 1 0 0 0-.98.84L0 19.16a.6.6 0 0 0 .6.68H4A1 1 0 0 0 5 19l.78-4.94a1 1 0 0 1 .98-.83H9c4.7 0 7.42-2.28 8.13-6.8.32-1.97.01-3.52-.91-4.6C15.2.62 13.4 0 11.03 0M27.6 13.27a3.81 3.81 0 0 1-3.85 3.26c-1 0-1.8-.32-2.3-.92a2.9 2.9 0 0 1-.54-2.4 3.83 3.83 0 0 1 3.84-3.3c.97 0 1.76.33 2.28.94.52.61.72 1.47.58 2.42m4.76-6.66h-3.42a.6.6 0 0 0-.59.5l-.15.96-.24-.35c-.74-1.07-2.39-1.43-4.04-1.43-3.78 0-7 2.86-7.63 6.88-.33 2 .13 3.92 1.27 5.25 1.04 1.23 2.54 1.74 4.3 1.74 3.06 0 4.74-1.96 4.74-1.96l-.15.95a.6.6 0 0 0 .59.7h3.08a1 1 0 0 0 .98-.85l1.85-11.7a.6.6 0 0 0-.59-.7M50.6 6.6h-3.45a1 1 0 0 0-.82.44l-4.74 6.99-2-6.71a1 1 0 0 0-.96-.71h-3.38a.6.6 0 0 0-.56.79l3.78 11.1-3.56 5.03a.6.6 0 0 0 .49.94h3.43c.33 0 .63-.16.82-.42l11.43-16.5a.6.6 0 0 0-.49-.94"/><path fill="#179BD7" d="M62.8 6.7c-.4 2.55-2.35 2.55-4.25 2.55h-1.07l.75-4.78a.6.6 0 0 1 .6-.5h.49c1.28 0 2.5 0 3.13.73.38.44.49 1.1.35 2M61.97 0h-7.14a1 1 0 0 0-.98.84l-2.89 18.32a.6.6 0 0 0 .59.68h3.66a.7.7 0 0 0 .69-.58l.82-5.2a1 1 0 0 1 .98-.83h2.26c4.7 0 7.42-2.28 8.13-6.8.32-1.97.01-3.52-.91-4.6C66.16.62 64.36 0 61.98 0M78.56 13.27a3.81 3.81 0 0 1-3.86 3.26c-1 0-1.8-.32-2.3-.92-.5-.6-.7-1.45-.54-2.4a3.83 3.83 0 0 1 3.84-3.3c.97 0 1.76.33 2.28.94.52.61.73 1.47.58 2.42m4.76-6.66h-3.41a.6.6 0 0 0-.6.5l-.14.96-.24-.35c-.74-1.07-2.4-1.43-4.04-1.43-3.78 0-7.01 2.86-7.64 6.88-.32 2 .14 3.92 1.27 5.25 1.05 1.23 2.54 1.74 4.31 1.74 3.05 0 4.74-1.96 4.74-1.96l-.15.95a.6.6 0 0 0 .58.7h3.09a1 1 0 0 0 .97-.85l1.85-11.7a.6.6 0 0 0-.59-.7"/><g transform="translate(84 -.53)"><mask id="b" fill="#fff"><use xlink:href="#a"/></mask><path fill="#179BD7" d="M3.36 1.03L.43 19.68a.6.6 0 0 0 .58.7h2.95c.49 0 .9-.36.98-.85l2.9-18.31a.6.6 0 0 0-.6-.7h-3.3a.6.6 0 0 0-.58.51" mask="url(#b)"/></g></g></svg>