<svg height="60" viewBox="0 0 106 60" width="106" xmlns="http://www.w3.org/2000/svg" xmlns:xlink="http://www.w3.org/1999/xlink"><mask id="a" fill="#fff"><path d="m0 .1022579h17.0645625v14.0584029h-17.0645625z" fill="#fff" fill-rule="evenodd"/></mask><mask id="b" fill="#fff"><path d="m.09933333.06587442h11.03916667v14.51745888h-11.03916667z" fill="#fff" fill-rule="evenodd"/></mask><mask id="c" fill="#fff"><path d="m0 .05171875h19.9996406v24.72403125h-19.9996406z" fill="#fff" fill-rule="evenodd"/></mask><mask id="d" fill="#fff"><path d="m.15578125.05171875h20.00046875v24.72403125h-20.00046875z" fill="#fff" fill-rule="evenodd"/></mask><mask id="e" fill="#fff"><path d="m.14046875.14892188h26.90703125v4.38232812h-26.90703125z" fill="#fff" fill-rule="evenodd"/></mask><g fill="none" fill-rule="evenodd"><g fill="#1d267a" transform="translate(28 45)"><path d="m40.5857083 9.51279167c-.363125-1.73854167-.7208333-3.45145834-1.07875-5.16458334-.0189583.00083334-.0377083.00166667-.0566666.00229167-.6210417 1.713125-1.2420834 3.42625-1.8716667 5.16229167zm4.39 4.98291663h-3.3479166c-.1275-.614375-.261875-1.22125-.3754167-1.831875-.0377083-.2035416-.1177083-.264375-.3266667-.2627083-1.3829166.0104167-2.76625.0091667-4.1489583.0010417-.1897917-.00125-.2777083.0566666-.3383333.2372916-.1910417.5670834-.39625 1.13-.610625 1.68875-.029375.0760417-.1422917.17-.2172917.170625-1.183125.0102084-2.3660417.006875-3.5491667.005625-.0233333 0-.0466666-.0095833-.0954166-.0204166.2191666-.5275.4339583-1.048125.6514583-1.5679167 1.5835417-3.78166667 3.1675-7.56333333 4.75125-11.345.3095833-.73979167.8591667-1.116875 1.6672917-1.11395833.9245833.00354166 1.849375.00458333 2.7741666-.0025.1758334-.00125.25625.035.296875.23020833.9360417 4.51125 1.88125 9.020625 2.8239584 13.5304167.0185416.08875.02875.1791666.0447916.2804166z"/><path d="m-.00002083.5c.02895833-.13625.05270833-.248125.080625-.38.083125-.004375.16395833-.01208333.245-.01229167 1.94916666-.000625 3.89854166-.00229166 5.84791666.00041667.959375.00125 1.60083334.54583333 1.776875 1.48604167.483125 2.583125.96979167 5.165625 1.45604167 7.748125.01458333.07708333.03833333.15270833.07604167.29979166.14125-.35270833.25875-.641875.37354166-.93229166 1.10395837-2.79104167 2.20895837-5.58166667 3.30708337-8.37520834.0685416-.17416666.1525-.23395833.3420833-.23229166 1.0995833.01020833 2.1991667.005 3.2989583.005h.2604167c-.053125.139375-.093125.25375-.14.36541666-1.8795833 4.48625-3.760625 8.97208334-5.6358333 13.46020837-.0725.173125-.1602084.229375-.3472917.2277083-1.12458333-.0097917-2.249375-.00875-3.37375-.0008333-.17416667.00125-.23958333-.0495834-.28375-.2214584-.95229167-3.7039583-1.91604167-7.40499997-2.86666667-11.10916663-.14291666-.55708334-.44541666-.94375-.96541666-1.19166667-1.05041667-.50083333-2.158125-.82104167-3.28479167-1.08708333-.04770833-.01145834-.09395833-.02833334-.16708333-.05041667" mask="url(#a)" transform="translate(0 .350771)"/><path d="m11.1385.69429167c-.210625.98270833-.4191667 1.95520833-.6320833 2.94854166-.2497917-.09375-.4789584-.188125-.7135417-.26625-1.000625-.33375-2.02479167-.49458333-3.071875-.30479166-.30958333.05625-.62833333.18854166-.888125.36604166-.60020833.41-.62645833 1.08833334-.04875 1.525.43520833.32916667.928125.58166667 1.39708333.86541667.58333334.35270833 1.19916667.66041667 1.74645834 1.061875 1.39083333 1.02083333 1.85291663 2.44104167 1.38020833 4.1039583-.44229167 1.5558334-1.533125 2.4920834-2.9875 3.058125-1.34833333.5247917-2.75604167.6002084-4.17979167.48375-.889375-.0727083-1.76520833-.2289583-2.61145833-.5235416-.13958333-.0485417-.27583333-.10625-.42979167-.1660417.22083334-1.0327083.43708334-2.045.64854167-3.0339583.604375.2133333 1.18083333.4558333 1.77875.6183333.89083333.2420833 1.80854167.3316667 2.7175.125.36125-.0820833.73-.250625 1.02645833-.4720833.52333334-.3910417.56041667-1.1191667.07145834-1.54687503-.38958334-.340625-.85354167-.59895834-1.29708334-.87354167-.65625-.40666667-1.36333333-.74208333-1.97895833-1.20166667-2.04208333-1.52458333-1.69041667-3.82520833-.631875-5.2175.76333333-1.00354166 1.81604167-1.5625 3.00854167-1.89229166 1.74520833-.48270834 4.14083333-.34479167 5.69583333.3425" mask="url(#b)" transform="translate(21.666667 .142438)"/><path d="m15.6360625 14.5065833c.1097917-.5158333.2129167-1.0014583.316875-1.4866666.880625-4.11333337 1.7620833-8.22645837 2.6397917-12.3404167.0285416-.13395833.046875-.22645833.2233333-.22520833 1.099375.00770833 2.19875.00395833 3.298125.005.0404167 0 .080625.010625.1477083.02-.094375.45520833-.1847916.90145833-.28 1.34666666-.8814583 4.12166667-1.765625 8.24270837-2.64 12.36583337-.0529166.2489583-.1416666.3275-.40375.3225-.9989583-.0191667-1.99875-.0077084-2.998125-.0077084z"/></g><g fill-rule="nonzero" transform="translate(66)"><path d="m6.41790623 2.11818233c0 .56006694.36701934 1.02017643.96676405 1.02017643.57303852 0 .95989675-.4402706.95989675-1.02017643s-.38685823-1.02017643-.95989675-1.02017643c-.59974471 0-.96676405.46010949-.96676405 1.02017643zm2.57981789 0v1.59321495h-.69283486v-.38685823c-.21975378.28690078-.55319963.4669768-1.00644182.4669768-.89351279 0-1.59397798-.70046519-1.59397798-1.67333352 0-.97363136.70046519-1.67333352 1.59397798-1.67333352.45324219 0 .78668804.18007602 1.00644182.4669768v-.38685823h.69283486zm23.41293468 0c0 .56006694.3670193 1.02017643.966764 1.02017643.5738016 0 .9598968-.4402706.9598968-1.02017643s-.3860952-1.02017643-.9598968-1.02017643c-.5997447 0-.966764.46010949-.966764 1.02017643zm2.5805809 0v2.87282294h-.6935979v-1.66646622c-.2197538.28690078-.5531996.4669768-1.0064418.4669768-.8935128 0-1.593978-.70046519-1.593978-1.67333352 0-.97363136.7004652-1.67333352 1.593978-1.67333352.4532422 0 .786688.18007602 1.0064418.4669768v-.38685823h.6935979zm-17.3933596 1.05298689c.4463749 0 .7332757-.28003347.8065269-.77295342h-1.6534946c.0740143.46010949.3532847.77295342.8469677.77295342zm.0137346.62034663c-.9339536 0-1.5871107-.67986328-1.5871107-1.67333352 0-1.01330913.6798633-1.67333352 1.6336558-1.67333352.4799484 0 .9194559.11979634 1.3063142.44637488l-.3395501.51352187c-.2670619-.21288648-.6073751-.33344585-.9270863-.33344585-.4463749 0-.853072.20678221-.9530295.78058376h2.3661684c.0068673.08622284.0137346.17320871.0137346.26629886-.0068673.99347024-.6203466 1.67333352-1.5130964 1.67333352zm8.3659046-1.67333352c0 .56006694.3670193 1.02017643.966764 1.02017643.5730386 0 .9598968-.4402706.9598968-1.02017643s-.3868582-1.02017643-.9598968-1.02017643c-.5997447 0-.966764.46010949-.966764 1.02017643zm2.5798179 0v1.59321495h-.6928349v-.38685823c-.2205168.28690078-.5531996.4669768-1.0064418.4669768-.8935128 0-1.593978-.70046519-1.593978-1.67333352 0-.97363136.7004652-1.67333352 1.593978-1.67333352.4532422 0 .785925.18007602 1.0064418.4669768v-.38685823h.6928349zm-6.4926562 0c0-.96676405.672996-1.67333352 1.7000397-1.67333352.4799484 0 .7996597.10682476 1.1460771.37999092l-.3326828.56006694c-.2601946-.18694332-.5333608-.28690077-.8339962-.28690077-.5531996.0068673-.9598967.40669711-.9598967 1.02017643s.4066971 1.01330913.9598967 1.02017643c.3006354 0 .5738016-.09995745.8339962-.28690077l.3326828.56006694c-.3464174.27316616-.6661287.37999092-1.1460771.37999092-1.0270437 0-1.7000397-.70656947-1.7000397-1.67333352zm8.9328388 1.67333352c-.3998298 0-.6600243-.18694333-.8401004-.4669768v.38685823h-.6867305v-3.1864299h.6935978v1.78626255c0 .52725648.2266211.82026153.6798633.82026153.1403983 0 .2869008-.01983889.4334033-.08011857l.2136495.65315709c-.1533698.06027968-.3532847.08698587-.493683.08698587zm-18.5730101-.33344585c-.3334458.21975379-.7927923.33344585-1.2994468.33344585-.80729 0-1.32691614-.38685823-1.32691614-1.02017643 0-.51962614.38685824-.84010042 1.09953194-.94005787l.3273416-.04654507c.3799909-.05341238.5593039-.15336983.5593039-.33344585 0-.24645997-.2533273-.38685823-.7264083-.38685823-.4799484 0-.8263658.15336983-1.05985423.33344585l-.32657855-.53946502c.37999088-.28003347.85993928-.41356442 1.37956548-.41356442.9202189 0 1.4535797.4334033 1.4535797 1.04001532 0 .56006694-.4196687.85307199-1.1132666.95302944l-.3265785.0473081c-.2998724.03967777-.5402281.09919442-.5402281.31284394 0 .23348839.2266211.37312361.606612.37312361.4066971 0 .8004227-.15336983.9934703-.27316616zm8.9397061.33344585c-.3998298 0-.6600244-.18694333-.8393373-.4669768v.38685823h-.6867306v-3.1864299h.6928348v1.78626255c0 .52725648.2266211.82026153.6798633.82026153.1403983 0 .2869008-.01983889.4334033-.08011857l.2136495.65315709c-.1533698.06027968-.3532847.08698587-.493683.08698587zm-5.9127503-.08011857h-1.1331054v.96676405h-.7004652v-.96676405h-.6462898v-.6333182h.6462898v-1.45357974c0-.73937992.2869007-1.17965053 1.1063992-1.17965053.3006354 0 .6470529.09309015.8668066.24645998l-.1999149.59364043c-.2067822-.11979633-.4334033-.18007602-.6134793-.18007602-.3464174 0-.4593464.21364952-.4593464.53336076v1.43984512h1.1331054zm-10.35971233-3.1864299v1.99991206c0 .75311454-.47994837 1.2597691-1.25366483 1.26663641-.40669711.00686731-.8263658-.11979634-1.12013388-.56693425-.21975379.35328473-.56617122.56693425-1.0529869.56693425-.34031315 0-.67299597-.09995745-.93319055-.47308107v.3929625h-.69359789v-3.1864299h.69970216v1.76642366c0 .55319964.30673966.84696772.78058376.84696772.46010949 0 .69283485-.29987235.69283485-.84010041v-1.77329097h.7004652v1.76642366c0 .55319964.31971124.84696772.77982073.84696772.47308107 0 .69970216-.29987235.69970216-.84010041v-1.77329097z" fill="#231f20" transform="matrix(1 0 0 -1 2.389757 31.325411)"/><path d="m25.1136997 22.2056282h-10.5005685v-18.87135645h10.5005685z" fill="#ff5f00"/><path d="m15.2606796 12.2085437c0 3.8281415 1.7923668 7.2381403 4.5835451 9.4356782-2.0411159 1.6069496-4.6171186 2.5660833-7.4166903 2.5660833-6.62771311 0-12.00023537-5.3732853-12.00023537-12.0017615s5.37252226-12.00176149 12.00023537-12.00176149c2.7995717 0 5.3755744.95913371 7.4166903 2.56608328-2.7911783 2.19753786-4.5835451 5.60753672-4.5835451 9.43567821" fill="#eb001b" transform="matrix(1 0 0 -1 .025142 24.976968)"/><path d="m19.8388835 12.2085437c0-6.6284762-5.3725223-12.00176149-12.00023542-12.00176149-2.79957167 0-5.37557439.95913371-7.41745332 2.56608328 2.79194133 2.19753786 4.58430815 5.60753672 4.58430815 9.43567821 0 3.8281415-1.79236682 7.2381403-4.58430815 9.4356782 2.04187893 1.6069496 4.61788165 2.5660833 7.41745332 2.5660833 6.62771312 0 12.00023542-5.3732853 12.00023542-12.0017615" fill="#f79e1b" transform="matrix(1 0 0 -1 19.436727 24.976968)"/></g><g><path d="m14.5920312 22.2367188h10.8159375v-19.4376563h-10.8159375z" fill="#6c6bbd"/><path d="m15.2785469 12.4137188c0-3.94312505 1.8460937-7.45531255 4.7210937-9.7189063-2.1023437-1.65515625-4.755625-2.643125-7.6392187-2.643125-6.82671877 0-12.36046878 5.53453125-12.36046878 12.3620313 0 6.8273437 5.53375001 12.3620312 12.36046878 12.3620312 2.8835937 0 5.536875-.988125 7.6392187-2.643125-2.875-2.2635937-4.7210937-5.7759375-4.7210937-9.7189062" fill="#d32011" mask="url(#c)" transform="translate(0 .104531)"/><path d="m20.15625 12.4137188c0 6.8273437-5.53375 12.3620312-12.3603125 12.3620312-2.88375 0-5.53703125-.988125-7.64015625-2.643125 2.87578125-2.2635937 4.721875-5.7759375 4.721875-9.7189062 0-3.94312505-1.84609375-7.45531255-4.721875-9.7189063 2.103125-1.65515625 4.75640625-2.643125 7.64015625-2.643125 6.8265625 0 12.3603125 5.53453125 12.3603125 12.3620313" fill="#0099df" mask="url(#d)" transform="translate(19.84375 .104531)"/><path d="m5.34484375 4.42673437v-2.06c0-.775625-.494375-1.2975-1.29046875-1.30453125-.41890625-.0071875-.851875.12328125-1.15375.58390625-.22640625-.36390625-.58390625-.58390625-1.0853125-.58390625-.34984375 0-.69328125.10296875-.96125.4871875v-.4046875h-.71359375v3.28203125h.720625v-1.81953125c0-.5696875.3159375-.87234375.80328125-.87234375.47390625 0 .714375.30890625.714375.86546875v1.82640625h.720625v-1.81953125c0-.5696875.33015625-.87234375.80328125-.87234375.488125 0 .7215625.30890625.7215625.86546875v1.82640625zm4.02328125-1.64109375v-1.6409375h-.71375v.3984375c-.22703125-.295625-.5696875-.4809375-1.0365625-.4809375-.9203125 0-1.64109375.72062501-1.64109375 1.7234375 0 1.00203126.72078125 1.72359376 1.64109375 1.72359376.466875 0 .80953125-.18546875 1.0365625-.48093751v.39843751h.71375zm-2.65734375.00000001c0-.57671876.378125-1.05078126.99578125-1.05078126.5903125 0 .98875.45359375.98875 1.05078126 0 .59734375-.3984375 1.05015625-.98875 1.05015625-.61765625 0-.99578125-.47328126-.99578125-1.05015625zm18.56062505-1.72343751c.2546875 0 .4904687.04390626.7073437.13265626.216875.088125.4046875.21.5626563.3646875.1589062.155.2823437.33796875.371875.54859375.0895312.2115625.1342187.4409375.1342187.6884375 0 .24765625-.0446875.4771875-.1342187.68859375-.0895313.210625-.2129688.39453125-.371875.549375-.1579688.1546875-.3457813.2759375-.5626563.3646875-.216875.088125-.4526562.13203125-.7073437.13203125s-.4903125-.04390625-.7073438-.13203125c-.216875-.08875-.403125-.21-.5603125-.3646875-.1571875-.15484375-.280625-.33875-.3701563-.549375-.0895312-.21140625-.1345312-.4409375-.1345312-.68859375 0-.2475.045-.476875.1345312-.6884375.0895313-.210625.2129688-.39359375.3701563-.54859375.1571875-.1546875.3434375-.2765625.5603125-.3646875.2170313-.08875.4526563-.13265626.7073438-.13265626zm0 .67828125c-.146875 0-.2828125.0259375-.4095313.07703125-.1257813.051875-.235.1240625-.326875.21671875-.091875.0928125-.1642187.204375-.216875.3340625-.0526562.1296875-.0785938.2728125-.0785938.42828125 0 .15640625.0259376.29875.0785938.42859375.0526563.12953125.125.24125.216875.33390625s.2010937.165.326875.216875c.1267188.051875.2626563.07703125.4095313.07703125.1470312 0 .2837499-.02515625.409375-.07703125.1267187-.051875.2367187-.12421875.3285937-.216875.0935938-.09265625.1657813-.204375.2192187-.33390625.0528126-.12984375.0785938-.2721875.0785938-.42859375 0-.15546875-.0257812-.29859375-.0785938-.42828125-.0534374-.1296875-.1256249-.24125-.2192187-.3340625-.091875-.09265625-.201875-.16484375-.3285937-.21671875-.1256251-.05109375-.2623438-.07703125-.409375-.07703125zm-8.8064063.24187501c-.1989063-.1240625-.6034375-.28203126-1.0225-.28203126-.3914063 0-.6248437.14468751-.6248437.38515626 0 .21921875.246875.28124999.5557812.32218749l.3364063.04796875c.7143749.10375 1.1465625.40546875 1.1465625.98234376 0 .62484375-.5493751 1.07125-1.4964063 1.07125-.5359375 0-1.0303125-.13765625-1.4217187-.4259375l.3362499-.5565625c.2404688.185625.5982813.3434375 1.0926563.3434375.4871875 0 .748125-.14359375.748125-.39828125 0-.18484375-.1854687-.28843751-.576875-.34281251l-.3364062-.0478125c-.7348438-.10374999-1.1332813-.433125-1.1332813-.9684375 0-.6521875.5360938-1.050625 1.3667188-1.050625.521875 0 .9957812.11703126 1.3384374.3434375zm-3.1373437.80328124c-.0071875-1.02328125-.6390625-1.7234375-1.559375-1.7234375-.96125 0-1.6339063.70015625-1.6339063 1.7234375 0 1.04296875.7003125 1.7228125 1.6826563 1.7228125.494375 0 .9470312-.12343749 1.3454687-.45984375l-.3504687-.52890625c-.2742188.22015625-.6248438.34359375-.9540625.34359375-.4598438 0-.87875-.213125-.9817188-.80328125h2.4371875c.0070313-.08953125.0142188-.1784375.0142188-.274375zm-2.4451563-.2884375c.07625-.47390625.3639063-.796875.8723438-.796875.4598437 0 .7553125.28828125.8307812.796875zm9.1396875-.70015625h-1.1670312v1.48296876c0 .329375.11625.549375.47375.549375.185625 0 .4190624-.06203125.6310937-.18546875l.2059375.610625c-.22625.15796875-.583125.2546875-.8920313.2546875-.8448437 0-1.1395312-.4534375-1.1395312-1.21578125v-1.49640626h-.6664062v-.65234374h.6664062v-.99578125h.7207813v.99578125h1.1670312zm2.6390625-.73484375c.1439063 0 .350625.02750001.5085938.08953125l-.22.67281251c-.1509375-.0621875-.301875-.08265625-.4465625-.08265625-.4667188 0-.7001563.30187499-.7001563.84421874v1.84062501h-.714375v-3.28203125h.7071875v.39843749c.185625-.2884375.4534375-.4809375.8653125-.4809375z" fill="#110f0d" mask="url(#e)" transform="translate(6.40625 26.667031)"/></g></g></svg>