<svg fill="none" height="30" viewBox="0 0 50 30" width="50" xmlns="http://www.w3.org/2000/svg" xmlns:xlink="http://www.w3.org/1999/xlink"><clipPath id="a"><path d="m3 11h44v8h-44z"/></clipPath><rect fill="#e0211c" height="30" rx="4" width="50"/><g clip-path="url(#a)"><path d="m40.7419 16.1442c0-1.6091 1.3239-2.9009 3.1291-2.9009 1.8053 0 3.1291 1.2918 3.1291 2.8782v.0227c0 1.5637-1.3238 2.8782-3.1531 2.8782-1.7812-.0227-3.1051-1.3145-3.1051-2.8782z" fill="#2a317e"/><g fill="#fff"><path d="m37.9019 14.3772c-.3852 0-.6981 0-1.0591 0 0-.408 0-.7706 0-1.1785h1.0591c0-.3399.024-.6572 0-.9745 0-.204.0722-.2946.2647-.3399.3129-.068.6499-.1587 1.035-.272v1.5637h1.4683v1.2012c-.4814 0-.9387 0-1.4683 0v1.5411 1.1784c.0241.4986.1685.6572.6981.7026.2407.0226.4814 0 .7461 0v1.0878c-.4814 0-.9387.0453-1.396 0-.7703-.0907-1.2517-.5439-1.3239-1.2691-.0722-.9065-.0481-1.7904-.0481-2.6969.0241-.1813.0241-.34.0241-.5439z"/><path d="m3 18.1612.60175-.8612c.64989.4532 1.32385.6799 1.9256.6799.57768 0 .91466-.2267.91466-.5893v-.0453c0-.4306-.62582-.5666-1.32385-.7705-.86652-.2267-1.82932-.5666-1.82932-1.6318v-.0226c0-1.0425.91466-1.6771 2.09409-1.6771.74617 0 1.54048.2493 2.1663.6346l-.52954.9065c-.57768-.3173-1.17943-.5213-1.66083-.5213-.52954 0-.81838.2267-.81838.544v.0226c0 .408.62582.5666 1.32385.7932.86652.2493 1.82932.6119 1.82932 1.6091v.0226c0 1.1559-.9628 1.7451-2.19037 1.7451-.84245-.0227-1.75711-.2946-2.50328-.8385z"/><path d="m8.17505 16.1214c0-1.609 1.17943-2.9008 2.86435-2.9008 1.8774 0 2.8162 1.3824 2.8162 2.9688 0 .1133 0 .2266-.0241.3626h-4.30853c.14442.9065.81843 1.4051 1.68493 1.4051.6499 0 1.1313-.2266 1.5886-.6572l.7943.6572c-.5536.6346-1.3238 1.0425-2.407 1.0425-1.70897 0-3.00875-1.1558-3.00875-2.8782zm4.35665-.4079c-.0963-.8159-.6017-1.4504-1.4923-1.4504-.8184 0-1.39608.5892-1.51643 1.4504z"/><path d="m14.6497 13.3348h1.3479v.8385c.3851-.5212.9146-.9745 1.8293-.9745 1.3239 0 2.0941.8385 2.0941 2.1077v3.5354h-1.3479v-3.1048c0-.8612-.4574-1.3598-1.2517-1.3598-.7702 0-1.3238.5212-1.3238 1.3824v3.1275h-1.3479z"/><path d="m20.6672 16.1442c0-1.5864 1.2998-2.9009 3.0569-2.9009 1.1072 0 1.7812.3853 2.3589.9519l-.8425.8385c-.4091-.4079-.8424-.7026-1.5164-.7026-.9868 0-1.7089.7932-1.7089 1.7677v.0227c0 .9745.7221 1.7677 1.7571 1.7677.6258 0 1.1072-.2719 1.5164-.6799l.8184.7479c-.5777.6119-1.2517 1.0425-2.407 1.0425-1.7331 0-3.0329-1.2918-3.0329-2.8555z"/><path d="m26.8774 13.3337h1.348v5.5297h-1.348z"/><path d="m29.5015 11h1.3479v7.864h-1.3479z"/><path d="m32.1248 11h1.3479v7.864h-1.3479z"/><path d="m34.748 13.3337h1.348v5.5297h-1.348z"/><path d="m36.2407 11.8609c0 .4079-.3852.7706-.8184.7706-.4573 0-.8425-.3853-.8425-.7932.0241-.4306.3852-.7479.8425-.7479s.8424.3626.8184.7705z"/><path d="m28.3217 11.8609c0 .4079-.3851.7706-.8184.7706-.4573 0-.8424-.3853-.8424-.7932.0241-.4306.3851-.7479.8424-.7479.4574 0 .8425.3626.8184.7705z"/><path d="m45.6524 16.7113c-.0963 0-.1926 0-.2889 0 0-.0227 0-.068 0-.0907 0-.2266 0-.4532 0-.7025 0-.0907-.0481-.1813-.1444-.2267-.0963-.0226-.2166-.0226-.2888.068-.0482.0454-.0722.136-.0963.204-.0241.204 0 .4306 0 .6346v.0906c-.0963 0-.1926 0-.2888 0 0-.4079 0-.8159 0-1.2465h.2647c0 .0454 0 .068.0241.1134.2888-.2267.5295-.204.7462.0453.0963-.1133.1925-.1587.337-.1813.2888-.0227.5295.136.5536.4306v.136.7252c-.0963 0-.1926 0-.2889 0 0-.0907 0-.1813 0-.272 0-.1586 0-.3399 0-.4986 0-.1586-.0963-.2266-.2407-.2493-.1444 0-.2647.068-.2888.204-.0241.068-.0241.136-.0241.204.0241.2039.0241.4079.0241.6119z"/><path d="m44.4246 16.0994c0 .3626-.3129.6572-.698.6572s-.698-.2946-.698-.6572.3129-.6573.698-.6573.698.2947.698.6573zm-.698.3852c.2407 0 .4092-.1813.4092-.3852 0-.2267-.1926-.3853-.4092-.3853-.2407 0-.4092.1813-.4092.3853-.0241.2266.1685.3852.4092.3852z"/><path d="m42.9804 15.76c-.0722.0453-.1684.0906-.2407.1359-.1684-.2493-.4814-.2266-.6498-.0679-.1685.1586-.1445.4305 0 .5665.1925.1587.4332.136.6498-.0906.0723.0453.1445.0906.2407.1359-.1203.2493-.4332.3853-.7702.3173-.3129-.068-.5295-.3173-.5295-.6345 0-.3173.2166-.5666.5295-.6346.3129-.0906.6499.0227.7702.272z"/><path d="m41.2715 16.5759c0-.1133.0963-.1813.1925-.1813.1204 0 .1926.068.1926.1813s-.0963.204-.1926.1813c-.0962 0-.1925-.0906-.1925-.1813z"/></g></g></svg>