<svg height="25" viewBox="0 0 104 25" width="104" xmlns="http://www.w3.org/2000/svg" xmlns:xlink="http://www.w3.org/1999/xlink"><mask id="a" fill="#fff"><path d="m0 24.86h103.67v-24.86h-103.67z" fill="#fff" fill-rule="evenodd"/></mask><g fill="none" fill-rule="evenodd"><path d="m0 19.35h4.89l.55-5.87c.1-.55.1-1.1.1-1.65h.18c0 .55.18 1.1.28 1.74l1.75 5.78h2.95l2.03-6.14c.18-.46.28-.92.37-1.38h.09l.65 7.52h4.88l-2.3-13.67h-5.07l-1.57 5.42c-.19.55-.28 1.19-.37 1.83h-.1l-1.92-7.15h-5.17zm28.04-13.75v7.6c0 1.1 0 2.03-1.38 2.03-1.3 0-1.39-.92-1.39-2.02v-7.61h-4.97v8.07c0 4.03 2.5 5.77 6.36 5.77 3.88 0 6.37-1.83 6.37-5.77v-8.07h-4.98zm7.29 13.75h9.13v-4.4h-4.15v-9.35h-4.98zm9.03-9.26 2.77-.09v9.35h4.98v-9.35l2.77.09v-4.49h-10.52z" fill="#1c1c1b"/><path d="m56.26 19.26h4.98v-13.66h-4.98z" fill="#1c1c1b" mask="url(#a)"/><path d="m70.28 15.96c-.36.1-1.01.27-1.66.27-.92 0-1.57-.82-1.57-2.2 0-2.84 1.67-4.95 3.32-4.95.28 0 .65.09 1.02.09l1.01-3.3a4.26 4.26 0 0 0 -1.84-.28c-4.15 0-7.47 3.76-7.47 9 0 2.38 1.38 4.85 4.43 4.85 1.2 0 2.12-.18 2.49-.36zm8.58-3.12c-.46 2.39-1.1 3.4-1.84 3.4-.83 0-.93-.83-.93-1.75 0-1.56 1.02-5.87 2.96-5.87.18 0 .36 0 .64.1zm3.32 6.51c0-1.46.28-4.22.55-5.68l1.48-7.43a12.1 12.1 0 0 0 -4.06-.65c-6.08 0-8.02 5.69-8.02 9.82 0 2.3.92 4.13 3.13 4.13 1.1 0 2.4-.74 3.42-2.39h.09c0 .73-.1 1.47-.1 2.1h3.51zm7.29-14.85c1.2 0 2.21-.92 2.21-2.48 0-1.02-.55-2.02-1.84-2.02-1.39 0-2.22 1.28-2.22 2.39 0 1.19.56 2.1 1.85 2.1zm-2.58 1.37-2.4 12.57c-.56 2.66-1.2 3.3-2.22 3.3-.18 0-.37 0-.64-.1l-.37 3.03c.55.1 1.1.19 1.66.19 2.03 0 3.6-.83 4.33-2.11.56-.92.93-2.11 1.48-4.68l2.3-12.2h-4.13zm11.43 6.97c-.46 2.39-1.1 3.4-1.84 3.4-.83 0-.92-.83-.92-1.75 0-1.56 1.01-5.87 2.95-5.87.09 0 .37 0 .64.1zm3.32 6.51c0-1.46.28-4.22.56-5.68l1.47-7.43c-.92-.37-2.49-.65-4.06-.65-6.08 0-8.02 5.69-8.02 9.82 0 2.3.92 4.13 3.14 4.13 1.1 0 2.4-.74 3.41-2.39h.1c0 .73-.1 1.47-.1 2.1h3.5z" fill="#be1717" mask="url(#a)"/></g></svg>