<svg fill="none" height="30" viewBox="0 0 50 30" width="50" xmlns="http://www.w3.org/2000/svg"><rect fill="#6200ee" height="30" rx="4" width="50"/><path clip-rule="evenodd" d="m15.7486 11.936h.2216.1108c.1108 0 .2216.108.3325.216.1108.108.1108.216.1108.324v5.832c0 .108-.1108.324-.2217.432-.1108.108-.2216.216-.4432.216-.1108 0-.3324-.108-.4432-.216-.1109-.108-.2217-.216-.2217-.432v-3.78l-1.8837 3.024c0 .108-.1109.108-.2217.216-.1108 0-.1108 0-.2216 0s-.2216 0-.2216 0c-.1108 0-.2216-.108-.2216-.216l-1.8838-3.024v3.78c0 .108-.1108.324-.2216.432-.1109.108-.2217.216-.44328.216-.11081 0-.33244-.108-.44325-.216.11081-.108 0-.216 0-.324v-5.94c0-.108 0-.216.11081-.324s.22163-.216.33244-.216h.11081.22157c.1109 0 .2217.108.3325.216l2.4378 3.996 2.4379-3.996c.1108 0 .2216-.108.3324-.216zm5.6513.324c.1109-.108.2217-.324.5541-.324s.4432.216.554.324l2.8811 5.832c.1108.108.1108.324 0 .432 0 .108-.1108.216-.3324.324-.1108.108-.3324.108-.4432 0-.1109 0-.2217-.108-.3325-.324l-2.327-4.644-2.327 4.752c-.1108.108-.2217.216-.3325.324-.1108 0-.3324 0-.4432 0-.1108-.108-.2216-.216-.3324-.324 0-.108 0-.324 0-.432zm6.7595.756c.6649-.648 1.5514-1.08 2.5486-1.08.8865 0 1.773.324 2.4379.864.1108.108.2216.216.2216.432 0 .108 0 .324-.1108.432-.2216.108-.4432.216-.5541.216-.1108 0-.3324 0-.4432-.108-.4432-.432-.9973-.648-1.6622-.648-.6648 0-1.2189.216-1.6621.648-.4433.432-.6649.972-.6649 1.62s.2216 1.188.6649 1.62c.4432.432.9973.648 1.6621.648.6649 0 1.1081-.216 1.6622-.648.1108-.108.2216-.108.4432-.108.1109 0 .3325.108.4433.216s.1108.216.1108.432c0 .108-.1108.324-.2216.432-.6649.648-1.4406.864-2.4379.864s-1.7729-.324-2.5486-1.08c-.6649-.648-.9973-1.512-.9973-2.484 0-.756.3324-1.62 1.1081-2.268zm12.4108-.864c.1108-.108.2216-.216.4433-.216.1108 0 .3324.108.4432.216 0 .108.1108.216.1108.324v5.94c0 .108-.1108.324-.2216.432s-.2216.216-.4433.216c-.1108 0-.3324-.108-.4432-.216s-.2216-.216-.2216-.432v-2.376h-3.6568v2.268c0 .108-.1108.324-.2216.432s-.2216.216-.4432.216c-.1109 0-.3325-.108-.4433-.216s-.2216-.216-.2216-.432v-5.832c0-.108.1108-.324.2216-.432s.2216-.216.4433-.216c.1108 0 .3324.108.4432.216s.2216.216.2216.432v2.484h3.6568v-2.484c.1108-.108.2216-.216.3324-.324z" fill="#fff" fill-rule="evenodd"/></svg>