<svg fill="none" height="50" viewBox="0 0 63 50" width="63" xmlns="http://www.w3.org/2000/svg" xmlns:xlink="http://www.w3.org/1999/xlink"><clipPath id="a"><path d="m.635742 15.2983h19.4031v19.4031h-19.4031z"/></clipPath><clipPath id="b"><path d="m24.0391 13.3228h14.5965v23.3545h-14.5965z"/></clipPath><clipPath id="c"><path d="m42.6357 15.136h19.728v19.728h-19.728z"/></clipPath><g clip-path="url(#a)"><path d="m10.3373 34.7014c5.358 0 9.7015-4.3435 9.7015-9.7015s-4.3435-9.7016-9.7015-9.7016c-5.35803 0-9.701558 4.3436-9.701558 9.7016s4.343528 9.7015 9.701558 9.7015z" fill="#f99400"/><path d="m14.6132 23.6175c.194-1.2915-.7895-1.9852-2.1344-2.4484l.4366-1.7487-1.066-.2644-.4244 1.7026c-.2835-.07-.5677-.1371-.8525-.2013l.4281-1.7135-1.06479-.2656-.43657 1.7487c-.23041-.0533-.4584-.1055-.67911-.16v-.0061l-1.46614-.3662-.28377 1.1362s.79067.182.77369.1929c.43051.1079.50934.3929.496.6184l-1.19451 4.7914c-.05336.131-.18675.3274-.4875.2534.0097.0158-.7737-.194-.7737-.194l-.52873 1.2188 1.38489.3456c.25831.0643.51055.1334.75915.1952l-.44021 1.7694 1.06353.2655.43657-1.7511c.28984.0788.57239.1528.84768.2207l-.43536 1.7414 1.06478.2656.4414-1.7657c1.8142.3432 3.1797.2062 3.7545-1.437.4633-1.3218-.023-2.0834-.9774-2.5806.6961-.1601 1.22-.6185 1.3594-1.5632zm-2.4315 3.4113c-.3298 1.3219-2.55513.6064-3.27668.4281l.58331-2.3441c.72157.1807 3.03537.5372 2.69217 1.916zm.3287-3.4295c-.2996 1.2018-2.1526.5918-2.75286.4415l.52996-2.1259c.6003.1492 2.5358.4293 2.2229 1.6844z" fill="#fff"/></g><g clip-path="url(#b)" clip-rule="evenodd" fill-rule="evenodd"><path d="m31.3324 13.3228-.1595.5322v15.4393l.1595.1557 7.2954-4.2359z" fill="#343434"/><path d="m31.3325 13.3228-7.2964 11.8913 7.2964 4.2359v-7.4939z" fill="#8c8c8c"/><path d="m31.3317 30.8075-.0905.107v5.5l.0905.2578 7.3002-10.0998z" fill="#3c3c3b"/><path d="m31.3325 36.6723v-5.8658l-7.2964-4.234z" fill="#8c8c8c"/><path d="m31.333 29.4499 7.2954-4.2359-7.2954-3.2579z" fill="#141414"/><path d="m24.0361 25.214 7.2964 4.2359v-7.4938z" fill="#393939"/></g><g clip-path="url(#c)"><path d="m52.499 15.136c-1.9512 0-3.8585.5786-5.4808 1.6626s-2.8868 2.6247-3.6335 4.4273c-.7466 1.8027-.942 3.7862-.5613 5.6999.3806 1.9137 1.3202 3.6715 2.6998 5.0511 1.3797 1.3797 3.1375 2.3193 5.0512 2.6999 1.9137.3807 3.8972.1853 5.6998-.5614 1.8027-.7466 3.3434-2.0111 4.4274-3.6334s1.6626-3.5297 1.6626-5.4808c0-1.2955-.2552-2.5784-.7509-3.7753-.4958-1.1969-1.2225-2.2844-2.1386-3.2005-.916-.916-2.0036-1.6427-3.2005-2.1385-1.1969-.4957-2.4797-.7509-3.7752-.7509zm.1599 10.1897-1.0262 3.4626h5.4887c.0436.0001.0866.0104.1256.03.0391.0196.073.048.0991.0829.0262.035.0438.0755.0516.1185.0078.0429.0055.0871-.0067.129l-.4772 1.6442c-.0228.0785-.0705.1475-.1359.1966-.0655.0491-.1451.0755-.2269.0754h-8.3832l1.4175-4.787-1.5679.4773.346-1.1192 1.5703-.4773 1.9902-6.7248c.0219-.0788.0689-.1483.134-.1978.065-.0496.1445-.0765.2263-.0766h2.1239c.0436-.0002.0866.0098.1257.0291.039.0193.0731.0474.0995.0821s.0443.075.0524.1179c.0082.0428.0062.0869-.0056.1289l-1.6704 5.6866 1.5678-.4772-.3365 1.1383z" fill="#345d9d"/></g></svg>