<svg height="38" viewBox="0 0 120 38" width="120" xmlns="http://www.w3.org/2000/svg" xmlns:xlink="http://www.w3.org/1999/xlink"><radialGradient id="a" cx="40.435638%" cy="117.807073%" gradientTransform="matrix(.56705237 .15668685 -.08996081 .98764833 .281045 -.048806)" r="105.495791%"><stop offset="0" stop-color="#fb7e24"/><stop offset="1" stop-color="#fd591f"/></radialGradient><radialGradient id="b" cx="85.646896%" cy="49.161235%" gradientTransform="matrix(-.78910148 -.08499046 .06730964 -.99638177 1.49922 1.054237)" r="126.652024%"><stop offset="0" stop-color="#fdd15b"/><stop offset="1" stop-color="#fdaf33"/></radialGradient><linearGradient id="c" x1="49.128469%" x2="50.739718%" y1="223.000275%" y2="-82.477997%"><stop offset="0" stop-color="#f9b648"/><stop offset="1" stop-color="#f99736"/></linearGradient><radialGradient id="d" cx="-19.273308%" cy="25.232987%" gradientTransform="matrix(-.63031605 .40826717 -.77633864 -.33147565 -.118322 .414658)" r="114.511165%"><stop offset="0" stop-color="#cd002d"/><stop offset="1" stop-color="#a30011"/></radialGradient><radialGradient id="e" cx="87.315288%" cy="1.603372%" gradientTransform="matrix(-.31338175 .63145083 -.94962723 -.20838194 1.16201 -.531978)" r="136.492169%"><stop offset="0" stop-color="#e2005b"/><stop offset="1" stop-color="#f23d95"/></radialGradient><linearGradient id="f" x1="-.000153%" x2="100.000165%" y1="50.000399%" y2="50.000399%"><stop offset="0" stop-color="#e20d67"/><stop offset="1" stop-color="#d30044"/></linearGradient><radialGradient id="g" cx="90.737502%" cy="34.913252%" gradientTransform="matrix(-.36020213 -.92558014 .93287428 -.35738571 .908516 1.313756)" r="75.675203%"><stop offset="0" stop-color="#31b191"/><stop offset="1" stop-color="#1f9075"/></radialGradient><radialGradient id="h" cx="75.763143%" cy="89.42617%" gradientTransform="matrix(-.54821454 -.73793805 .59944774 -.67486846 .636912 2.056856)" r="95.753502%"><stop offset="0" stop-color="#3fdaa0"/><stop offset="1" stop-color="#7ef4c3"/></radialGradient><linearGradient id="i" x1="32.321857%" x2="77.295393%" y1="23.749104%" y2="101.202907%"><stop offset="0" stop-color="#4bd69e"/><stop offset="1" stop-color="#38c88c"/></linearGradient><mask id="j" fill="#fff"><path d="m.00902655 6.13964602c-.00530974 2.12654867 1.89716814 2.70955752 2.83486726.84053097 1.56955752-3.12743363 5.47539823-4.39221239 9.96637169-3.66690265 1.2653097.20442478.5484956-.62230089-1.0571682-1.44902655-1.4378761-.74017699-3.58831854-1.48035398-5.66654863-1.48035398-2.78283186-.00053098-5.43557522 1.32637168-6.07752212 5.75575221" fill="#fff" fill-rule="evenodd"/></mask><mask id="k" fill="#fff"><path d="m20.479646.39185841c-.4449557.00849557-.9307964.51876106-1.1458407.97327433-.0812389.17256638-.2214159.31221239-.3971681.38867257-.2968142.12849557-.6366372.4380531-.7438938.81345133-.0669027.23522124-.2378761.42318584-.4635399.51610619-.298407.12265487-.5713274.36477876-.7099115.65893805-2.3277876-.42053097-4.9768141-.07168141-7.48035395.94991151-2.59911504 1.06088496-5.04159292 2.84654867-6.8038938 5.24814159-1.76283186 2.40159292-2.84548673 5.41911502-2.7260177 8.94265482.14814159-.9329203.72743363-1.6327433 1.59876106-2.1414159.87026549-.5081416 2.0320354-.8256637 3.34566372-.9939823 1.31256637-.1683186 2.7759292-.1879646 4.25097345-.1008849 1.47451332.0860177 2.96017702.279823 4.31628322.5368141 1.8865486.3578761 3.5325663.260708 4.9115044-.1465486 1.3784071-.4077877 2.4892035-1.1251328 3.3042478-2.0081416.8145133-.8830089 1.3327433-1.9322124 1.5260177-3.0026549.1938053-1.06938054.0626548-2.16053098-.4215929-3.12796461-.6658408-1.33221239-1.6369912-2.34-2.8072567-3.04725664.0366372-.09238938.0892036-.17840708.1592921-.25274336.1863716-.19699115.359469-.5161062.2288495-.96902655-.0711504-.24743363-.0169911-.51132743.1391151-.71575221.1364601-.17787611.2479646-.43327434.1805309-.76247788-.0339823-.16566372-.0116814-.33769911.0589381-.49115044.1630088-.35522124.3695575-.97646018-.0525664-1.20424779-.0785841-.0419469-.1608849-.06212389-.2453097-.06371681z" fill="#fff" fill-rule="evenodd"/></mask><mask id="l" fill="#fff"><path d="m13.520708 7.15699115c-5.42389384-1.02849557-12.91964605-1.03380531-13.51168145 2.69946903-.12849558-3.78902655 1.13309734-6.99238938 3.13539823-9.47362832-2.79557522 3.88460177-1.23079646 4.86318584 1.46336283 4.73575221 7.96831859-.37646018 14.74778759 5.26353983 18.55168139-2.66495575" fill="#fff" fill-rule="evenodd"/></mask><mask id="m" fill="#fff"><path d="m2.39522124 2.55026549c1.92106195 2.92513274 1.05929203 6.93929203-1.81858407 10.46336281-2.50831859 3.0711505 13.03221243-5.33415927 3.96584071-12.49592918-.45185841-.26336284-.88088496-.37964602-1.2541593-.37964602-1.14265486 0-1.75805309 1.09433628-.89309734 2.41221239" fill="#fff" fill-rule="evenodd"/></mask><mask id="n" fill="#fff"><path d="m8.25026549 2.9739823c.00424778 1.00778761-.30318584 2.17221239-.81557522 3.39292035-.51185841 1.22123894-1.22761062 2.49769912-2.0421239 3.73061945-.81345133 1.2334514-1.72460177 2.4217699-2.62619469 3.4667257-1.25522124 1.4532743-1.99539823 2.9272566-2.33362832 4.3247787-.33769911 1.3969912-.27292035 2.7180531.08336284 3.8654868.35681415 1.1474336 1.00513274 2.1212389 1.8339823 2.8247787.82938053.7035399 1.83929203 1.1368142 2.91876106 1.2026549 2.53858407.1545133 4.7060177-.9318584 6.33557524-2.7525664.4056637-.4529203.7757522-.9530973 1.1123894-1.4904424.0897345-.1438939.2150442-.2638939.3610619-.3515045 3.4019469-2.0325663 3.8086726-3.1492035 1.6470797-3.3509734 3.018053-1.9290266 2.9840707-2.9150443.3435398-2.960177 1.9433628-1.5148673 1.6906194-2.380354-.2654868-2.581062-.138053-1.6746902-.5357522-3.35415925-1.2302654-4.93858403-1.1957522-2.72867257-3.2654868-5.17752213-6.37539827-6.83893805.73327434.59522123 1.04867257 1.44743362 1.05292036 2.45628318" fill="#fff" fill-rule="evenodd"/></mask><mask id="o" fill="#fff"><path d="m2.76637168 13.5642478c3.60690266-4.17876107 7.36566372-10.66407081 4.43097345-13.04654868 3.34460177 1.78672566 5.48442477 4.48353982 6.62973447 7.45911504-1.9619469-4.36513274-3.5925663-3.50123894-4.83185836-1.1060177-3.66584071 7.08530974-11.94318584 10.12884954-6.98654867 17.39203544" fill="#fff" fill-rule="evenodd"/></mask><mask id="p" fill="#fff"><path d="m.79380531 5.7860177c1.02690265 3.46300885 3.59522124 6.9260177 9.03079646 4.7431858 1.84194693-1.06300881 1.39061943-3.00106191-.69663717-2.87362828-3.49274336.21185841-6.54690265-2.53168141-8.17380531-6.78-.13646017-.35522124-.26336283-.5139823-.37221239-.5139823-.45079646 0-.5920354 2.71221239.21185841 5.42442478" fill="#fff" fill-rule="evenodd"/></mask><mask id="q" fill="#fff"><path d="m4.63221239.73221239c-1.02265487.36955752-1.90088496 1.03008849-2.49451327 1.93433628-1.26584071 1.9279646-1.49522124 4.09752213-.95362832 6.21345133-.86654868 1.1909735-1.22707965 2.0320354-1.11345133 2.5290265.13380531.5867257.92973451.6939823 2.32938053.3345133.89097345 1.4920354 2.14088496 2.8789381 3.64141593 4.0380531 2.22265487 1.7155752 4.99221237 2.9315044 7.95451327 3.2500885 2.9617699.319646 6.1146903-.2580531 9.1030089-2.1307964-.881416.339823-1.7776992.1906194-2.6548673-.3074337-.8766372-.4975221-1.7341593-1.3438938-2.539115-2.3946902-.8044248-1.0507965-1.5562832-2.3070797-2.221593-3.6265487-.6647787-1.31893806-1.2435398-2.70106196-1.7017699-4.00300886-.0329203-.0939823-.0669026-.18690266-.1019469-.27823009 1.1548673-.8580531 1.5706195-1.54088495 1.200531-2.01345133-.3148673-.40247787-1.1962832-.65309734-2.6729204-.73061947-.319646-.43008849-.6605309-.81451327-1.0168141-1.15168141-1.0454867-.98814159-2.22318586-1.58920354-3.39610622-1.8499115-.46407079-.10353983-.92761062-.15345133-1.38106194-.15345133-.69292036 0-1.36353983.11681416-1.98106195.34035398" fill="#fff" fill-rule="evenodd"/></mask><mask id="r" fill="#fff"><path d="m9.20283186 6.56920354c1.83292034 5.20778766 5.59061944 11.69309736 9.11734514 10.33168146-3.2134513 2.0129203-6.6169912 2.5295575-9.76831859 2.0437168 4.76283189.4677876 4.82442479-1.3762832 3.36212389-3.6430089-4.32530973-6.70300883-2.85026549-15.39769909-11.61663717-14.70849555" fill="#fff" fill-rule="evenodd"/></mask><g fill="none" fill-rule="evenodd"><path d="m.00902655 6.13964602c-.00530974 2.12654867 1.89716814 2.70955752 2.83486726.84053097 1.56955752-3.12743363 5.47539823-4.39221239 9.96637169-3.66690265 1.2653097.20442478.5484956-.62230089-1.0571682-1.44902655-1.4378761-.74017699-3.58831854-1.48035398-5.66654863-1.48035398-2.78283186-.00053098-5.43557522 1.32637168-6.07752212 5.75575221" fill="url(#a)" mask="url(#j)" transform="translate(0 12.882743)"/><path d="m20.479646.39185841c-.4449557.00849557-.9307964.51876106-1.1458407.97327433-.0812389.17256638-.2214159.31221239-.3971681.38867257-.2968142.12849557-.6366372.4380531-.7438938.81345133-.0669027.23522124-.2378761.42318584-.4635399.51610619-.298407.12265487-.5713274.36477876-.7099115.65893805-2.3277876-.42053097-4.9768141-.07168141-7.48035395.94991151-2.59911504 1.06088496-5.04159292 2.84654867-6.8038938 5.24814159-1.76283186 2.40159292-2.84548673 5.41911502-2.7260177 8.94265482.14814159-.9329203.72743363-1.6327433 1.59876106-2.1414159.87026549-.5081416 2.0320354-.8256637 3.34566372-.9939823 1.31256637-.1683186 2.7759292-.1879646 4.25097345-.1008849 1.47451332.0860177 2.96017702.279823 4.31628322.5368141 1.8865486.3578761 3.5325663.260708 4.9115044-.1465486 1.3784071-.4077877 2.4892035-1.1251328 3.3042478-2.0081416.8145133-.8830089 1.3327433-1.9322124 1.5260177-3.0026549.1938053-1.06938054.0626548-2.16053098-.4215929-3.12796461-.6658408-1.33221239-1.6369912-2.34-2.8072567-3.04725664.0366372-.09238938.0892036-.17840708.1592921-.25274336.1863716-.19699115.359469-.5161062.2288495-.96902655-.0711504-.24743363-.0169911-.51132743.1391151-.71575221.1364601-.17787611.2479646-.43327434.1805309-.76247788-.0339823-.16566372-.0116814-.33769911.0589381-.49115044.1630088-.35522124.3695575-.97646018-.0525664-1.20424779-.0785841-.0419469-.1608849-.06212389-.2453097-.06371681z" fill="url(#b)" mask="url(#k)" transform="translate(0 .139381)"/><path d="m13.520708 7.15699115c5.3909734 1.02265487 8.8242478-1.67044248 9.638761-4.70336283-3.8038938 7.92849558-10.5833628 2.28849557-18.55168139 2.66495575-2.69415929.12743363-4.25893805-.85115044-1.46336283-4.73575221-2.00230089 2.48123894-3.26389381 5.68460177-3.13539823 9.47362832.5920354-3.73327434 8.08778761-3.7279646 13.51168145-2.69946903" fill="url(#c)" mask="url(#l)" transform="translate(0 9.165929)"/><path d="m2.39522124 2.55026549c1.92106195 2.92513274 1.05929203 6.93929203-1.81858407 10.46336281-2.50831859 3.0711505 13.03221243-5.33415927 3.96584071-12.49592918-.45185841-.26336284-.88088496-.37964602-1.2541593-.37964602-1.14265486 0-1.75805309 1.09433628-.89309734 2.41221239" fill="url(#d)" mask="url(#m)" transform="translate(22.831858 3.325221)"/><path d="m8.25026549 2.9739823c.00424778 1.00778761-.30318584 2.17221239-.81557522 3.39292035-.51185841 1.22123894-1.22761062 2.49769912-2.0421239 3.73061945-.81345133 1.2334514-1.72460177 2.4217699-2.62619469 3.4667257-1.25522124 1.4532743-1.99539823 2.9272566-2.33362832 4.3247787-.33769911 1.3969912-.27292035 2.7180531.08336284 3.8654868.35681415 1.1474336 1.00513274 2.1212389 1.8339823 2.8247787.82938053.7035399 1.83929203 1.1368142 2.91876106 1.2026549 2.53858407.1545133 4.7060177-.9318584 6.33557524-2.7525664.4056637-.4529203.7757522-.9530973 1.1123894-1.4904424.0897345-.1438939.2150442-.2638939.3610619-.3515045 3.4019469-2.0325663 3.8086726-3.1492035 1.6470797-3.3509734 3.018053-1.9290266 2.9840707-2.9150443.3435398-2.960177 1.9433628-1.5148673 1.6906194-2.380354-.2654868-2.581062-.138053-1.6746902-.5357522-3.35415925-1.2302654-4.93858403-1.1957522-2.72867257-3.2654868-5.17752213-6.37539827-6.83893805.73327434.59522123 1.04867257 1.44743362 1.05292036 2.45628318" fill="url(#e)" mask="url(#n)" transform="translate(20.176991 3.325221)"/><path d="m2.76637168 13.5642478c-3.58566372 4.1543363-2.9739823 8.4748672-.75769911 10.6985841-4.95663717-7.2631859 3.32070796-10.3067257 6.98654867-17.39203544 1.23929206-2.39522124 2.86991146-3.25911504 4.83185836 1.1060177-1.1453097-2.97557522-3.2851327-5.67238938-6.62973447-7.45911504 2.93469027 2.38247787-.82407079 8.86778761-4.43097345 13.04654868" fill="url(#f)" mask="url(#o)" transform="translate(20.176991 3.325221)"/><path d="m.79380531 5.7860177c1.02690265 3.46300885 3.59522124 6.9260177 9.03079646 4.7431858 1.84194693-1.06300881 1.39061943-3.00106191-.69663717-2.87362828-3.49274336.21185841-6.54690265-2.53168141-8.17380531-6.78-.13646017-.35522124-.26336283-.5139823-.37221239-.5139823-.45079646 0-.5920354 2.71221239.21185841 5.42442478" fill="url(#g)" mask="url(#p)" transform="translate(16.99115 24.564159)"/><path d="m4.63221239.73221239c-1.02265487.36955752-1.90088496 1.03008849-2.49451327 1.93433628-1.26584071 1.9279646-1.49522124 4.09752213-.95362832 6.21345133-.86654868 1.1909735-1.22707965 2.0320354-1.11345133 2.5290265.13380531.5867257.92973451.6939823 2.32938053.3345133.89097345 1.4920354 2.14088496 2.8789381 3.64141593 4.0380531 2.22265487 1.7155752 4.99221237 2.9315044 7.95451327 3.2500885 2.9617699.319646 6.1146903-.2580531 9.1030089-2.1307964-.881416.339823-1.7776992.1906194-2.6548673-.3074337-.8766372-.4975221-1.7341593-1.3438938-2.539115-2.3946902-.8044248-1.0507965-1.5562832-2.3070797-2.221593-3.6265487-.6647787-1.31893806-1.2435398-2.70106196-1.7017699-4.00300886-.0329203-.0939823-.0669026-.18690266-.1019469-.27823009 1.1548673-.8580531 1.5706195-1.54088495 1.200531-2.01345133-.3148673-.40247787-1.1962832-.65309734-2.6729204-.73061947-.319646-.43008849-.6605309-.81451327-1.0168141-1.15168141-1.0454867-.98814159-2.22318586-1.58920354-3.39610622-1.8499115-.46407079-.10353983-.92761062-.15345133-1.38106194-.15345133-.69292036 0-1.36353983.11681416-1.98106195.34035398" fill="url(#h)" mask="url(#q)" transform="translate(3.716814 18.192478)"/><path d="m9.20283186 6.56920354c-1.82123894-5.1759292-5.87362832-6.79327434-8.90548673-5.97610619 8.76637168-.68920354 7.29132744 8.00548672 11.61663717 14.70849555 1.4623009 2.2667257 1.400708 4.1107965-3.36212389 3.6430089 3.15132739.4858407 6.55486729-.0307965 9.76831859-2.0437168-3.5267257 1.3614159-7.2844248-5.1238938-9.11734514-10.33168146" fill="url(#i)" mask="url(#r)" transform="translate(8.495575 18.192478)"/><g fill="#45229c" transform="translate(43.539823 2.794248)"><path d="m20.8075752 8.38614159c.1975221-.24690265.4237168-.49327433.6785841-.74017699.2548672-.24690265.5553982-.46884956.9010619-.66637168.3451328-.19752212.7444248-.35787611 1.1968142-.48159292.4523894-.12318584.9748673-.18477876 1.5674336-.18477876.5920354 0 1.1681416.07380531 1.7277876.2219469.5591151.14814159 1.0529204.39504425 1.480885.74017699.4274336.34619469.7688496.79380531 1.0237168 1.34548673.2553982.55115044.3828319 1.23026549.3828319 2.03575224v9.1077876h-5.1334514v-7.5525664c0-.5261947-.1072566-.9828318-.3212389-1.3699115-.2139823-.3865487-.6334513-.579823-1.2589381-.579823-.3451327 0-.6414159.0615929-.8877876.1853097-.2469026.1231859-.4571681.2750443-.6297345.4561062-.1725663.181062-.3.3828319-.3828318.6047788-.0823009.2224779-.1316815.440177-.1476107.6541593v7.6019469h-5.1339823v-13.20424781h.1863717c1.7543363 0 3.4470797.65044248 4.7500885 1.8260177"/><path d="m55.7823186 14.4083363c0 1.2674336-.5267257 1.900354-1.579646 1.900354-.6249558 0-1.1145133-.181062-1.4681416-.5426549-.3541593-.3621239-.5309735-.7492035-.5309735-1.160177v-2.6654867c0-.2139823.0456637-.4322124.1359292-.6541593.0907965-.2219469.2256637-.4279646.4067257-.6169912.1810619-.1890265.4035398-.3451327.6663717-.4688495.2633628-.1231859.559646-.1847788.8888495-.1847788.5261947 0 .9047788.1683186 1.1352213.5060177.2304424.3366372.3456637.8261947.3456637 1.4681416zm4.7139823-5.63946904c-.2792921-.53469027-.6414159-.98336284-1.0858407-1.34495576-.4444248-.36212389-.9419469-.63769911-1.4930974-.82725663-.5516814-.18902655-1.098584-.28353983-1.6412389-.28353983-.7736283 0-1.5260177.1640708-2.2582301.49380531-.7322124.32920354-1.3375221.73168142-1.8143363 1.20955753v-4.2939823-1.25256638c0-.34725663-.0084956-.73858407-.3053097-.97061947-1.2419469-.96053097-2.7679646-1.48247787-4.3385841-1.48247787h-.4895575v2.42123894 1.89132743 15.43486727h.4895575c1.5706195 0 3.0966372-.5219469 4.3391151-1.4824779l.1566371-.1221239c.1975222.2469027.4157522.4853098.6541593.7157522.2384071.2309735.5102655.4279646.8145133.5925664s.6499115.2962832 1.0364602.3950442c.3865486.0987611.8346902.1481416 1.3449557.1481416.6913275 0 1.341239-.099292 1.9497345-.2962831.6090266-.1975222 1.14-.4853098 1.5918584-.8638938.4529204-.3785841.8107965-.8431859 1.0741593-1.3943363.2628319-.5511505.3945133-1.180354.3945133-1.8881416v-4.9359292c0-.70778764-.139646-1.3284956-.419469-1.86371684z"/><path d="m70.1108496 16.1235929c.2628318-.1231858.4853097-.279292.6663716-.4688495.181062-.1890266.3169912-.3950443.4067257-.6169912.0907965-.2219469.1359292-.440177.1359292-.6541593v-2.7886725c-.0329203-.3785841-.2256637-.7364602-.579823-1.0736284-.3536283-.3376991-.8267257-.5060177-1.419292-.5060177-1.0529204 0-1.5796461.6329204-1.5796461 1.900354v2.4191151c0 .6414159.1152213 1.1309734.3456638 1.4681416.2304424.3371681.6090265.5060177 1.1352212.5060177.3292035 0 .6254867-.0621239.8888496-.1853098m-7.1086726-7.13256635c.2633628-.56761062.6212389-1.04920354 1.0741593-1.44371682.4518584-.39504424.9828318-.699823 1.5918584-.91327433.6084956-.2139823 1.258938-.32123894 1.9497345-.32123894.4773451 0 .9053097.04513274 1.2833628.1359292.3785841.09026549.7157522.21769912 1.0120354.38283186.2962832.16460177.5633629.34938053.8023009.55486726.2384071.2060177.4561062.43168141.6536283.67858407l.4550443-.30424779c1.1676106-.78318584 2.5417699-1.20106194 3.9472566-1.20106194h.6817699v13.20424778h-.6812389c-1.4060177 0-2.780177-.4178761-3.9477876-1.200531l-.4550443-.3047787c-.4603539.5097345-1.0699115.9297345-1.8260177 1.258938-.7571681.3292036-1.5223008.4932744-2.2959292.4932744-.5426548 0-1.0895575-.0860177-1.6407079-.2591151-.5511505-.1725664-1.0492036-.4316814-1.4936283-.7773451-.4444248-.3456637-.8060177-.7778761-1.0858408-1.2955752-.279292-.5187611-.419469-1.1315045-.419469-1.8387611v-4.9364602c0-.7072566.1316814-1.34495573.3945133-1.91256635"/><path d="m37.0116106 10.2865487c.2792921-.36212392.8065487-.54265489 1.579646-.54265489.7237169 0 1.2254868.15610619 1.5058407.46884959.2792921.3122124.4194691.7322124.4194691 1.258407v.1237169h-3.9249558c0-.5102655.140177-.9456638.42-1.3083186zm8.3670797 3.7513274v-2.6649557c0-.7237169-.1730974-1.3948673-.5187611-2.01132748-.3451327-.61699115-.8261947-1.15221239-1.4431858-1.60513274-.6175222-.45185841-1.3454868-.80548673-2.1849558-1.06088496-.838938-.25486726-1.7437168-.38230088-2.7148672-.38230088-1.02 0-1.9619469.1438938-2.8253098.43168141-.8644248.28778761-1.6088495.68283186-2.2338053 1.18513275-.6254867.50123893-1.1150442 1.08955752-1.4686726 1.76442477-.3541592.67433633-.5309734 1.40654863-.5309734 2.19610623v3.0854867c0 .8888496.2060177 1.6492035.6169911 2.2831858.4120354.6329204.9504425 1.1516815 1.6168142 1.5546903.6663717.4030089 1.4309735.7035398 2.2953982.9010619.8638938.1969912 1.7564602.2957523 2.6776991.2957523 1.0040708 0 1.9173452-.1109735 2.7392921-.3329204.8230088-.2219469 1.5302655-.538938 2.1228318-.9504425.5925664-.4109734 1.0492036-.8968141 1.3699115-1.4559292.0923894-.1614159.1704425-.3286725.2362832-.500177-1.1883186-1.0417699-2.7138053-1.619469-4.2966371-1.6221239v.1725664c0 .740177-.6743363 1.1102655-2.0230089 1.1102655-.7571681 0-1.3168141-.1274336-1.678938-.3823009-.361593-.2548672-.5431859-.6950442-.5431859-1.320531v-.6913274z"/><path d="m5.81277876 10.2865487c.27982301-.36212392.80654867-.54265489 1.57964602-.54265489.72424779 0 1.2260177.15610619 1.50584071.46884959.27982301.3122124.41946902.7322124.41946902 1.258407v.1237169h-3.92442478c0-.5102655.140177-.9456638.41946903-1.3083186zm8.36707964 3.7513274v-2.6649557c0-.7237169-.1725664-1.3948673-.5182301-2.01132748-.3456637-.61699115-.8267256-1.15221239-1.4437168-1.60513274-.6175221-.45185841-1.3454867-.80548673-2.1844248-1.06088496-.839469-.25486726-1.74424776-.38230088-2.71486723-.38230088-1.02053097 0-1.9619469.1438938-2.82584071.43168141-.8638938.28778761-1.60884956.68283186-2.23380531 1.18513275-.62548672.50123893-1.11504425 1.08955752-1.46867256 1.76442477-.35362832.67433633-.53044248 1.40654863-.53044248 2.19610623v3.0854867c0 .8888496.20548672 1.6492035.61646017 2.2831858.4120354.6329204.95044248 1.1516815 1.61681416 1.5546903.66690266.4030089 1.43150443.7035398 2.29539823.9010619.86389381.1969912 1.75646018.2957523 2.67769912.2957523 1.00407079 0 1.91734513-.1109735 2.73982301-.3329204.8224779-.2219469 1.5302655-.538938 2.1223009-.9504425.5925664-.4109734 1.0492035-.8968141 1.3704425-1.4559292.0923893-.1614159.1699115-.3286725.2362831-.500177-1.1888495-1.0417699-2.7143362-1.619469-4.29663712-1.6221239v.1725664c0 .740177-.67433629 1.1102655-2.02353983 1.1102655-.75716814 0-1.31681415-.1274336-1.67893805-.3823009-.36159292-.2548672-.54265487-.6950442-.54265487-1.320531v-.6913274z"/><path d="m41.0773805 29.673292.3684956-2.9628318c.1853097-1.4251328 1.3991151-2.4913275 2.8364602-2.4913275h.1120354l-1.9757522 7.8568142h-2.8449558l-.7077876-3.0361062-.4715044-2.2704425-.5155752 2.3734514-.6929204 2.9330973h-2.8454867l-1.9311505-7.8562832h.2718584c1.4240708 0 2.6299115 1.0502655 2.8242478 2.461062l.3679646 2.9038938.6196461-2.8444248.2527433-1.1368142c.179469-.8086725.8962832-1.3842478 1.7251328-1.3842478.8256637 0 1.5419469.5723894 1.7240708 1.3773452l.2484955 1.099646z"/><path d="m49.0207434 30.1259469c.1492035-.0674336.279292-.1513274.3897345-.2532743.1109734-.100885.1975221-.2139823.2607079-.3387611.0626549-.1258407.0982301-.2458407.1083186-.3615929v-1.9502655c0-.2410619-.1083186-.4672566-.3254867-.6785841-.2166372-.2118584-.5076106-.318584-.8739823-.318584-.3079646 0-.5463717.0918584-.7146903.2750442-.1688495.1831858-.2527433.4619469-.2527433.8378761v1.7336283c0 .7704425.3031858 1.1553983.9100885 1.1553983.1826548 0 .3488495-.0334514.4980531-.100885m-3.8718584-4.3481416c.1492035-.3281416.3493805-.6074336.6-.8384071.2506194-.2309734.5437168-.4067256.8808849-.5272566.3371682-.12.6939823-.180531 1.0693805-.180531.5198231 0 .940885.1014159 1.2642478.3037168.3223009.2017699.6037168.4428319.8447788.7221239l.0350442-.0260177c.7561062-.5559292 1.6699115-.8553982 2.6086726-.8553982v7.700177c-.9387611 0-1.8525664-.3-2.6086726-.8553982l-.0350442-.0254868c-.260177.2978761-.5946903.5437168-1.0040708.7364602s-.8352212.2888496-1.2785841.2888496c-.3175221 0-.6334513-.0525664-.9461947-.1587611-.3127433-.1061947-.5925663-.2628319-.8378761-.4693805-.2458407-.2076106-.4433628-.4646018-.5925663-.7730974-.1486726-.3079646-.2235399-.6695575-.2235399-1.0831858v-2.8465487c0-.4141593.0748673-.7847787.2235399-1.1118584"/><path d="m56.6451504 21.9347788v10.1415929h-2.6723893v-7.4697345c0-1.4755753 1.1968141-2.6718584 2.6723893-2.6718584"/><path d="m60.8379823 21.9347788v10.1415929h-2.6723894v-7.4697345c0-1.4755753 1.1968142-2.6718584 2.6723894-2.6718584"/><path d="m75.348 32.1761947c-.3095575.0297345-.5962832.0440708-.8612389.0440708-.3435399 0-.6647788-.0292036-.9642478-.0881416-.2994691-.0584071-.5569912-.1571681-.7730974-.2941593-.2155752-.1375221-.3849557-.319115-.5076106-.5447788-.1226549-.2256637-.1837168-.5049557-.1837168-.838938v-4.2541593h-.8389381v-1.9730973h.8389381l.0169911-.040354c.4630089-1.0656637 1.5143363-1.7553983 2.6766372-1.7559292v1.7962832h1.3688496v1.9725663h-1.3688496v3.2235398c0 .2553983.0738053.4295576.220885.5230089.1470796.0934513.4024778.139646.7651327.139646h.2357522c.0780531 0 .1667257-.0047787.2654868-.0148672v1.9730973c-.2846018.0584071-.581947.1024779-.8909735.1322124"/><path d="m65.6074513 26.5439469c.1640708-.2113274.4720354-.3175221.9238938-.3175221.4237168 0 .7173452.0913274.880885.2745133.1635398.1826548.2453097.4284955.2453097.7364601v.0716814h-2.2953982c0-.298407.0817699-.5532743.2453097-.7651327zm4.8950443 2.1950443v-1.56c0-.4231859-.101416-.8155753-.3037168-1.1766372-.20177-.360531-.4837169-.6732744-.8442478-.9382301-.361062-.2644248-.7874337-.4720354-1.2780531-.620708-.4906195-.1492035-1.02-.2240708-1.5881416-.2240708-.5968142 0-1.1479646.0838938-1.6529204.2527434-.5054867.1683186-.9414159.399823-1.3072566.6929203-.3653097.2936284-.6520354.6376992-.8585841 1.0327434-.2070796.3945133-.3106194.8224779-.3106194 1.2849558v1.8047787c0 .519823.12.9647788.3610619 1.3353983.240531.3706194.5553982.6738053.9456637.9100885.3897345.2352212.8373451.4109734 1.3428319.5267256.5049557.1152213 1.0274336.1730974 1.5663717.1730974.5872566 0 1.1214159-.0647788 1.6030088-.1948673.481062-.1295575.8946903-.3153982 1.2414159-.5559292.3461947-.240531.6138053-.5246018.801239-.8522124.0541593-.0939823.099823-.1916814.1380531-.2920354-.6950443-.6095575-1.5876106-.9477876-2.5130974-.9493805v.1014159c0 .4327434-.3945132.6493805-1.1840708.6493805-.4428318 0-.7699115-.0743362-.9817699-.2235398-.2118584-.1497345-.3175221-.4067256-.3175221-.7725664v-.4040707z"/></g></g></svg>