<svg width="40" height="40" viewBox="0 0 40 40" fill="none" xmlns="http://www.w3.org/2000/svg">
    <path
        d="M29.8566 4C29.5379 4.54648 29.4241 5.19445 29.6821 5.71751C30.3574 6.18592 33.7796 7.03687 33.4912 8.19229L33.3698 8.62167C32.7271 8.10807 31.9295 7.84284 31.1162 7.87221C30.7292 7.95028 30.3347 8.12983 29.9553 8.14545C29.4697 8.14545 29.0447 8.02054 28.6653 7.79414C28.9309 8.53579 29.8718 9.08227 30.4485 8.98859C31.359 8.80123 32.3455 9.30086 33.0132 9.53507C32.6034 10.6905 31.2376 10.1518 31.2376 10.1518L21.4038 7.82537L19.7951 6.62311L18.3914 8.0908L25.5619 10.5109L15.8874 10.7295L13.482 9.69901L10.1965 11.6507L24.9397 12.7593L20.4097 17.6854H28.4074C29.9705 16.3817 33.4912 13.4385 33.5368 13.4697C34.5763 15.9601 36.2229 15.0545 37.4748 13.6024C37.8391 13.1809 38.2336 14.6251 38.4461 12.2753L38.5827 12.0255C37.1334 11.3853 34.6673 12.4939 36.018 10.5265C36.4353 9.92541 37.6949 10.0894 38.9924 10.8622C39.0379 9.59753 38.909 7.34915 37.748 6.84951C36.5491 6.33425 35.0012 6.3889 34.4094 7.0681C33.6126 5.66286 31.2225 5.49111 30.2816 5.35059C30.0358 4.94241 29.89 4.47894 29.8566 4ZM14.6809 8.91833L14.3091 9.24622L15.6142 9.81612L16.4868 8.91052H14.6809V8.91833ZM36.9665 10.9247C37.4976 11.3228 37.528 11.4165 37.877 11.4321C38.0136 11.3541 38.2943 11.0418 38.0288 10.9871L37.141 10.7998C37.1018 10.7929 37.0616 10.8022 37.0289 10.8255C36.9963 10.8489 36.9739 10.8845 36.9665 10.9247ZM11.2967 12.4236L10.8187 12.8608H12.6246L13.1102 12.4236H11.2967ZM8.13259 13.5478L7.16893 14.8203H8.44369L8.88379 14.2895H12.3135L11.6761 14.8672H12.9661L14.256 13.5946L8.13259 13.5478ZM9.39217 14.875L1 24.7897L2.85144 24.415L10.8035 14.875H9.39976H9.39217ZM19.613 18.5442L9.02796 30.0593L7.68491 30.4184C7.68491 30.4184 6.63778 32.8854 6.16733 35.8052C6.77436 36.1487 7.5635 35.1494 7.5635 35.1494C7.5635 35.1494 7.47245 36.2346 8.09465 35.9535C9.23283 33.588 10.5076 31.1211 10.5076 31.1211L23.3842 21.0268L25.0763 21.4874L27.3071 22.0963L22.2688 26.9678L21.3582 25.9607C21.3582 25.9607 18.5963 29.1225 17.5491 31.4568C17.883 31.8471 19.1881 30.8166 19.1881 30.8166C19.1881 30.8166 18.7556 31.6207 19.3399 31.5973C20.7816 30.2077 21.7376 29.1225 21.7376 29.1225L32.4365 20.9487L28.5515 18.5442H19.6206H19.613Z"
        fill="#e6d8fd" />
</svg>