<svg width="40" height="40" viewBox="0 0 40 40" fill="none" xmlns="http://www.w3.org/2000/svg">
    <path
        d="M24.7139 19.2113L25.6768 18.287L29.4497 21.9254L28.4867 22.8497L24.7139 19.2113ZM35.516 6.64093C35.1921 6.64093 34.9295 6.89301 34.9295 7.20391V26.2695C34.9295 26.5804 35.1921 26.8325 35.516 26.8325H36.2863C36.5402 26.8325 36.7853 26.8577 37.0304 26.8997H37.0654C37.3018 26.9418 37.5206 27.009 37.7307 27.0846L37.792 27.1014C38.0021 27.1854 38.1946 27.2695 38.3785 27.3871L38.4485 27.4207C38.6236 27.5384 38.7987 27.6644 38.9562 27.7988L39 27.8324V9.24575C38.8774 7.73327 37.7657 6.64093 36.2863 6.64093H35.516V6.64093Z"
        fill="#e6d8fd" />
    <path
        d="M35.7349 33.9916C36.6067 33.9593 37.4321 33.6061 38.04 33.0054C38.6479 32.4047 38.9917 31.6024 39 30.765C38.8687 29.2105 37.757 28.1349 36.2863 28.1349H35.516C34.4393 28.1349 33.5727 27.2947 33.5727 26.2695V9.90116H31.1917L29.3621 12.2455C29.3041 12.3208 29.2297 12.3832 29.144 12.4282C29.0584 12.4732 28.9636 12.4998 28.8662 12.5062C28.7688 12.5126 28.6711 12.4986 28.5799 12.4652C28.4887 12.4318 28.4061 12.3798 28.3379 12.3127L25.8256 9.90116H24.0223C24.1305 10.8202 24.0091 11.7508 23.6681 12.6158C23.3272 13.4808 22.7764 14.2555 22.0615 14.8755L24.6876 17.3963L25.1691 16.9342C25.4317 16.6821 25.8694 16.6821 26.132 16.9342L30.8765 21.4884C31.1391 21.7405 31.1391 22.1606 30.8765 22.4127L28.9507 24.2529C28.8879 24.3144 28.813 24.3632 28.7304 24.3966C28.6477 24.4299 28.5589 24.4471 28.4692 24.4471C28.3796 24.4471 28.2908 24.4299 28.2081 24.3966C28.1255 24.3632 28.0505 24.3144 27.9878 24.2529L23.252 19.6987C22.9894 19.4466 22.9894 19.0265 23.252 18.7744L23.7335 18.3206L20.9498 15.6486C19.9703 16.1775 18.8579 16.4368 17.7348 16.3981C16.6117 16.3594 15.5215 16.0241 14.5841 15.4292C13.6467 14.8342 12.8984 14.0026 12.4214 13.0258C11.9445 12.0491 11.7575 10.965 11.8809 9.89276H6.42732V26.2695C6.42732 27.2947 5.55195 28.1349 4.48399 28.1349H3.71366C3.16217 28.1349 2.66321 28.2862 2.23428 28.5551C1.86501 28.813 1.5619 29.1484 1.34802 29.5357C1.13413 29.923 1.01511 30.3521 1 30.7902C1.01151 31.6453 1.3735 32.4617 2.00758 33.0625C2.64165 33.6632 3.49676 34.0001 4.3877 34H8.7208L9.8938 31.7481C9.94273 31.6567 10.0133 31.5777 10.0999 31.5174C10.1865 31.4571 10.2867 31.4171 10.3923 31.4008C10.4979 31.3844 10.6061 31.3921 10.708 31.4232C10.81 31.4544 10.9029 31.5081 10.9793 31.58L13.4916 34H29.1345L30.29 32.3363C30.4651 32.0758 30.8152 31.975 31.1216 32.0926L35.7349 33.9916ZM9.62244 22.085C9.55968 22.1465 9.48477 22.1954 9.4021 22.2287C9.31943 22.262 9.23065 22.2792 9.14098 22.2792C9.05131 22.2792 8.96253 22.262 8.87986 22.2287C8.79719 22.1954 8.72228 22.1465 8.65953 22.085C8.39691 21.8329 8.39691 21.4128 8.65953 21.1607L9.88505 19.9928L8.65953 18.8248C8.5963 18.7641 8.54615 18.692 8.51193 18.6128C8.47771 18.5335 8.4601 18.4485 8.4601 18.3626C8.4601 18.2768 8.47771 18.1918 8.51193 18.1125C8.54615 18.0332 8.5963 17.9612 8.65953 17.9005C8.78722 17.7779 8.9604 17.7091 9.14098 17.7091C9.2304 17.7091 9.31893 17.726 9.40154 17.7588C9.48415 17.7917 9.55921 17.8398 9.62244 17.9005L10.8392 19.0769L12.056 17.9005C12.1837 17.7779 12.3569 17.7091 12.5374 17.7091C12.718 17.7091 12.8912 17.7779 13.0189 17.9005C13.1466 18.0231 13.2183 18.1893 13.2183 18.3626C13.2183 18.536 13.1466 18.7022 13.0189 18.8248L11.7934 20.0012L13.0189 21.1607C13.1466 21.2833 13.2183 21.4495 13.2183 21.6229C13.2183 21.7962 13.1466 21.9625 13.0189 22.085C12.8912 22.2076 12.718 22.2764 12.5374 22.2764C12.3569 22.2764 12.1837 22.2076 12.056 22.085L10.8305 20.9086L9.62244 22.085ZM11.9859 25.3621C11.8984 25.4041 11.8021 25.4209 11.7146 25.4209C11.5808 25.4216 11.4497 25.3845 11.3376 25.3143C11.2256 25.2441 11.1375 25.1438 11.0843 25.026C11.0003 24.8336 10.9186 24.6403 10.8392 24.4462C10.7342 24.2109 10.6466 24.0008 10.5853 23.9C10.5138 23.751 10.5031 23.5818 10.5553 23.4256C10.6075 23.2694 10.7188 23.1377 10.8672 23.0564C11.0156 22.9752 11.1904 22.9503 11.357 22.9867C11.5236 23.0231 11.6699 23.1181 11.7671 23.253C11.8721 23.421 11.9684 23.6647 12.091 23.9588L12.3361 24.5134C12.4849 24.8495 12.3273 25.2276 11.9859 25.3705V25.3621ZM15.2248 29.2189C15.1664 29.2831 15.0952 29.3356 15.0155 29.3733C14.9359 29.4111 14.8492 29.4333 14.7605 29.4388C14.6718 29.4443 14.5829 29.4328 14.4988 29.4052C14.4148 29.3776 14.3372 29.3342 14.2707 29.2777C13.5704 28.6895 12.9489 28.0341 12.4236 27.3283C12.344 27.1877 12.3206 27.024 12.358 26.8681C12.3954 26.7121 12.4909 26.5747 12.6265 26.4817C12.7622 26.3887 12.9286 26.3465 13.0944 26.3632C13.2602 26.3798 13.4139 26.4541 13.5266 26.572C13.9906 27.1938 14.542 27.7736 15.1636 28.2946C15.4437 28.5299 15.4787 28.9416 15.2248 29.2189ZM19.9256 31.2355C19.8877 31.4045 19.7819 31.5523 19.631 31.6467C19.4802 31.7412 19.2966 31.7746 19.1202 31.7397C18.2449 31.5632 17.3695 31.2355 16.5116 30.7902C16.3712 30.6983 16.2714 30.5594 16.232 30.4007C16.1925 30.242 16.2161 30.0749 16.2982 29.932C16.3803 29.7892 16.5149 29.6808 16.6758 29.6282C16.8367 29.5755 17.0123 29.5824 17.1682 29.6474C17.8648 30.0264 18.6175 30.3013 19.4004 30.4625C19.768 30.5297 20.0044 30.8826 19.9256 31.2271V31.2355ZM24.6088 31.0002C23.7379 31.4118 22.8041 31.6869 21.8427 31.8153C21.6789 31.8039 21.525 31.7363 21.409 31.6248C21.293 31.5133 21.2227 31.3655 21.211 31.2083C21.1993 31.0512 21.247 30.8952 21.3453 30.769C21.4436 30.6429 21.586 30.5549 21.7464 30.5213C22.4992 30.4121 23.2608 30.1852 24.0136 29.8323C24.1761 29.7565 24.3633 29.7458 24.5341 29.8025C24.6186 29.8306 24.6965 29.8744 24.7634 29.9314C24.8303 29.9884 24.8849 30.0575 24.924 30.1348C24.9631 30.212 24.9859 30.2959 24.9912 30.3816C24.9965 30.4673 24.9842 30.5532 24.955 30.6344C24.9257 30.7155 24.8801 30.7903 24.8207 30.8545C24.7613 30.9188 24.6893 30.9711 24.6088 31.0087V31.0002ZM27.979 28.5551C27.9615 28.5719 27.5939 29.0004 26.9286 29.5382C26.8602 29.5945 26.7807 29.6371 26.6948 29.6635C26.6089 29.6898 26.5184 29.6994 26.4286 29.6915C26.3388 29.6837 26.2516 29.6586 26.1721 29.6179C26.0926 29.5771 26.0224 29.5214 25.9657 29.4542C25.9083 29.3887 25.8651 29.313 25.8384 29.2313C25.8118 29.1497 25.8022 29.0639 25.8104 28.9787C25.8185 28.8935 25.8442 28.8107 25.8859 28.7351C25.9275 28.6595 25.9844 28.5926 26.0532 28.5383C26.3714 28.2851 26.6699 28.0099 26.9461 27.7148C27.0688 27.6079 27.2278 27.5474 27.3934 27.5447C27.5591 27.542 27.7202 27.5972 27.8466 27.7C27.973 27.8028 28.0561 27.9463 28.0805 28.1036C28.1049 28.2609 28.0688 28.4214 27.979 28.5551Z"
        fill="#e6d8fd" />
    <path
        d="M2.83829 15.9511C3.07464 16.1779 3.1009 16.5393 2.89956 16.7997L1 19.2365V27.8324L1.07878 27.7736C1.21884 27.6476 1.37641 27.5299 1.53398 27.4375L1.63902 27.3703C1.8141 27.2695 2.00668 27.177 2.19926 27.1014C2.22552 27.1014 2.25179 27.0846 2.26929 27.0762C2.47938 27.0006 2.70698 26.9418 2.92582 26.9082L2.96959 26.8997C3.20594 26.8577 3.4598 26.8325 3.71366 26.8325H4.48399C4.80788 26.8325 5.07049 26.5804 5.07049 26.2695V7.2039C5.07049 6.89301 4.80788 6.64093 4.48399 6.64093H3.71366C2.22552 6.64093 1.1138 7.73327 1 9.29617V14.1865L2.83829 15.9511ZM13.369 9.4054C13.3165 9.59866 13.2815 9.78352 13.2552 9.95998V9.99359C13.1306 11.0152 13.3692 12.0472 13.9323 12.9223C14.4955 13.7973 15.3501 14.4641 16.3576 14.8143C17.3651 15.1646 18.4664 15.1778 19.4827 14.8518C20.499 14.5259 21.3707 13.8798 21.9565 13.0185C22.4555 12.2657 22.7154 11.3897 22.7046 10.4974C22.6937 9.60513 22.4124 8.73519 21.8952 7.99376C21.3816 7.27014 20.662 6.70366 19.8222 6.36191C18.9824 6.02015 18.0578 5.91757 17.159 6.0664C16.2601 6.21522 15.4248 6.60917 14.7528 7.20123C14.0807 7.79329 13.6004 8.55845 13.369 9.4054ZM18.6388 7.94334C18.6388 8.30465 18.3412 8.59875 17.9648 8.59875C17.448 8.63129 16.9636 8.85127 16.6096 9.21407C16.2556 9.57686 16.0587 10.0553 16.0587 10.5524C16.0587 11.0494 16.2556 11.5279 16.6096 11.8907C16.9636 12.2535 17.448 12.4734 17.9648 12.506C18.1314 12.5242 18.2852 12.6006 18.3969 12.7207C18.5086 12.8408 18.5704 12.9962 18.5704 13.1572C18.5704 13.3182 18.5086 13.4736 18.3969 13.5937C18.2852 13.7138 18.1314 13.7902 17.9648 13.8084C17.0949 13.766 16.2753 13.4044 15.6753 12.7984C15.0753 12.1925 14.7407 11.3884 14.7407 10.5524C14.7407 9.71634 15.0753 8.91227 15.6753 8.30629C16.2753 7.70032 17.0949 7.33876 17.9648 7.29633C18.3412 7.29633 18.6388 7.58202 18.6388 7.94334Z"
        fill="#e6d8fd" />
</svg>