<svg width="40" height="40" viewBox="0 0 40 40" fill="none" xmlns="http://www.w3.org/2000/svg">
    <path
        d="M32.5764 33.6963L19.7184 20.066L33.0097 6.72146C21.4299 -5.304 1 2.80824 1 20.066C1 36.884 20.8558 45.1502 32.5764 33.6963ZM18.1477 6.43566C19.4259 6.43566 20.5741 7.44694 20.5741 8.89791C20.5741 10.206 19.4259 11.2173 18.1477 11.2173C17.8472 11.2217 17.5489 11.1651 17.2704 11.0508C16.9918 10.9365 16.7386 10.7668 16.5256 10.5517C16.3127 10.3366 16.1442 10.0804 16.0303 9.79832C15.9163 9.5162 15.8591 9.21379 15.862 8.9089C15.862 7.44694 16.8586 6.43566 18.1368 6.43566H18.1477ZM30.7024 20.5057C30.7335 21.5981 31.1854 22.6347 31.961 23.393C32.7366 24.1513 33.7742 24.5709 34.8512 24.5618C35.93 24.5708 36.9692 24.1497 37.7451 23.389C38.521 22.6284 38.9716 21.5891 39 20.4947C39 19.3781 38.5629 18.3073 37.7848 17.5177C37.0068 16.7282 35.9515 16.2847 34.8512 16.2847C33.7509 16.2847 32.6956 16.7282 31.9176 17.5177C31.1395 18.3073 30.7024 19.3781 30.7024 20.4947V20.5057Z"
        fill="#e6d8fd" />
</svg>