<svg width="40" height="40" viewBox="0 0 40 40" fill="none" xmlns="http://www.w3.org/2000/svg">
<path d="M26.9393 21.1704C26.3167 20.9878 25.8934 20.5229 25.9349 20.0166C25.9349 19.5186 26.3582 19.0537 26.931 18.896C27.1302 18.8545 27.2464 18.6221 27.2049 18.4312C27.014 17.5845 26.7069 16.7711 26.242 16.0323C26.1258 15.8414 25.8934 15.7999 25.7025 15.8829C25.0384 16.2647 24.2748 16.1485 23.9262 15.6505C23.6522 15.2604 23.6938 14.6793 24.0424 14.2228C24.1171 14.1398 24.1171 14.0236 24.1171 13.9074C24.0877 13.807 24.0334 13.7156 23.9594 13.6418C23.2061 13.1441 22.3676 12.7896 21.4858 12.5959C21.3696 12.5544 21.2949 12.5959 21.1787 12.6374C21.0957 12.6706 21.021 12.7868 21.021 12.8698C20.8716 13.5588 20.4067 14.0319 19.8257 13.9904C19.2862 13.9904 18.7798 13.5256 18.6636 12.8283C18.6379 12.7258 18.5864 12.6315 18.5142 12.5544C18.4312 12.5212 18.315 12.4797 18.1988 12.5212C17.3251 12.7149 16.4893 13.0514 15.7252 13.5173C15.6505 13.6003 15.5758 13.6833 15.5343 13.7912C15.4928 13.9074 15.5343 14.0236 15.6173 14.1066C15.9576 14.5631 15.9991 15.1442 15.7252 15.5343C15.3766 16.0323 14.5631 16.1485 13.9074 15.7667C13.8188 15.7166 13.715 15.7007 13.6155 15.7221C13.516 15.7436 13.4279 15.8008 13.3678 15.8829C12.8961 16.6291 12.559 17.4523 12.3718 18.315C12.3303 18.5059 12.4465 18.7383 12.6706 18.7798C13.3346 18.9375 13.7497 19.4439 13.7497 19.9751C13.7497 20.5229 13.2931 20.9878 12.6706 21.1372C12.5718 21.1644 12.4863 21.2265 12.4298 21.312C12.3733 21.3974 12.3498 21.5005 12.3635 21.602C12.5603 22.463 12.8998 23.2851 13.3678 24.0341C13.4841 24.2333 13.7165 24.2665 13.9074 24.1503C14.5714 23.7685 15.3766 23.8847 15.7335 24.3827C15.9991 24.7728 15.9576 25.3539 15.609 25.8187C15.5343 25.8934 15.5343 26.0096 15.5343 26.1258C15.5758 26.242 15.6173 26.3167 15.7252 26.3914C16.4972 26.8978 17.3521 27.2464 18.2403 27.4373H18.3233C18.5142 27.4373 18.6636 27.3211 18.7051 27.1302C18.8628 26.5076 19.3692 26.0843 19.8672 26.0843C20.3652 26.0843 20.8301 26.5076 21.0293 27.1302C21.0625 27.3211 21.2949 27.4788 21.4858 27.4041C22.3676 27.2104 23.2061 26.8559 23.9594 26.3582C24.0424 26.2752 24.1171 26.2005 24.1171 26.0843C24.1336 26.0305 24.1345 25.9731 24.1198 25.9188C24.1052 25.8645 24.0754 25.8154 24.0341 25.7772C23.887 25.572 23.7992 25.3302 23.7801 25.0785C23.7611 24.8267 23.8116 24.5745 23.9262 24.3495C24.2748 23.8515 25.0467 23.727 25.7025 24.1171C25.791 24.1672 25.8949 24.1831 25.9944 24.1617C26.0938 24.1402 26.182 24.083 26.242 24.0009C26.7069 23.2621 27.0555 22.4155 27.2464 21.5605C27.2464 21.4443 27.1302 21.2534 26.9393 21.1787V21.1704ZM19.8257 22.2578C19.2313 22.2578 18.6613 22.0216 18.241 21.6013C17.8207 21.181 17.5845 20.611 17.5845 20.0166C17.5845 19.4222 17.8207 18.8522 18.241 18.4319C18.6613 18.0116 19.2313 17.7754 19.8257 17.7754C20.4201 17.7754 20.9901 18.0116 21.4104 18.4319C21.8307 18.8522 22.0668 19.4222 22.0668 20.0166C22.0668 20.611 21.8307 21.181 21.4104 21.6013C20.9901 22.0216 20.4201 22.2578 19.8257 22.2578V22.2578ZM18.4312 1H21.0957V5.4491H18.4395L18.4312 1ZM34.5592 16.6217H39V19.2779H34.5592V16.6217ZM1 16.6217H5.4491V19.2779H1V16.6217ZM5.391 6.8768L7.27523 4.99257L10.4211 8.13849L8.53692 10.0227L5.391 6.8768ZM29.5457 8.09699L32.6999 4.95107L34.5758 6.8353L31.4299 9.98121L29.5457 8.09699Z" fill="white"/>
<path d="M19.7842 7.57405C18.134 7.57077 16.4995 7.89337 14.9743 8.52335C13.4491 9.15332 12.0633 10.0783 10.8965 11.2451C9.72964 12.412 8.8047 13.7977 8.17472 15.3229C7.54475 16.8481 7.22214 18.4826 7.22543 20.1328C7.23673 22.3788 7.84347 24.5816 8.98377 26.5166C10.1241 28.4516 11.7572 30.0496 13.7165 31.1477V34.7086C13.7165 34.941 13.9489 35.1236 14.1398 35.1236H14.3722V36.8336C14.3722 37.066 14.6046 37.2569 14.8038 37.2569H15.5343V38.5684C15.5343 38.8008 15.7667 39 15.9576 39H23.6523C23.8847 39 24.0756 38.7676 24.0756 38.5684V37.2569H24.7396C24.9637 37.2569 25.1547 37.0245 25.1547 36.8336V35.1319H25.4701C25.7025 35.1319 25.8934 34.8995 25.8934 34.7086V31.1477C27.8596 30.0577 29.4984 28.4615 30.6397 26.5247C31.7811 24.5878 32.3835 22.3809 32.3845 20.1328C32.3626 16.8016 31.0267 13.6136 28.6673 11.2619C26.3078 8.91024 23.1155 7.58492 19.7842 7.57405ZM15.7999 29.6038L15.3434 29.3713C13.2304 28.375 11.5212 26.6868 10.4986 24.5864C9.47609 22.4859 9.20164 20.0993 9.7207 17.8216C10.2398 15.5439 11.5212 13.5118 13.3529 12.0618C15.1845 10.6118 17.4565 9.8309 19.7925 9.84841C25.5116 9.84841 30.0271 14.4469 30.0271 20.1411C30.0271 24.0424 27.7527 27.6697 24.1918 29.3713L23.7685 29.6038C23.6967 29.64 23.6367 29.6959 23.5955 29.765C23.5544 29.8341 23.5337 29.9135 23.536 29.9939V32.8908H15.9991V29.9856C15.9991 29.8362 15.9161 29.6785 15.8082 29.6038H15.7999Z" fill="white"/>
</svg>
