<svg width="40" height="40" viewBox="0 0 40 40" fill="none" xmlns="http://www.w3.org/2000/svg">
    <path
        d="M32.91 21.895L38.0117 14.7401L30.8622 13.8034L34.0942 4.71453L24.4072 10.1002L21.9231 2.0954L17.6495 9.51048L9.60965 2L11.4438 12.3724C7.91799 11.8347 4.51687 11.3144 1 10.7767L8.51453 19.3279C6.28866 21.3226 4.0806 23.2912 1.82802 25.3293L10.4377 27.2113L7.29475 34.0453L11.2123 33.0306C11.2123 33.0306 12.993 27.7143 13.8299 26.4567C14.2127 25.893 14.2484 25.3727 14.1237 24.7309C13.5895 22.0858 13.1087 19.4406 12.6101 16.7868C12.5745 16.6394 12.5656 16.5266 12.7259 16.4312C14.6401 15.1303 15.6195 14.7834 18.6022 12.7193L22.7423 17.3505L21.3177 18.6167C21.2821 18.6514 21.1931 18.6687 21.1396 18.6514C20.6143 18.504 20.0979 18.3565 19.5815 18.1917C18.9583 17.628 18.4864 17.0036 17.9967 16.5266C17.8632 17.021 17.7296 17.4806 17.6139 17.9576C18.3261 18.8075 18.5042 19.059 18.9583 19.4926C19.0473 19.5794 19.1097 19.7268 19.1097 19.8395C19.2254 22.2939 19.1542 24.6962 19.2788 26.8123L20.0801 27.0291C20.0267 24.384 19.9822 21.7735 19.9021 19.1544C20.0801 19.1544 20.2315 19.2325 20.3561 19.458C21.9231 21.9557 23.3299 24.4187 24.7277 26.6996L25.44 26.3006C25.3154 26.6562 24.9058 27.1506 24.6921 27.4541C23.9442 28.5989 22.6978 29.1626 21.6649 29.8477C20.4185 31.7644 19.4213 33.7331 18.62 35.0947L19.8041 38C19.8308 38.0087 21.8875 34.9646 22.9025 33.4122L27.9419 37.7658L28.3158 28.3734L39 29.2667L32.91 21.895ZM19.8219 12.8147C20.8404 12.1979 21.8613 11.585 22.8847 10.9761L24.3716 13.5259L21.8074 15.0696L19.813 12.8147H19.8219ZM23.8908 17.3939C23.3922 16.8215 22.8936 16.2664 22.3594 15.6767C23.2498 15.1563 24.1223 14.6273 25.0127 14.0896L26.3749 16.4139C25.0394 17.2291 23.7038 18.0183 22.4039 18.7988C22.4039 18.7815 22.3861 18.7728 22.3683 18.7641C22.8758 18.3132 23.3744 17.8709 23.8908 17.3939ZM21.8074 20.0911L26.7043 17.1597L28.1467 19.6227L23.2498 22.5541L21.8074 20.0911ZM25.0305 25.5982L23.6682 23.2566L28.2624 20.4987L29.6246 22.8403L25.0305 25.5982Z"
        fill="#e6d8fd" />
</svg>