<svg width="40" height="40" viewBox="0 0 40 40" fill="none" xmlns="http://www.w3.org/2000/svg">
<path d="M32.0919 15.5002C30.5765 15.6167 29.7308 16.4234 29.5457 17.8932C29.3695 19.372 28.4004 20.564 26.6471 21.4872C25.7849 22.7854 25.4299 24.3642 25.6515 25.9146C25.7132 26.0939 25.8013 26.1835 25.9158 26.1835C26.1009 26.1835 28.3651 25.359 29.1845 27.7519C29.7308 29.3562 29.7924 31.0412 29.3607 32.8247C30.3299 33.8106 32.0567 34.1691 34.5324 33.9271C37.3694 33.5686 38.8495 32.9143 38.9729 31.9912C39.1491 30.611 38.4266 26.0043 37.9685 25.0901C37.528 24.158 35.0699 20.8419 34.7967 19.4616C34.6189 18.5497 34.5304 17.622 34.5324 16.6922C34.5677 15.8946 34.2064 15.5002 33.4399 15.5002H32.0919Z" fill="white"/>
<path d="M23.2991 24.2566C23.7485 23.9787 23.8366 23.9787 23.8366 24.2566V25.7264C23.537 26.2193 22.33 26.533 20.2155 26.6495C18.101 26.775 16.6473 25.9774 15.8632 24.2566C15.6253 23.3962 15.4403 22.6881 15.3257 22.1325C15.1495 21.3079 14.2332 20.564 13.1496 20.564C12.4271 20.564 11.8456 20.5013 11.4227 20.3848C10.8853 20.2055 10.6122 19.8291 10.6122 19.2734V16.9701H2.45372C2.57706 15.563 2.24227 14.7563 1.45814 14.5771V13.7436H1.19383V13.0983H1V9.87179H1.17621V9.33404H1.44933V8.21373H2.08368V6.46605C2.14535 6.2868 2.3568 6.19717 2.71803 6.19717C2.65636 6.06274 2.7797 6 3.07926 6L7.4316 8.21373H17.0349C17.3807 8.16079 17.7118 8.03549 18.0076 7.84575C18.3033 7.656 18.5571 7.40594 18.753 7.11135H25.0965C25.581 8.64393 26.0656 9.56706 26.5502 9.87179L28.6294 7.84627C29.114 7.47881 29.5986 7.47881 30.0832 7.84627C30.5677 8.27647 30.6558 8.76941 30.3475 9.32508L28.1801 11.4402C28.9642 12.4261 30.4708 13.1341 32.7087 13.5643C32.7087 13.6808 32.6206 13.7436 32.4443 13.7436C30.2065 14.0573 28.9907 14.7563 28.8145 15.8677C28.5413 17.5257 27.1845 19.8291 25.5546 20.3848C25.0084 19.3362 24.4357 18.7536 23.8278 18.6281H19.6693C18.7001 18.7536 18.0129 19.4616 17.59 20.7522C17.1054 23.5127 18.0393 24.875 20.4005 24.8033C22.0304 24.624 22.9908 24.4448 23.2991 24.2566ZM15.1407 11.3954C15.1407 11.9332 15.5636 12.3634 16.0922 12.3634H21.2111C21.9335 12.3634 22.2948 12.0586 22.2948 11.4402C22.2948 10.768 21.9423 10.4275 21.2111 10.4275H16.101C15.5724 10.4275 15.1407 10.8577 15.1407 11.3954ZM15.1407 14.9446C15.1407 15.5002 15.5812 15.9573 16.1363 15.9573H21.3961C22.0569 15.9573 22.4181 15.6167 22.4798 14.9446C22.4181 14.2724 21.9952 13.9318 21.2111 13.9318H16.1451C15.5988 13.9318 15.1495 14.3799 15.1495 14.9446H15.1407Z" fill="white"/>
</svg>
