<svg width="40" height="40" viewBox="0 0 40 40" fill="none" xmlns="http://www.w3.org/2000/svg">
    <path
        d="M16.5327 1C19.5654 2.15211 22.4216 3.72638 25.0177 5.67662L28.8241 12.1642C25.3955 8.24533 21.0767 5.21357 16.2333 3.32563C11.39 1.43769 6.16469 0.74918 1 1.31841L1 2.8209C5.18234 2.33141 9.42025 2.70943 13.4511 3.93151C17.4819 5.15359 21.2197 7.1937 24.4329 9.92537L27.813 17.7264C24.898 13.412 20.8497 9.99216 16.117 7.84595C11.3843 5.69975 6.15195 4.91101 1 5.56716L1 7.0796C8.90017 5.98507 16.6616 8.56219 22.3215 13.6667L24.7897 20.7114C22.307 16.7706 18.7363 13.6396 14.5123 11.6998C10.2884 9.75995 5.59369 9.09505 1 9.78607V11.2985C4.58923 10.7145 8.26613 11.0163 11.7132 12.1778C15.1602 13.3393 18.2738 15.3256 20.7851 17.9652L22.4405 24.7015C20.5261 20.8006 17.3979 17.6319 13.5293 15.6749C9.66076 13.718 5.26242 13.0794 1 13.8557L1 15.3781C4.42625 14.697 7.97487 15.009 11.231 16.2776C14.4871 17.5463 17.3162 19.7192 19.3875 22.5423L19.7641 28.4229C18.4524 24.6747 15.8206 21.5374 12.3644 19.6021C8.90819 17.6667 4.86625 17.0668 1 17.9154L1 19.4577C3.93682 18.7362 7.02395 18.9425 9.83956 20.0484C12.6552 21.1544 15.0619 23.1061 16.731 25.6368L17.2068 30.2438C19.0703 29.7463 21.0032 29.1891 22.6883 28.5721C24.2247 28.0149 25.5629 27.408 26.4154 26.8109C26.8416 26.5124 27.139 26.2139 27.3075 25.9652C27.4661 25.7164 27.5057 25.5473 27.476 25.3483L27.3769 24.7015L38.3201 21.5274C35.2221 12.5647 28.7294 5.18913 20.2499 1H16.5327V1ZM38.7959 22.9502L35.5843 23.8856C35.6849 25.3909 35.2179 26.8791 34.2759 28.0547C32.9198 29.6954 31.221 31.0167 29.2999 31.9254C25.6818 33.796 20.9536 35.1095 16.166 35.7662L16.5228 37.0796C22.0043 36.4627 27.9617 35.3085 32.343 33.1891C34.7814 31.995 36.7044 30.5323 37.8344 28.7512C38.371 27.8971 38.7323 26.9441 38.8974 25.948C39.0625 24.9519 39.028 23.9328 38.7959 22.9502V22.9502ZM34.1272 24.3035L28.9331 25.806C28.8736 26.1542 28.7349 26.4925 28.5564 26.7811C28.21 27.2773 27.7727 27.7027 27.2678 28.0348C26.2171 28.7811 24.7897 29.408 23.2037 29.9851C20.6464 30.9104 17.7321 31.6766 15.254 32.3234L15.7794 34.3134C20.4977 33.6866 25.1763 32.3731 28.6159 30.592C30.5984 29.5672 32.1546 28.3831 33.0864 27.1493C33.7546 26.3523 34.1229 25.3452 34.1272 24.3035V24.3035ZM13.222 30.5124L10.5853 31.2189L11.2395 33.6766C11.5821 33.7987 11.8899 34.0027 12.1364 34.271C12.3829 34.5392 12.5607 34.8637 12.6544 35.2163C12.748 35.5689 12.7548 35.9391 12.6741 36.295C12.5934 36.6508 12.4276 36.9816 12.1911 37.2587L12.5678 38.6517L15.2045 37.9552L13.222 30.5124V30.5124ZM10.4762 35.0398C10.3634 35.0388 10.2518 35.0626 10.1491 35.1095L4.10258 36.7313C4.37313 37.1652 4.5014 37.6733 4.46934 38.1841L10.5357 36.5522C10.9322 36.5224 11.2296 36.204 11.2296 35.796C11.2309 35.6963 11.2123 35.5974 11.175 35.5051C11.1376 35.4127 11.0821 35.3288 11.0119 35.2583C10.9417 35.1878 10.8581 35.1322 10.7661 35.0946C10.6741 35.0571 10.5755 35.0385 10.4762 35.0398V35.0398ZM2.02098 37.0597C1.89351 37.057 1.76682 37.0801 1.64841 37.1275C1.53 37.175 1.42229 37.2458 1.33168 37.3358C1.24107 37.4258 1.16941 37.5332 1.12094 37.6516C1.07248 37.77 1.04821 37.8969 1.04956 38.0249C1.04956 38.5721 1.47579 39 2.02098 39C2.56616 39 2.98248 38.5721 2.98248 38.0249C2.9838 37.8978 2.95984 37.7717 2.91199 37.6539C2.86414 37.5362 2.79336 37.4293 2.70382 37.3394C2.61427 37.2495 2.50774 37.1785 2.39049 37.1305C2.27324 37.0824 2.14761 37.0584 2.02098 37.0597V37.0597Z"
        fill="#e6d8fd" />
</svg>