<svg width="40" height="40" viewBox="0 0 40 40" fill="none" xmlns="http://www.w3.org/2000/svg">
    <path
        d="M27.6018 5H31.3892V8.73892H27.6018V5ZM8.60178 5H12.3982V8.73892H8.60178V5ZM8.60178 31.2434H12.3982V35H8.60178V31.2434ZM27.6018 31.2434H31.3892V35H27.6018V31.2434Z"
        fill="#e6d8fd" />
    <path
        d="M39 23.7478V27.4955H35.1946V23.7478H31.3982V27.4955H27.6018V31.2522H23.7964V27.4955H16.2036V31.2522H12.3982V27.4955H8.60179V23.7478H4.80539V27.4955H1V20H4.80539V16.2522H8.60179V12.4955H12.3982V8.74776H16.2036V12.4955H23.7964V8.74776H27.6018V12.4955H31.3982V16.2522H35.1946V20H39V23.7478V23.7478ZM27.6018 20V16.2522H23.7964V20H27.6018V20ZM16.2036 20V16.2522H12.3982V20H16.2036Z"
        fill="#e6d8fd" />
</svg>