<svg width="40" height="40" viewBox="0 0 40 40" fill="none" xmlns="http://www.w3.org/2000/svg">
    <path
        d="M1 1C5.80011 10.1092 12.4812 17.407 19.7071 24.7358L19.9949 25.0463V25.036L25.35 30.4083C23.8186 31.6125 22.2043 32.7056 20.5191 33.6794L22.8215 35.9877L28.3514 30.4187C31.707 32.6634 34.5631 35.5855 36.7387 39L39 36.7227C35.5772 34.4971 32.5759 31.8368 30.4688 28.2966L36.0192 22.7069L33.7168 20.3985C32.8291 22.1424 31.761 23.787 30.5304 25.3051C27.1199 21.83 23.6276 18.4372 20.0565 15.1297L20.0051 15.0883C14.1977 9.77799 8.15391 5.00599 1 1ZM39 1C32.5795 4.67392 26.5845 9.05532 21.1255 14.0635L22.9654 15.8232L27.5394 11.2065L28.5981 12.283L24.0549 16.8583L26.0387 18.732C31.0135 13.3078 35.5053 7.63525 39 1V1ZM12.4606 11.2065L28.6289 27.4789C28.2691 27.8412 27.9094 28.2035 27.5496 28.5347L11.4122 12.283L12.4709 11.2168L12.4606 11.2065ZM6.29348 20.3985L3.99107 22.7069L9.54152 28.2966C7.42413 31.8368 4.42278 34.4971 1.01028 36.7227L3.27157 39C5.44305 35.5828 8.29565 32.6571 11.6486 30.4083L17.1785 35.9981L19.4809 33.6794C17.7952 32.696 16.1712 31.6091 14.65 30.4083L18.9362 26.1125L16.9318 24.0319L12.4709 28.5347C12.1009 28.1828 11.7411 27.8308 11.3917 27.4685L15.8834 22.945L13.9099 20.885C12.4401 22.3342 10.96 23.8041 9.46957 25.3154C8.23829 23.7942 7.17023 22.146 6.2832 20.3985H6.29348Z"
        fill="#e6d8fd" />
</svg>