<svg width="40" height="40" viewBox="0 0 40 40" fill="none" xmlns="http://www.w3.org/2000/svg">
    <path
        d="M36.7468 1.01L35.7431 1.32003L14.0415 8.14068L13.4995 8.3107V31.6529C13.3991 31.6129 13.2987 31.5729 13.1783 31.5429C12.5533 31.3551 11.9038 31.2607 11.251 31.2629C10.5484 31.2629 9.77546 31.3429 8.98248 31.5229C7.39652 31.873 5.97117 32.523 4.88709 33.3231C3.80302 34.1432 3 35.1233 3 36.3134C3 36.9034 3.25094 37.4635 3.64241 37.8635C4.03389 38.2636 4.54581 38.5436 5.11796 38.7236C6.2723 39.0836 7.72777 39.0936 9.32377 38.7436C10.9097 38.3936 12.3351 37.7435 13.4192 36.9334C14.4932 36.1234 15.2962 35.1333 15.2962 33.9532C15.2962 33.5931 15.2059 33.2531 15.0453 32.9431V17.4716L35.201 11.151V22.9021C35.1006 22.8521 34.9902 22.8221 34.8798 22.7821C34.2511 22.5966 33.5982 22.5056 32.9425 22.5121C30.6549 22.5047 28.425 23.2266 26.5786 24.5723C25.5046 25.3823 24.7016 26.3724 24.7016 27.5525C24.7016 28.1526 24.9525 28.7026 25.3339 29.1127C25.7354 29.5127 26.2373 29.7828 26.8195 29.9628C27.9739 30.3228 29.4293 30.3328 31.0153 29.9828C32.6012 29.6427 34.0266 28.9827 35.1107 28.1826C36.1948 27.3625 36.9978 26.3824 36.9978 25.1923C36.9978 24.8423 36.8974 24.4922 36.7468 24.1922V1V1.01ZM35.201 3.1102V5.52043L15.0453 11.851V9.44081L35.201 3.1102ZM35.201 7.14059V9.53082L15.0453 15.8614V13.4612L35.201 7.15059V7.14059Z"
        fill="#e6d8fd" />
</svg>