<svg width="40" height="40" viewBox="0 0 40 40" fill="none" xmlns="http://www.w3.org/2000/svg">
<path d="M38.2073 21.2367H24.7479V18.6863C25.136 18.7719 25.5241 18.8318 25.9122 18.8318C26.2425 18.8318 26.7379 18.712 27.2003 18.1471C28.1417 16.9746 28.5628 14.3899 28.1747 12.1391C27.7627 9.62733 26.4317 7.37714 24.4589 5.85718C22.8075 4.57342 21.0322 4 20 4C18.9596 4 17.1843 4.58197 15.5411 5.85718C13.5683 7.37714 12.2373 9.62733 11.8253 12.1391C11.4372 14.3985 11.8583 16.9746 12.7997 18.1385C13.2621 18.712 13.7492 18.8318 14.0795 18.8318C14.4924 18.8318 14.8722 18.7719 15.2521 18.6777V21.2281H1.7927C1.58246 21.2281 1.38084 21.3147 1.23218 21.4688C1.08352 21.6229 1 21.8318 1 22.0497V35.1784C1 35.632 1.35506 36 1.7927 36H38.2073C38.6449 36 39 35.632 39 35.1784V22.0497C39 21.8318 38.9165 21.6229 38.7678 21.4688C38.6192 21.3147 38.4175 21.2281 38.2073 21.2281V21.2367ZM37.4146 25.3362H35.8292V22.8628H37.4146V25.3276V25.3362ZM30.2886 25.3362V22.8628H34.2521V25.3276H30.2886V25.3362ZM28.7032 25.3362H27.126V22.8628H28.7032V25.3276V25.3362ZM27.126 26.9708H31.4776V30.2573H27.126V26.9708ZM34.2521 31.8919V34.3568H30.2886V31.8919H34.2521ZM33.063 30.2573V26.9708H37.4146V30.2573H33.063ZM26.5398 15.6908C26.3086 16.735 25.9865 17.1201 25.8792 17.1886C25.3837 17.1886 24.8057 17.0174 24.1947 16.8462L24.1782 16.8377C24.4424 15.0062 25.8049 14.1075 26.7379 13.7053C26.7379 14.3899 26.6801 15.0746 26.5398 15.6908ZM16.4907 7.16662L16.7549 6.96978C17.1678 7.85986 17.6632 9.3747 17.11 10.3161C16.6393 11.1121 15.4337 11.5143 13.5841 11.5057C14.0696 9.76913 15.0905 8.24509 16.4907 7.16662ZM13.452 15.6908C13.2713 14.8516 13.2156 13.9886 13.2868 13.1319L13.6832 13.1404C16.0943 13.1404 17.6962 12.4814 18.4641 11.172C19.4633 9.44317 18.6293 7.20941 18.1339 6.16528C18.9348 5.78871 19.6202 5.64322 19.9917 5.64322C20.6193 5.64322 22.0643 6.05403 23.5011 7.16662C24.6076 8.03102 26.003 9.56298 26.5398 12.0278C26.1021 12.1904 25.5324 12.4557 24.9626 12.8409C24.3502 13.242 23.8262 13.7726 23.425 14.3979C23.0237 15.0231 22.7542 15.7291 22.6341 16.4696L22.5598 16.4525C21.9983 16.3841 21.0074 16.3498 19.9174 16.3498C18.8192 16.3498 17.8283 16.3841 17.2668 16.4525C16.6888 16.5296 16.1686 16.6922 15.6649 16.8462C15.1117 17.0174 14.5915 17.1886 14.1126 17.1886C14.0135 17.1201 13.6832 16.735 13.452 15.6908ZM16.8375 18.207C17.0439 18.1557 17.2503 18.1129 17.4485 18.0872C17.9439 18.0273 18.8935 17.9845 19.9092 17.9845C20.9331 17.9845 21.8827 18.0273 22.3781 18.0872C22.6258 18.1129 22.89 18.1728 23.1625 18.2498V21.2281H16.8375V18.207ZM5.73968 25.3447V22.8628H9.70317V25.3276H5.73968V25.3447ZM6.92873 26.9794V30.2658H2.5854V26.9708H6.92873V26.9794ZM9.69491 31.9005V34.3653H5.74794V31.9005H9.71143H9.69491ZM11.2803 31.9005H12.8657V34.3653H11.2803V31.9005ZM12.8657 30.2658H8.52238V26.9708H12.874V30.2573L12.8657 30.2658ZM12.8657 25.3447H11.2803V22.8628H12.8657V25.3276V25.3447ZM4.16254 22.8628V25.3276H2.5854V22.8628H4.16254ZM2.5854 31.8919H4.16254V34.3568H2.5854V31.8919ZM14.4594 22.8714H25.5324V34.3568H14.4676V22.8714H14.4594ZM27.126 31.8919H28.7032V34.3568H27.126V31.8919ZM35.8292 34.3568V31.8919H37.4146V34.3568H35.8292Z" fill="white"/>
</svg>
