<svg width="40" height="40" viewBox="0 0 40 40" fill="none" xmlns="http://www.w3.org/2000/svg">
    <path
        d="M21.3452 22.2492C21.1615 22.6173 20.89 22.9344 20.5546 23.1726C20.2192 23.4108 19.8302 23.5628 19.4221 23.615C19.014 23.6673 18.5994 23.6183 18.2147 23.4722C17.8301 23.3262 17.4874 23.0878 17.2168 22.7779C16.9072 22.5067 16.6692 22.1635 16.5239 21.7785C16.3785 21.3935 16.3303 20.9786 16.3835 20.5705C16.4367 20.1625 16.5897 19.7738 16.8289 19.4389C17.068 19.104 17.3861 18.8332 17.7549 18.6505C18.2744 18.3908 18.7754 18.0754 19.2021 17.6951L14.6748 13.1596L19.2114 8.63339C19.6011 9.06932 19.9165 9.5609 20.1763 10.0896C20.358 10.4587 20.6285 10.777 20.9635 11.0158C21.2986 11.2547 21.6877 11.4067 22.0959 11.4581C22.5042 11.5096 22.9189 11.459 23.3028 11.3108C23.6866 11.1626 24.0277 10.9214 24.2954 10.609C24.6037 10.339 24.841 9.99747 24.9865 9.61441C25.132 9.23135 25.1813 8.81845 25.13 8.41192C25.0787 8.00539 24.9285 7.61764 24.6924 7.28271C24.4563 6.94777 24.1416 6.67586 23.7759 6.49085C23.2473 6.2346 22.7545 5.91031 22.3101 5.52624L26.8467 1L31.3647 5.52624C31.7451 5.09031 32.0605 4.59873 32.3203 4.07933C32.5023 3.70952 32.7731 3.39055 33.1086 3.15092C33.444 2.91129 33.8335 2.75846 34.2425 2.70609C34.6514 2.65373 35.0669 2.70346 35.4519 2.85083C35.8369 2.99821 36.1794 3.23864 36.4487 3.55065C36.7587 3.82114 36.9972 4.16379 37.1433 4.54833C37.2893 4.93287 37.3384 5.34745 37.2861 5.75544C37.2338 6.16343 37.0818 6.55227 36.8436 6.88759C36.6053 7.22292 36.2881 7.4944 35.9199 7.67806C35.4004 7.93776 34.8994 8.25311 34.4727 8.63339L39 13.1596L34.4727 17.6859C34.083 17.2499 33.7676 16.7584 33.5078 16.239C33.3253 15.871 33.0547 15.5537 32.7201 15.3154C32.3855 15.077 31.9973 14.9249 31.5898 14.8726C31.1822 14.8203 30.7681 14.8694 30.3842 15.0155C30.0002 15.1617 29.6582 15.4003 29.3887 15.7103C29.0784 15.9801 28.8393 16.3221 28.6925 16.7062C28.5458 17.0903 28.4959 17.5046 28.5472 17.9125C28.5986 18.3205 28.7496 18.7095 28.987 19.0452C29.2243 19.381 29.5407 19.6531 29.9082 19.8377C30.4277 20.0974 30.9287 20.4127 31.3555 20.8023L26.8281 25.3285L22.3008 20.8023C21.9204 21.2382 21.605 21.7298 21.3452 22.2492V22.2492Z"
        fill="#e6d8fd" />
    <path
        d="M5.2583 23.3158C4.8501 22.9448 4.38623 22.6573 3.89453 22.4069C3.5498 22.2344 3.25286 21.9797 3.02995 21.6653C2.80703 21.3509 2.665 20.9865 2.61639 20.6042C2.56779 20.2219 2.61412 19.8335 2.75128 19.4733C2.88844 19.1132 3.11221 18.7923 3.40283 18.5392C3.65607 18.2486 3.97699 18.0249 4.33724 17.8878C4.69748 17.7506 5.08596 17.7043 5.46836 17.7529C5.85076 17.8015 6.2153 17.9435 6.52978 18.1664C6.84426 18.3892 7.099 18.6861 7.27149 19.0307C7.52197 19.5223 7.81885 19.9768 8.18066 20.3942L12.4297 16.1369L14.9624 18.6597L14.7119 18.8916C14.2997 19.3076 13.9751 19.8021 13.7574 20.3458C13.5398 20.8894 13.4334 21.4712 13.4447 22.0567C13.4559 22.6422 13.5845 23.2195 13.8229 23.7544C14.0613 24.2893 14.4046 24.771 14.8325 25.1708C15.2521 25.6179 15.761 25.9718 16.3261 26.2098C16.8912 26.4477 17.5 26.5644 18.1131 26.5521C18.7262 26.5399 19.3299 26.399 19.885 26.1387C20.4402 25.8784 20.9345 25.5044 21.3359 25.041L23.8687 27.5638L19.6104 31.8304C20.0186 32.1828 20.4824 32.4796 20.9741 32.7208C21.3207 32.8927 21.6193 33.1476 21.8435 33.4629C22.0677 33.7781 22.2105 34.1438 22.2591 34.5275C22.3078 34.9112 22.2608 35.301 22.1224 35.6622C21.984 36.0234 21.7585 36.3448 21.4658 36.5977C21.2126 36.8883 20.8917 37.112 20.5314 37.2491C20.1712 37.3863 19.7827 37.4326 19.4003 37.384C19.0179 37.3354 18.6534 37.1934 18.3389 36.9705C18.0244 36.7477 17.7697 36.4508 17.5972 36.1062C17.3545 35.6142 17.0489 35.1559 16.688 34.7427L12.439 39L8.17139 34.7427C8.58887 34.381 9.05274 34.0935 9.54443 33.843C9.89276 33.6728 10.1933 33.4186 10.4189 33.1034C10.6445 32.7882 10.7882 32.4218 10.8369 32.0372C10.8857 31.6527 10.8381 31.262 10.6983 30.9005C10.5585 30.5389 10.3309 30.2178 10.0361 29.9661C9.78309 29.6735 9.46163 29.448 9.10036 29.3096C8.73909 29.1712 8.34921 29.1243 7.96541 29.1729C7.58161 29.2216 7.21578 29.3643 6.90049 29.5885C6.58519 29.8126 6.3302 30.1112 6.1582 30.4576C5.91844 30.9491 5.61595 31.4074 5.2583 31.8211L1 27.5638L5.2583 23.3158Z"
        fill="#e6d8fd" />
</svg>