<svg width="40" height="40" viewBox="0 0 40 40" fill="none" xmlns="http://www.w3.org/2000/svg">
    <path
        d="M29.5423 1L28.3013 1.28437L28.4368 1.9163L29.6153 7.12971L27.7486 6.83481L26.8934 6.69789L27.4148 9.01497L29.2816 9.3204L30.1367 9.45732L30.7416 12.1641L32.3893 19.5155L32.9942 22.2223L31.1275 21.9169L30.2723 21.7905L30.7937 24.1075L32.6605 24.4024L33.5156 24.5394L36.613 38.3681L36.7486 39L38 38.7156L37.854 38.0837L29.6883 1.63193L29.5423 1V1ZM30.7937 24.1075C29.902 23.9618 29.0042 23.8564 28.1031 23.7916L28.6976 26.4246L28.7393 26.4351C29.0179 26.4659 29.296 26.501 29.5736 26.5405L30.0324 26.6037L31.0753 26.7616L31.3986 26.8143L30.7937 24.1075V24.1075ZM28.1031 23.7916L27.5817 21.4008C26.7162 21.2701 25.8354 21.2844 24.9745 21.4429L25.5272 23.9601C26.3728 23.7751 27.2404 23.7148 28.1031 23.781V23.7916ZM25.5272 23.9601C24.7034 24.1391 23.9525 24.4551 23.1286 24.9185L23.7231 27.5516C24.4468 27.0685 25.2425 26.7058 26.08 26.4773H26.0904L25.5272 23.9496V23.9601ZM23.1286 24.9185L22.5968 22.5383C21.971 22.9279 21.2306 23.4335 20.3129 24.0654L20.8343 26.3825C21.5771 25.8602 22.3426 25.3717 23.1286 24.9185V24.9185ZM20.8343 26.393L19.2804 27.4568L18.5713 27.9518L19.1761 30.6269L20.6257 29.6159C20.9073 29.4052 21.1784 29.2262 21.4392 29.0577L20.8343 26.3825V26.393ZM18.5713 27.9518L18.0498 25.6347C17.1947 26.2245 16.4438 26.709 15.7555 27.0987L16.2978 29.4684C16.9235 29.0892 17.664 28.5837 18.5713 27.9518V27.9518ZM16.2978 29.4684C15.3175 30.0793 14.6083 30.4163 13.92 30.5743L14.4832 33.0915C15.3261 32.8859 16.1343 32.5559 16.8818 32.112L16.2978 29.4789V29.4684ZM13.92 30.5743L13.3569 28.0571C12.533 28.2467 11.7196 28.2888 10.781 28.2361L11.3129 30.6059C12.46 30.7323 13.2422 30.7323 13.92 30.5743ZM11.3129 30.6059C10.5829 30.5322 9.69641 30.3952 8.61182 30.2267L9.21669 32.9335C9.21669 32.9335 10.4994 33.1652 11.9073 33.26L11.3129 30.6059ZM8.61182 30.2267L8.09038 27.9096L6.23407 27.6147C5.92121 27.5621 5.65006 27.5094 5.37891 27.4778L5.90035 29.7949L7.75666 30.0898L8.61182 30.2267ZM8.09038 27.9096C9.12283 28.0676 9.99884 28.1835 10.781 28.2256L10.1866 25.582C9.45655 25.4978 8.5701 25.3714 7.48552 25.2029L8.09038 27.9096ZM7.48552 25.2029L6.96408 22.8858C6.3905 22.7805 5.78563 22.6857 5.10776 22.5804L4.25261 22.4435L4.77404 24.7605C5.34762 24.8659 5.95249 24.9501 6.63036 25.066L7.48552 25.2029ZM6.96408 22.8858C7.99652 23.0333 8.87254 23.1596 9.65469 23.2018L9.06026 20.5477C8.33024 20.4739 7.4438 20.337 6.35921 20.1685L6.96408 22.8753V22.8858ZM6.35921 20.1685L5.83778 17.8514L3.98146 17.5565C3.6686 17.5039 3.39745 17.4512 3.1263 17.4196L3.64774 19.7367L5.50406 20.0316C5.81692 20.0843 6.08806 20.1369 6.35921 20.1685ZM5.83778 17.8514C6.87022 18.0094 7.74623 18.1253 8.52839 18.1674L7.93395 15.5238C7.20394 15.4396 6.3175 15.3132 5.23291 15.1447L5.83778 17.8514ZM5.23291 15.1447L4.71147 12.8276C4.13789 12.7223 3.53302 12.6275 2.85516 12.5222L2 12.3853L2.52144 14.7023C3.09502 14.8077 3.69988 14.8919 4.37775 15.0078L5.23291 15.1447V15.1447ZM4.71147 12.8276C5.74392 12.9751 6.61993 13.1014 7.40209 13.1436L6.80765 10.4895H6.77636L6.56779 10.4684L6.36964 10.4473C5.61417 10.3466 4.85978 10.2378 4.1066 10.1208L4.71147 12.8171V12.8276ZM7.40209 13.1436L7.93395 15.5238C9.08111 15.6397 9.86327 15.6397 10.5411 15.4817L9.97798 12.9751C9.15411 13.1541 8.34067 13.1962 7.40209 13.1436ZM9.97798 12.9751C10.8197 12.7709 11.6277 12.4446 12.3766 12.0061L11.7926 9.352C10.8123 9.96286 10.1031 10.2999 9.41483 10.4579L9.97798 12.9751V12.9751ZM9.42526 10.4473L9.41483 10.4579L9.42526 10.4473ZM12.387 12.0061L12.9085 14.3864C13.5342 13.9967 14.2851 13.4911 15.1924 12.8697L14.6709 10.5527C13.8158 11.1319 13.0649 11.6269 12.3766 12.0061H12.387ZM14.6813 10.5421L16.2248 9.46785L16.934 8.97284L16.3291 6.26608L14.7752 7.34036L14.066 7.83537L14.6709 10.5421H14.6813ZM16.934 8.97284L17.4554 11.2899C18.321 10.7106 19.0614 10.2156 19.7497 9.83648L19.2178 7.45621C18.5921 7.8459 17.8413 8.35144 16.934 8.97284V8.97284ZM19.2178 7.45621C20.1981 6.84534 20.9073 6.50832 21.5852 6.35033L21.022 3.84368C20.1877 4.03326 19.4473 4.34922 18.6234 4.80211L19.2178 7.45621ZM21.5852 6.35033L22.1483 8.87805C22.9939 8.69291 23.8615 8.6326 24.7242 8.699L24.2028 6.31874C23.3379 6.18461 22.457 6.19529 21.5956 6.35033H21.5852V6.35033ZM24.1924 6.31874C24.9224 6.39246 25.8088 6.52938 26.9038 6.69789L26.2885 3.99113C26.2885 3.99113 25.0058 3.75942 23.5979 3.67517L24.1924 6.31874V6.31874ZM24.7242 8.699L25.3187 11.3426C26.0487 11.4268 26.9351 11.5532 28.0301 11.7323L27.4148 9.0255C26.5232 8.87626 25.6255 8.76732 24.7242 8.699V8.699ZM28.0197 11.7323L28.5411 14.0493L30.4079 14.3442L31.2526 14.4812L30.7312 12.1641L28.8749 11.8586L28.0197 11.7323V11.7323ZM28.5411 14.0493C27.5191 13.8914 26.6327 13.7755 25.8505 13.7334L26.445 16.3664C27.175 16.4507 28.0614 16.5771 29.1564 16.7561L28.5411 14.0493V14.0493ZM29.146 16.7561L29.6674 19.0732L31.5342 19.3786L32.3893 19.5155L31.8679 17.1879L30.0012 16.893L29.146 16.7561V16.7561ZM29.6674 19.0732C28.6454 18.9152 27.759 18.7993 26.9768 18.7572L27.5713 21.4008C28.3013 21.485 29.1877 21.6114 30.2827 21.7905L29.6674 19.0837V19.0732ZM26.9768 18.7572L26.4554 16.3769C25.5905 16.243 24.7097 16.2537 23.8482 16.4085L24.4009 18.9363C25.2465 18.7511 26.1141 18.6908 26.9768 18.7572V18.7572ZM24.4009 18.9257C23.5771 19.1153 22.8262 19.4313 22.0023 19.8947L22.5968 22.5383C23.5771 21.9379 24.2862 21.5904 24.9641 21.4429L24.4009 18.9257ZM22.0023 19.8947L21.4705 17.5144C20.8447 17.9041 20.1043 18.4096 19.1866 19.031L19.708 21.3481C20.5736 20.7688 21.314 20.2738 22.0023 19.8947V19.8947ZM19.6976 21.3586L18.1437 22.4329L17.4345 22.9279L18.0394 25.6347L19.6037 24.5499L20.3024 24.0654L19.6976 21.3586V21.3586ZM17.4345 22.9279L16.9131 20.6109C16.0579 21.1901 15.3071 21.6851 14.6188 22.0643L15.1611 24.4446C15.7868 24.0549 16.5272 23.5493 17.4345 22.9279V22.9279ZM15.1611 24.4446C14.1808 25.0449 13.4716 25.3925 12.7833 25.5399L13.3465 28.0571C14.1876 27.8563 14.9956 27.5335 15.7451 27.0987L15.1611 24.4446ZM12.7833 25.5399L12.2202 23.0333C11.3963 23.2123 10.5829 23.2544 9.64426 23.2018L10.1761 25.582C11.3233 25.6979 12.1054 25.6979 12.7833 25.5399V25.5399ZM12.2202 23.0333C13.0619 22.8292 13.8699 22.5028 14.6188 22.0643L14.0348 19.4102C13.0545 20.0211 12.3453 20.3581 11.657 20.5161L12.2202 23.0333ZM11.657 20.5055L11.0939 17.9989C10.27 18.1885 9.45655 18.2306 8.51796 18.1779L9.04983 20.5477C10.197 20.6741 10.9791 20.6741 11.657 20.5161V20.5055ZM11.0939 17.9989C11.935 17.7981 12.743 17.4753 13.4925 17.0405L12.9085 14.3864C11.9282 14.9867 11.219 15.3343 10.5307 15.4817L11.0939 18.0094V17.9989ZM13.4925 17.0405L14.0348 19.4102C14.6605 19.031 15.4009 18.5255 16.3082 17.8936L15.7868 15.5765C14.9316 16.1663 14.1808 16.6508 13.4925 17.0405ZM15.7868 15.566C16.2665 15.25 16.7671 14.8919 17.3511 14.4917L18.0498 14.0072L17.445 11.3004C16.9652 11.6164 16.4647 11.9745 15.8911 12.3747L15.1819 12.8697L15.7868 15.5765V15.566ZM18.0498 14.0072L18.5713 16.3243C19.4368 15.7345 20.1773 15.2395 20.8656 14.8603L20.3337 12.48C19.708 12.8697 18.9676 13.3753 18.0498 14.0072ZM20.3337 12.48C21.314 11.8797 22.0232 11.5322 22.701 11.3847L22.1379 8.86752C21.314 9.0571 20.5632 9.37306 19.7393 9.83648L20.3337 12.48V12.48ZM22.701 11.3847L23.2642 13.9019C24.1097 13.7167 24.9774 13.6564 25.8401 13.7228L25.3187 11.3426C24.4532 11.2119 23.5723 11.2262 22.7115 11.3847H22.701ZM23.2642 13.9019C22.4403 14.0915 21.6895 14.4074 20.8656 14.8603L21.46 17.5144C22.4403 16.9035 23.1495 16.5665 23.8273 16.4085L23.2642 13.9019ZM18.5713 16.3243L17.0174 17.3986L16.3082 17.8936L16.9131 20.6003L18.4774 19.5261L19.1761 19.031L18.5713 16.3243V16.3243Z"
        fill="#e6d8fd" />
</svg>