<svg width="40" height="40" viewBox="0 0 40 40" fill="none" xmlns="http://www.w3.org/2000/svg">
    <path
        d="M20.0048 2L19.9758 2.03859C19.8208 2.31833 19.6174 2.78135 19.4333 3.36013C19.0459 4.49839 18.6584 6.08039 18.3291 7.65273C17.8888 9.75424 17.5076 11.8676 17.1861 13.9904C17.1861 14.1061 17.3411 14.3473 17.8351 14.5884C18.3485 14.8392 19.1331 15.0225 20.0048 15.0225C20.8766 15.0225 21.6515 14.8392 22.1746 14.5884C22.6686 14.3473 22.8139 14.1061 22.8236 13.9904L22.8042 13.9035C22.7186 13.2781 22.6218 12.6542 22.5136 12.0322C22.3005 10.8264 22.0099 9.23473 21.6709 7.65273C21.3801 6.20414 21.0148 4.77138 20.5763 3.36013C20.3826 2.78135 20.1889 2.31833 20.0242 2.03859L20.0145 2H20.0048ZM6.28881 3.54341C3.06322 5.95498 1 9.19614 1 12.7749C1 15.283 1.96865 17.6174 3.65409 19.6238L5.85292 13.2958C4.93195 11.9246 4.43364 10.3152 4.41932 8.66559C4.41932 6.80386 5.14581 5.07717 6.28881 3.54341V3.54341ZM33.7112 3.54341C34.8726 5.0017 35.5285 6.79539 35.5807 8.65595C35.5807 10.3151 35.0673 11.8875 34.1471 13.2958L36.3556 19.6141C38.0254 17.7161 38.9628 15.2884 39 12.7653C39 9.19614 36.9368 5.95498 33.7112 3.54341ZM16.6243 9.66881C13.6893 10.4116 11.6067 12.2444 10.0859 15.3408C8.06143 19.4598 7.16059 25.8842 7.13153 34.7106C10.6125 36.6674 14.5019 37.7934 18.4938 38C18.4647 34.9132 17.9319 30.0418 17.5445 26.8778C12.1201 26.3955 9.76625 24.4952 9.76625 24.4952C9.76625 24.4952 10.0665 22.2572 10.2796 21.2637C13.4128 22.3133 16.6992 22.8381 20.0048 22.8167C23.3067 22.8394 26.5895 22.3179 29.7204 21.2733C29.9335 22.2572 30.2434 24.4952 30.2434 24.4952C30.2434 24.4952 27.9671 26.4244 22.4652 26.8875C22.0777 30.0514 21.5353 34.9228 21.5159 38C25.5045 37.7919 29.3904 36.666 32.8685 34.7106C32.8491 25.8842 31.9483 19.4598 29.9238 15.3408C28.403 12.2444 26.3301 10.4116 23.3854 9.66881L23.7632 11.7428L23.8504 11.791C24.8674 12.3601 25.6036 13.209 25.7586 14.2412L26.2429 17.5788L26.1751 17.7428C25.7489 18.7942 24.6543 19.3826 23.492 19.8167C22.3296 20.2508 21.0413 20.4823 20.0048 20.492H19.9952C18.8034 20.4592 17.6253 20.2311 16.508 19.8167C15.3457 19.3826 14.2511 18.7942 13.8249 17.7428L13.7571 17.5788L14.2414 14.2412C14.3964 13.209 15.1422 12.3601 16.1593 11.791L16.2368 11.7428L16.6146 9.66881H16.6243ZM7.49962 12.5048L4.12873 22.1608L6.54066 23.2701C7.02498 19.8746 7.7999 17.0482 8.92353 14.7814C9.19475 14.2315 9.48534 13.7203 9.79531 13.2283L7.48993 12.5048H7.49962ZM32.5198 12.5048L30.2144 13.2283C30.534 13.7106 30.8246 14.2315 31.0862 14.7717C32.3175 17.4652 33.1245 20.3317 33.4787 23.2701L35.881 22.1608L32.5198 12.5145V12.5048ZM15.6362 14.0482C15.5878 14.1833 15.5491 14.3087 15.5394 14.4341L15.1035 17.3666C15.336 17.7621 16.0431 18.2733 16.973 18.6206C17.9804 18.9871 19.1815 19.1994 20.0145 19.1994C20.8476 19.1994 22.0487 18.9871 23.0561 18.6206C23.7898 18.3953 24.4402 17.959 24.9256 17.3666L24.4897 14.4244C24.4731 14.2987 24.4406 14.1755 24.3928 14.0579L24.1119 14.1543C24.0344 14.8778 23.4339 15.4084 22.7461 15.746C22.0003 16.1029 21.051 16.3055 20.0145 16.3055C18.9684 16.3055 18.0191 16.1125 17.2829 15.746C16.5855 15.4084 15.9946 14.8778 15.9075 14.1447L15.6362 14.0482V14.0482Z"
        fill="#e6d8fd" />
</svg>