<svg width="40" height="40" viewBox="0 0 40 40" fill="none" xmlns="http://www.w3.org/2000/svg">
    <path
        d="M19.326 1C14.7922 1.1542 10.4644 2.93138 7.13007 6.00817L15.9775 14.8474C18.759 11.7012 20.0107 7.02478 19.326 1ZM20.9307 1C21.6047 7.30301 20.2354 12.461 17.1115 15.9817L20 18.871L32.8592 6.00817C29.5926 2.99371 25.37 1.22464 20.9307 1.0107V1ZM6.00676 7.13179C2.93083 10.4671 1.15416 14.7961 1 19.3312C7.01239 20.0054 11.6982 18.7426 14.8542 15.9817L6.00676 7.13179ZM33.9825 7.13179L21.1233 19.9947L24.0118 22.884C27.0073 20.2301 31.1796 18.8389 36.2292 18.9031C37.1171 18.9031 38.0479 18.9673 38.9893 19.0636C38.7725 14.6218 37.0001 10.3978 33.9825 7.13179V7.13179ZM15.9775 17.1053C12.4685 20.2408 7.31194 21.5998 1.0107 20.9257C1.2221 25.3699 2.99083 29.5979 6.00676 32.8682L18.8767 19.9947L15.9882 17.1053H15.9775ZM35.8761 20.4869C31.3401 20.4869 27.7241 21.7496 25.1458 24.0183L33.9825 32.8682C37.0624 29.5345 38.8429 25.2053 39 20.6688C37.9595 20.5484 36.9129 20.4876 35.8654 20.4869H35.8761ZM20 21.129L7.14077 33.9918C10.4074 37.0063 14.63 38.7754 19.0693 38.9893C18.3953 32.697 19.7646 27.539 22.8885 24.0076L20 21.1183V21.129ZM24.0225 25.1419C21.2517 28.2988 19.9893 32.9859 20.674 39C25.2078 38.8458 29.5356 37.0686 32.8699 33.9918L24.0225 25.1419V25.1419Z"
        fill="#e6d8fd" />
</svg>