<svg width="40" height="40" viewBox="0 0 40 40" fill="none" xmlns="http://www.w3.org/2000/svg">
<path d="M28.3728 1.00941C28.2128 0.971755 26.6596 3.18425 25.8219 4.05042C24.3347 3.39138 21.5014 1.91324 21.379 2.05447C21.3131 2.12037 22.8474 4.56824 24.0429 7.44919L19.9294 8.45658L13.7733 4.78478L10.2811 8.852C8.10676 6.17818 5.70646 4.05042 5.61234 4.09749C5.45232 4.17281 5.72529 6.87488 5.6594 8.07057C4.10627 8.54131 1 9.28509 1 9.45455C1 9.55812 4.32276 10.5843 7.36314 12.2319L3.22145 17.0335L5.05697 31.8149L16.8608 28.6421L19.374 30.751C16.3054 31.749 13.5192 32.2291 13.5004 32.3327C13.4815 32.5398 16.842 33.8202 18.5081 34.5734C18.4139 35.9198 17.708 38.8948 17.868 38.9984C17.9621 39.0643 20.9272 37.0684 23.7416 34.4228L28.9846 38.8384H31.2437L24.7771 33.406C26.0652 32.1571 27.1683 30.7304 28.0528 29.1693C28.3634 29.3858 28.9282 30.5721 29.1353 30.5344C29.4459 30.4874 30.9519 23.8593 30.7072 23.6616C30.3401 23.398 24.0899 25.94 24.1182 26.0906C24.137 26.2224 25.4548 26.8156 26.0572 27.2581C24.8524 28.482 22.9415 29.4517 20.9648 30.1955L17.2185 27.0415L6.29007 29.979L4.73693 17.4949L8.63389 12.9757C9.70656 13.6111 10.6592 14.4301 11.4484 15.3953C10.8648 15.706 9.63166 16.0732 9.60342 16.1956C9.56577 16.318 14.7617 19.3025 15.11 19.0954C15.3547 18.9636 14.8088 12.9475 14.5452 12.8722C14.3569 12.8157 13.7263 13.7948 13.4157 13.9549C12.8587 12.5456 12.1078 11.2211 11.1848 10.0194L14.084 6.65834L19.6941 10.01L24.57 8.81434C25.1348 10.396 25.5113 12.0154 25.4171 13.3711C24.7677 13.2299 23.6004 12.7027 23.4969 12.7686C23.3934 12.8439 25.3795 18.4928 25.7748 18.5681C26.0572 18.6246 29.5588 13.7101 29.4082 13.4841C29.3141 13.3241 28.1845 13.6442 27.8551 13.5783C28.4763 11.9589 28.7305 9.82173 28.7964 7.77871L33.0604 6.74307L39 11.008V9.21918L33.3617 5.17079L28.8152 6.27233C28.7964 3.40079 28.4669 1.02824 28.3728 1V1.00941Z" fill="white"/>
</svg>
