<svg xmlns="http://www.w3.org/2000/svg" fill="none" viewBox="0 0 14 14">
    <path fill="#dcd8e6" fill-rule="evenodd"
        d="M5.69 6.13c0-.25.2-.44.43-.44h.44a.88.88 0 0 1 .88.87v2.19a.44.44 0 0 0 .43.44h.44a.44.44 0 0 1 0 .87h-.44a1.31 1.31 0 0 1-1.3-1.31V6.56h-.45a.44.44 0 0 1-.43-.43ZM6.42 3.61a.66.66 0 1 1 .73 1.1.66.66 0 0 1-.73-1.1Zm.44.75a.22.22 0 1 0-.16-.4.22.22 0 0 0 .16.4Z"
        clip-rule="evenodd"></path>
    <path fill="#dcd8e6" fill-rule="evenodd"
        d="M2.05 2.05a7 7 0 1 1 9.9 9.9 7 7 0 0 1-9.9-9.9ZM7 .88a6.13 6.13 0 1 0 0 12.25A6.13 6.13 0 0 0 7 .87Z"
        clip-rule="evenodd"></path>
</svg>