<svg xmlns="http://www.w3.org/2000/svg" fill="none" viewBox="0 0 136 40"><defs/><g clip-path="url(#clip0)"><path fill="black" fill-rule="evenodd" d="M130.53 40H5.03A5.03 5.03 0 010 35V5c0-2.76 2.25-5 5.02-5h125.51a5.02 5.02 0 015.03 5v30c0 2.75-2.26 5-5.03 5z" clip-rule="evenodd"/><path fill="#A6A6A6" fill-rule="evenodd" d="M130.53.8a4.22 4.22 0 014.23 4.2v30c0 2.31-1.9 4.2-4.23 4.2H5.03A4.22 4.22 0 01.8 35V5C.8 2.69 2.69.8 5.02.8h125.51zm0-.8H5.03A5.03 5.03 0 000 5v30c0 2.76 2.25 5 5.02 5h125.51a5.02 5.02 0 005.03-5V5c0-2.75-2.26-5-5.03-5z" clip-rule="evenodd"/><path fill="white" d="M71.41 13.23c-.9 0-1.67-.32-2.27-.94a3.2 3.2 0 01-.92-2.3c0-.9.31-1.67.92-2.28.6-.63 1.36-.94 2.27-.94A3.2 3.2 0 0174.6 10a3.2 3.2 0 01-3.19 3.23zm-26.93 0c-.89 0-1.66-.31-2.29-.93a3.12 3.12 0 01-.94-2.3c0-.92.32-1.7.94-2.3a3.11 3.11 0 012.29-.93c.43 0 .86.09 1.27.26.4.17.73.4.97.7l.06.07-.68.66-.07-.08c-.38-.46-.89-.68-1.56-.68a2.23 2.23 0 00-2.22 2.3 2.23 2.23 0 002.22 2.3c.64 0 1.18-.21 1.6-.64.25-.25.4-.6.46-1.04h-2.17V9.7h3.1l.01.09a2.8 2.8 0 01-.73 2.54c-.58.6-1.34.91-2.26.91zm35.8-.13h-.95l-2.92-4.68.02.84v3.84h-.95V6.9h1.09l.03.05 2.75 4.4-.03-.83V6.9h.97v6.2zm-16.05 0h-.96V7.83h-1.68V6.9h4.32v.93h-1.68v5.27zm-3.43 0h-.96V6.9h.96v6.2zm-5.42 0h-.97V7.83h-1.68V6.9h4.32v.93h-1.67v5.27zm-3.26-.01h-3.7V6.9h3.7v.93H49.4v1.7h2.46v.93H49.4v1.7h2.73v.93zm17.73-1.44c.43.43.95.65 1.56.65.63 0 1.14-.21 1.56-.65.43-.42.64-.98.64-1.65 0-.67-.21-1.23-.63-1.65a2.14 2.14 0 00-1.57-.65c-.62 0-1.13.21-1.56.65-.42.42-.64.98-.64 1.65 0 .67.22 1.23.64 1.65z"/><path fill="white" fill-rule="evenodd" d="M68.14 21.76A4.19 4.19 0 0063.87 26a4.2 4.2 0 004.27 4.25 4.2 4.2 0 004.26-4.25 4.19 4.19 0 00-4.26-4.25zm0 6.82c-1.3 0-2.4-1.07-2.4-2.58 0-1.53 1.1-2.58 2.4-2.58 1.29 0 2.4 1.05 2.4 2.58 0 1.52-1.11 2.58-2.4 2.58zm-9.31-6.82A4.19 4.19 0 0054.56 26a4.2 4.2 0 004.27 4.25 4.2 4.2 0 004.26-4.25 4.19 4.19 0 00-4.26-4.25zm0 6.82c-1.3 0-2.4-1.07-2.4-2.58 0-1.53 1.11-2.58 2.4-2.58 1.29 0 2.4 1.05 2.4 2.58 0 1.52-1.11 2.58-2.4 2.58zm-11.08-5.53v1.8h4.32a3.8 3.8 0 01-.98 2.27 4.41 4.41 0 01-3.33 1.32 4.74 4.74 0 01-4.73-4.8 4.74 4.74 0 017.98-3.5l1.28-1.28a6.28 6.28 0 00-4.52-1.83 6.7 6.7 0 00-6.7 6.6c0 3.65 3.05 6.6 6.7 6.6 1.97 0 3.44-.64 4.61-1.85a5.97 5.97 0 001.57-4.22c0-.42-.04-.8-.1-1.13h-6.1v.02zm45.3 1.4c-.35-.95-1.43-2.7-3.63-2.7S85.4 23.47 85.4 26c0 2.39 1.8 4.25 4.22 4.25a4.22 4.22 0 003.54-1.88l-1.44-.97a2.42 2.42 0 01-2.1 1.18c-.95 0-1.62-.44-2.06-1.3l5.69-2.35-.2-.47zm-5.8 1.43a2.33 2.33 0 012.23-2.48c.75 0 1.37.37 1.58.9l-3.8 1.58zM82.65 30h1.87V17.5h-1.87V30zm-3.07-7.3h-.07a2.95 2.95 0 00-2.24-.95A4.23 4.23 0 0073.18 26a4.2 4.2 0 004.08 4.24c1 0 1.82-.46 2.24-.97h.07v.61c0 1.62-.87 2.5-2.27 2.5a2.36 2.36 0 01-2.14-1.51l-1.63.68a4.06 4.06 0 003.77 2.5c2.19 0 4.05-1.28 4.05-4.43V22h-1.77v.7h-.01zm-2.14 5.88c-1.3 0-2.37-1.08-2.37-2.57 0-1.5 1.08-2.59 2.37-2.59 1.27 0 2.26 1.1 2.26 2.6.01 1.48-.99 2.56-2.26 2.56zM101.8 17.5h-4.47V30h1.87v-4.73h2.6c2.06 0 4.1-1.5 4.1-3.88s-2.03-3.89-4.1-3.89zm.05 6.02H99.2v-4.29h2.66c1.4 0 2.19 1.16 2.19 2.15 0 .98-.8 2.14-2.2 2.14zm11.53-1.79c-1.35 0-2.75.6-3.33 1.91l1.66.7c.35-.7 1-.93 1.7-.93.96 0 1.94.58 1.96 1.61v.13a4.18 4.18 0 00-1.94-.48c-1.79 0-3.6.98-3.6 2.81 0 1.68 1.46 2.76 3.1 2.76 1.25 0 1.94-.57 2.37-1.22h.07v.96h1.8V25.2c0-2.23-1.66-3.47-3.79-3.47zm-.23 6.85c-.61 0-1.47-.3-1.47-1.07 0-.97 1.07-1.33 1.98-1.33.82 0 1.21.17 1.7.42a2.25 2.25 0 01-2.21 1.98zM123.75 22l-2.14 5.42h-.07L119.32 22h-2.01l3.33 7.58-1.9 4.21h1.95L125.81 22h-2.07zm-16.81 8h1.87V17.5h-1.87V30z" clip-rule="evenodd"/><path fill="url(#paint0_linear)" fill-rule="evenodd" d="M10.43 7.53c-.29.32-.45.8-.45 1.42v22.1c0 .63.16 1.1.46 1.4l.08.07 12.39-12.39v-.27l-12.4-12.4-.08.07z" clip-rule="evenodd"/><path fill="url(#paint1_linear)" fill-rule="evenodd" d="M27.03 24.28l-4.13-4.14v-.28l4.13-4.14.09.06L32 18.56c1.4.78 1.4 2.09 0 2.88l-4.9 2.78-.08.06z" clip-rule="evenodd"/><path fill="url(#paint2_linear)" fill-rule="evenodd" d="M27.12 24.22L22.9 20 10.43 32.47c.46.49 1.22.54 2.08.06l14.61-8.3z" clip-rule="evenodd"/><path fill="url(#paint3_linear)" fill-rule="evenodd" d="M27.12 15.78l-14.61-8.3c-.86-.49-1.62-.42-2.08.07L22.9 20l4.22-4.22z" clip-rule="evenodd"/><path fill="black" fill-rule="evenodd" d="M27.03 24.13l-14.51 8.25c-.81.46-1.53.43-2 0l-.08.08.08.07c.47.42 1.19.46 2 0l14.61-8.3-.1-.1z" clip-rule="evenodd" opacity=".2"/><path fill="black" fill-rule="evenodd" d="M32.01 21.3l-4.99 2.83.09.1L32 21.43c.7-.4 1.04-.92 1.04-1.44-.04.48-.4.93-1.03 1.3z" clip-rule="evenodd" opacity=".12"/><path fill="white" fill-rule="evenodd" d="M12.51 7.62l19.5 11.08c.63.36.99.82 1.04 1.3 0-.52-.34-1.05-1.04-1.44L12.51 7.48c-1.4-.8-2.53-.13-2.53 1.46v.15c0-1.6 1.13-2.26 2.53-1.47z" clip-rule="evenodd" opacity=".25"/></g><defs><linearGradient id="paint0_linear" x1="21.8" x2="1.95" y1="8.71" y2="13.99" gradientUnits="userSpaceOnUse"><stop stop-color="#00A0FF"/><stop offset=".01" stop-color="#00A1FF"/><stop offset=".26" stop-color="#00BEFF"/><stop offset=".51" stop-color="#00D2FF"/><stop offset=".76" stop-color="#00DFFF"/><stop offset="1" stop-color="#00E3FF"/></linearGradient><linearGradient id="paint1_linear" x1="33.83" x2="9.63" y1="20" y2="20" gradientUnits="userSpaceOnUse"><stop stop-color="#FFE000"/><stop offset=".41" stop-color="#FFBD00"/><stop offset=".78" stop-color="#FFA500"/><stop offset="1" stop-color="#FF9C00"/></linearGradient><linearGradient id="paint2_linear" x1="24.82" x2="8.89" y1="22.3" y2="49.11" gradientUnits="userSpaceOnUse"><stop stop-color="#FF3A44"/><stop offset="1" stop-color="#C31162"/></linearGradient><linearGradient id="paint3_linear" x1="7.29" x2="14.4" y1=".18" y2="12.15" gradientUnits="userSpaceOnUse"><stop stop-color="#32A071"/><stop offset=".07" stop-color="#2DA771"/><stop offset=".48" stop-color="#15CF74"/><stop offset=".8" stop-color="#06E775"/><stop offset="1" stop-color="#00F076"/></linearGradient><clipPath id="clip0"><path fill="white" d="M0 0h135.56v40H0z"/></clipPath></defs></svg>
