<svg xmlns="http://www.w3.org/2000/svg" width="42" height="41.99" viewBox="0 0 42 41.99">
    <ellipse cx="2.46" cy="2.95" rx="2.46" ry="2.95" fill="#fff"
        transform="translate(27.52 8.85)"></ellipse>
    <path
        d="M41.55 13.6a23.93 23.93 0 00-5.16-8.1A23.38 23.38 0 0028.33.42a6.6 6.6 0 00-7 1.49L14.9 8.33a6.57 6.57 0 00-1.37 7.28c.34.76.7 1.5 1.1 2.22L.48 31.97A1.64 1.64 0 000 33.13v7.22A1.64 1.64 0 001.64 42h7.22a1.64 1.64 0 001.64-1.64V37.4h2.95a1.64 1.64 0 001.64-1.65V32.8h2.96a1.64 1.64 0 100-3.28h-4.6a1.64 1.64 0 00-1.64 1.64v2.95H8.86a1.64 1.64 0 00-1.64 1.65v2.95H3.28v-4.9l14.55-14.55a1.64 1.64 0 00.24-2.01 26.55 26.55 0 01-1.55-2.98 3.27 3.27 0 01.69-3.62l6.44-6.4a3.31 3.31 0 013.5-.75 20.09 20.09 0 016.92 4.32 20.64 20.64 0 014.42 6.99 3.26 3.26 0 01-.73 3.5l-6.52 6.49a3.3 3.3 0 01-3.61.7 21.3 21.3 0 01-2.96-1.51 1.64 1.64 0 00-1.71 2.8 24.59 24.59 0 003.4 1.74 6.58 6.58 0 007.2-1.4l6.51-6.5a6.54 6.54 0 001.48-7.02z"
        fill="#fff"></path>
</svg>