<svg width="40" height="40" viewBox="0 0 40 40" fill="none" xmlns="http://www.w3.org/2000/svg">
<path d="M36.7382 21.1475C37.4092 22.4265 37.8223 23.8255 37.9541 25.2646C38.0858 26.7037 37.9335 28.1547 37.5059 29.5348C37.0783 30.9149 36.3838 32.197 35.4619 33.3079C34.5401 34.4189 33.4091 35.337 32.1333 36.0097L28.6114 37.8648L27.7493 38.3286C26.1302 39.1718 24.2168 39.2245 22.5557 38.4656L8.79383 32.5629L10.0975 28.7156L18.2768 30.2967L14.04 22.2227L7.19581 9.22619L10.5285 7.47646L17.3622 20.4729L18.9917 19.6086L15.9849 13.8746L19.3071 12.1248L22.3139 17.8589L23.954 16.9946L21.6411 12.5675L24.9633 10.8073L27.2762 15.2343L28.9268 14.3594L27.3288 11.3132L30.651 9.57403L32.249 12.6202L36.7276 21.1475H36.7382ZM4.95648 10.9654C4.3313 10.3382 3.88547 9.5543 3.66552 8.69546C3.44557 7.83663 3.45955 6.93435 3.70602 6.08278C3.95249 5.23122 4.4224 4.46158 5.06672 3.85419C5.71104 3.24679 6.50615 2.82391 7.36907 2.62967C8.23199 2.43543 9.1311 2.47695 9.97256 2.74989C10.814 3.02284 11.567 3.51721 12.1529 4.18141C12.7388 4.84561 13.1361 5.6553 13.3035 6.52598C13.4708 7.39665 13.402 8.2964 13.1043 9.13133L13.9769 10.7756C14.6966 9.56807 15.0036 8.15798 14.8512 6.75956C14.6988 5.36113 14.0953 4.05078 13.1325 3.02751C12.1697 2.00424 10.9001 1.32396 9.51649 1.09C8.13292 0.856034 6.71099 1.08117 5.46666 1.73121C4.22233 2.38125 3.2236 3.42068 2.62214 4.69162C2.02068 5.96257 1.84936 7.39559 2.1342 8.77305C2.41904 10.1505 3.14448 11.3971 4.20034 12.3236C5.2562 13.25 6.58478 13.8057 7.98431 13.9062L7.11171 12.2408C6.29675 12.012 5.55443 11.5764 4.95648 10.9759V10.9654Z" fill="white"/>
</svg>
