<svg width="40" height="40" viewBox="0 0 40 40" fill="none" xmlns="http://www.w3.org/2000/svg">
<path d="M20.218 1.01024C17.7155 0.951459 15.2266 1.39925 12.8977 2.32728C10.5687 3.25532 8.44663 4.64488 6.65619 6.4143C4.86574 8.18372 3.44304 10.2973 2.47171 12.6308C1.50037 14.9643 1 17.4707 1 20.0026C1 22.5345 1.50037 25.0408 2.47171 27.3743C3.44304 29.7078 4.86574 31.8214 6.65619 33.5908C8.44663 35.3602 10.5687 36.7498 12.8977 37.6778C15.2266 38.6059 17.7155 39.0537 20.218 38.9949C25.1993 38.9949 29.9766 36.9934 33.4989 33.4307C37.0212 29.8679 39 25.0359 39 19.9974C39 14.959 37.0212 10.1269 33.4989 6.56422C29.9766 3.00151 25.1993 1 20.218 1V1.01024ZM20.218 4.00067C27.4676 4.00067 33.5122 8.95742 35.3854 15.6859H32.2466C31.4109 14.1609 30.1873 12.8897 28.7026 12.0038C27.2179 11.1179 25.5261 10.6495 23.8023 10.6472H16.7249C13.0799 10.6472 9.9411 12.6955 8.28059 15.6859H5.30382C5.2127 15.6859 5.14182 15.7269 5.0507 15.7371C5.95971 12.371 7.93593 9.39973 10.6759 7.27954C13.4159 5.15934 16.7682 4.00743 20.218 4.00067V4.00067ZM16.7553 12.7979H23.6808C25.5149 12.7979 27.2738 13.5348 28.5707 14.8466C29.8676 16.1584 30.5962 17.9375 30.5962 19.7926V19.9053L30.414 20.2944L30.0191 21.042C29.6031 21.8366 29.1364 22.6029 28.6218 23.3361C27.0828 25.4867 25.4324 26.7976 23.6808 26.7976H16.7451C14.9935 26.7976 13.3431 25.4867 11.8041 23.3361C11.0388 22.2591 10.3776 21.1102 9.82972 19.9053V19.8029C9.82839 18.8834 10.0063 17.9728 10.3532 17.1229C10.7002 16.2731 11.2093 15.5008 11.8516 14.8502C12.4939 14.1996 13.2567 13.6835 14.0964 13.3313C14.9361 12.9791 15.8361 12.7979 16.7451 12.7979H16.7553ZM16.7553 13.8015C13.5152 13.8015 10.8827 16.4437 10.8422 19.7209L10.903 19.8541C11.3957 20.8671 11.9715 21.8365 12.6242 22.7523C13.9911 24.6572 15.4086 25.794 16.7553 25.794H23.6808C25.0274 25.794 26.4449 24.6674 27.8118 22.7523C28.467 21.8382 29.0429 20.8685 29.5331 19.8541L29.5938 19.7209C29.5752 18.1462 28.9443 16.6422 27.8377 15.5344C26.7311 14.4266 25.2378 13.8041 23.6808 13.8015H16.7451H16.7553ZM20.218 15.5118C20.7845 15.5118 21.3453 15.6246 21.8686 15.8439C22.392 16.0631 22.8674 16.3845 23.268 16.7896C23.6685 17.1947 23.9862 17.6757 24.203 18.205C24.4197 18.7343 24.5313 19.3016 24.5313 19.8745C24.5313 20.4475 24.4197 21.0148 24.203 21.5441C23.9862 22.0734 23.6685 22.5544 23.268 22.9595C22.8674 23.3646 22.392 23.686 21.8686 23.9052C21.3453 24.1245 20.7845 24.2373 20.218 24.2373C19.0741 24.2373 17.977 23.7777 17.1681 22.9595C16.3592 22.1413 15.9048 21.0316 15.9048 19.8745C15.9048 18.7175 16.3592 17.6078 17.1681 16.7896C17.977 15.9714 19.0741 15.5118 20.218 15.5118V15.5118ZM20.218 16.5154C19.3372 16.5154 18.4925 16.8693 17.8697 17.4993C17.2469 18.1292 16.897 18.9837 16.897 19.8745C16.897 20.7654 17.2469 21.6198 17.8697 22.2498C18.4925 22.8798 19.3372 23.2337 20.218 23.2337C21.0988 23.2337 21.9435 22.8798 22.5663 22.2498C23.1892 21.6198 23.539 20.7654 23.539 19.8745C23.539 18.9837 23.1892 18.1292 22.5663 17.4993C21.9435 16.8693 21.0988 16.5154 20.218 16.5154V16.5154ZM4.59507 22.0457C4.82795 22.0969 5.04057 22.1891 5.2937 22.1891H9.4551C9.62069 23.5078 10.1078 24.7641 10.8726 25.8452L7.95659 30.0133C6.12511 27.7255 4.96097 24.9661 4.59507 22.0457V22.0457ZM35.8005 22.1071C35.4207 25.012 34.2498 27.7529 32.4187 30.0236L29.5634 25.9271C30.3701 24.8308 30.8859 23.544 31.062 22.1891H35.436C35.5676 22.1891 35.679 22.1276 35.8005 22.1071V22.1071ZM14.7606 28.7434C15.5706 29.0302 16.4414 29.2145 17.3526 29.2145H23.1745C24.0453 29.2145 24.8553 29.0404 25.6451 28.7742L28.8547 33.3725C26.2825 35.0807 23.2718 35.9892 20.1947 35.9855C17.1177 35.9819 14.1091 35.0663 11.5409 33.352L14.7606 28.7434V28.7434Z" fill="white"/>
</svg>
