<?xml version="1.0" encoding="UTF-8"?>
<svg width="25px" height="20px" viewBox="0 0 25 20" version="1.1" xmlns="http://www.w3.org/2000/svg" xmlns:xlink="http://www.w3.org/1999/xlink">
    <!-- Generator: Sketch 48.2 (47327) - http://www.bohemiancoding.com/sketch -->
    <title>Twitter Copy 2</title>
    <desc>Created with Sketch.</desc>
    <defs></defs>
    <g id="footer" stroke="none" stroke-width="1" fill="none" fill-rule="evenodd" transform="translate(-180.000000, -258.000000)" stroke-linecap="round" stroke-linejoin="round">
        <path d="M204,259.341686 C201.909091,260.366812 200.859972,260.165366 199.818182,260.366743 C198.983635,259.494717 197.72812,259 196.33411,259 C193.54609,259 191.68741,261.078465 191.68741,263.556039 C191.68741,263.556039 191.68741,264.011643 192.15208,264.922851 C188.349221,264.735142 184.651377,262.625696 182.39401,259.911208 C181.99997,260.573656 181.933057,261.367318 181.933057,262.189227 C181.933057,263.746482 182.85868,264.922851 183.78802,265.834059 C183.78802,265.834059 183.32335,266.289663 181.933057,265.834059 C181.933057,268.008201 183.553826,269.522628 185.6467,269.934494 C185.262882,270.03655 184.25269,270.390098 183.32335,269.934494 C183.906046,271.715906 185.502652,273.087273 187.50538,273.123722 C185.939442,274.327427 184.077045,274.946137 181.933057,274.946137 L181,274.946137 C183.025032,276.219095 185.431093,277 188.014658,277 C196.430761,277 201.212121,269.712829 201.212121,263.783599 C202.606061,263.100228 204,260.366812 204,259.341686 Z" id="Twitter-Copy-2" stroke="#1F2667" stroke-width="2"></path>
    </g>
</svg>