<?xml version="1.0" encoding="UTF-8"?> <svg xmlns="http://www.w3.org/2000/svg" xmlns:xlink="http://www.w3.org/1999/xlink" width="274px" height="419px" viewBox="0 0 274 419"><!-- Generator: Sketch 52.6 (67491) - http://www.bohemiancoding.com/sketch --><title>Category</title><desc>Created with Sketch.</desc><g id="Page-1" stroke="none" stroke-width="1" fill="none" fill-rule="evenodd"><g id="Rating"><g id="Category"><rect id="Rectangle" stroke="#000000" stroke-width="15" fill="#FFFFFF" x="7.5" y="7.5" width="259" height="404"></rect><rect id="Rectangle" stroke="#231F20" stroke-width="15" fill="#FFFFFF" x="7.5" y="91.5" width="259" height="320"></rect><rect id="Rectangle" fill="#231F20" x="0" y="353" width="274" height="66"></rect><g id="ESRB" transform="translate(12.000000, 367.000000)" fill="#FFFFFF"><path d="M93.6335,10.9845 C93.3185,9.8495 92.2015,9.0975 90.7585,8.7035 C89.3445,8.2665 87.5985,8.0795 85.6205,8.0795 C81.2535,8.0795 79.3005,8.7895 79.3005,10.0445 C79.3005,15.0425 114.1835,11.9065 114.1835,24.1955 C114.1835,32.0255 102.4585,35.8405 85.7905,35.8405 C69.7785,35.8405 59.3395,30.6305 58.9145,24.5405 L77.9545,24.5405 C78.3845,25.7485 79.5615,26.6215 81.2535,27.1975 C82.8555,27.7495 84.9355,28.0405 86.9125,28.0405 C91.8805,28.0405 95.1795,27.1615 95.1795,25.5655 C95.1795,20.4465 60.2615,23.9525 60.2615,11.0815 C60.2615,3.8995 71.3915,0.3095 86.5675,0.3095 C103.3985,0.3095 111.0775,5.0765 112.5395,10.9845 L93.6335,10.9845 Z" id="Fill-6"></path><path d="M143.9582,23.1584 L143.9582,34.9304 L124.0762,34.9304 L124.0762,1.1394 L152.7292,1.1394 C172.9272,1.1394 179.5992,4.2394 179.5992,10.8024 C179.5992,14.7084 176.4872,17.9474 169.4092,19.0814 C175.8082,20.3804 179.6842,21.1744 179.6842,27.9854 C179.6842,32.3834 179.4292,33.9114 181.7882,33.9114 L181.7882,34.9304 L161.6332,34.9304 C161.1352,34.1724 160.6442,32.0254 160.6442,29.0294 C160.6442,24.5954 159.2922,23.1584 150.0182,23.1584 L143.9582,23.1584 Z M143.9582,15.8004 L151.7702,15.8004 C157.9202,15.8004 161.2332,14.9024 161.2332,12.5734 C161.2332,10.2014 157.8662,9.0434 153.2202,9.0434 L143.9582,9.0434 L143.9582,15.8004 Z" id="Fill-8"></path><path d="M191.8146,34.9308 L191.8146,1.1398 L220.8136,1.1398 C234.4666,1.1398 245.3416,2.9838 245.3416,9.6618 C245.3416,13.1558 241.2846,15.6908 237.4206,17.0008 C243.9836,17.9478 247.5016,21.1188 247.5016,24.7528 C247.5016,32.2678 237.1716,34.9308 221.3766,34.9308 L191.8146,34.9308 Z M211.6786,20.8228 L211.6786,27.0448 L220.3586,27.0448 C225.2896,27.0448 228.9776,26.4748 228.9776,23.9518 C228.9776,21.0108 224.3556,20.8228 218.0056,20.8228 L211.6786,20.8228 Z M211.6786,9.0428 L211.6786,14.7078 L219.9636,14.7078 C223.9316,14.7078 226.7996,13.6838 226.7996,11.7478 C226.7996,9.0978 222.8876,9.0428 218.7026,9.0428 L211.6786,9.0428 Z" id="Fill-10"></path><polygon id="Fill-5" points="0.9597 34.9308 0.9597 1.1398 50.4417 1.1398 50.4417 9.0428 20.8357 9.0428 20.8357 13.8768 45.8867 13.8768 45.8867 21.7628 20.8357 21.7628 20.8357 27.0448 51.5877 27.0448 51.5877 34.9308"></polygon></g><g id="Everyone" transform="translate(19.000000, 28.000000)" fill="#231F20"><polygon id="Fill-14" points="0.862 40.6227 0.862 1.4157 22.012 1.4157 22.012 7.4507 8.966 7.4507 8.966 17.1067 20.987 17.1067 20.987 23.1367 8.966 23.1367 8.966 34.5877 22.43 34.5877 22.43 40.6227"></polygon><polygon id="Fill-16" points="24.572 1.4157 33.009 1.4157 39.008 29.9237 39.117 29.9237 45.88 1.4157 53.88 1.4157 43.623 40.6227 34.137 40.6227"></polygon><polygon id="Fill-18" points="57.5373 40.6227 57.5373 1.4157 78.6753 1.4157 78.6753 7.4507 65.6353 7.4507 65.6353 17.1067 77.6563 17.1067 77.6563 23.1367 65.6353 23.1367 65.6353 34.5877 79.1003 34.5877 79.1003 40.6227"></polygon><path d="M92.2985,18.3444 L95.8895,18.3444 C96.6775,18.3444 97.3325,18.1744 97.8845,17.8164 C98.4245,17.4584 98.8495,16.9854 99.1705,16.4334 C99.4855,15.8694 99.7165,15.2394 99.8385,14.5594 C99.9655,13.8804 100.0195,13.2134 100.0195,12.6004 C100.0195,10.7254 99.6615,9.3984 98.9275,8.6154 C98.1945,7.8394 97.1745,7.4504 95.8895,7.4504 L92.2985,7.4504 L92.2985,18.3444 Z M92.2985,40.6224 L84.2075,40.6224 L84.2075,1.4154 L99.1705,1.4154 C101.9545,1.4154 104.1625,2.2884 105.8065,4.0234 C107.4255,5.7644 108.2385,8.3244 108.2385,11.6664 C108.2385,14.1654 107.6925,16.2944 106.5945,18.0344 C105.5085,19.7574 103.6585,20.8614 101.0505,21.2924 L101.0505,21.3954 C101.4755,21.4684 102.0755,21.5714 102.8705,21.7224 C103.6585,21.8684 104.4355,22.1964 105.1995,22.7054 C105.9695,23.2024 106.6435,23.9614 107.2195,24.9554 C107.7895,25.9564 108.0745,27.3454 108.0745,29.1104 C108.0745,29.7224 108.0865,30.5904 108.1055,31.7184 C108.1175,32.8344 108.1595,33.9754 108.2385,35.1814 C108.3175,36.3764 108.4145,37.4804 108.5295,38.4994 C108.6565,39.5064 108.8085,40.2104 108.9965,40.6224 L101.0505,40.6224 C100.5055,39.4094 100.2325,38.1664 100.2195,36.8564 C100.2075,35.5704 100.1895,34.2784 100.1895,33.0044 C100.1895,31.8584 100.1775,30.7484 100.1655,29.7044 C100.1525,28.6494 99.9655,27.7404 99.6195,26.9504 C99.2795,26.1874 98.7155,25.5624 97.9085,25.0894 C97.1085,24.6214 95.9375,24.3854 94.3975,24.3854 L92.2985,24.3854 L92.2985,40.6224 Z" id="Fill-20"></path><polygon id="Fill-22" points="120.527 27.0485 110.374 1.4155 119.235 1.4155 125.027 17.9745 131.202 1.4155 139.457 1.4155 128.636 27.0485 128.636 40.6225 120.527 40.6225"></polygon><path d="M156.216,35.3942 C157.357,35.3942 158.272,35.1222 158.951,34.5572 C159.618,33.9992 160.14,33.1322 160.504,31.9732 C160.868,30.8212 161.087,29.3342 161.208,27.5092 C161.317,25.6712 161.372,23.5242 161.372,21.0252 C161.372,18.5262 161.317,16.3552 161.208,14.5352 C161.087,12.7042 160.868,11.2172 160.504,10.0592 C160.14,8.8882 159.618,8.0272 158.951,7.4752 C158.272,6.9112 157.357,6.6322 156.216,6.6322 C155.063,6.6322 154.154,6.9112 153.475,7.4752 C152.789,8.0272 152.274,8.8882 151.928,10.0592 C151.558,11.2172 151.334,12.7042 151.218,14.5352 C151.109,16.3552 151.054,18.5262 151.054,21.0252 C151.054,23.5242 151.109,25.6712 151.218,27.5092 C151.334,29.3342 151.558,30.8212 151.928,31.9732 C152.274,33.1322 152.789,33.9992 153.475,34.5572 C154.154,35.1222 155.063,35.3942 156.216,35.3942 M156.216,41.2592 C152.886,41.2592 150.32,40.6952 148.483,39.5612 C146.657,38.4212 145.335,36.8922 144.498,34.9882 C143.685,33.1022 143.206,30.9302 143.06,28.5102 C142.927,26.0782 142.842,23.5842 142.842,21.0252 C142.842,18.3992 142.927,15.8942 143.06,13.4562 C143.206,11.0472 143.685,8.8882 144.498,7.0142 C145.335,5.1222 146.657,3.6172 148.483,2.4772 C150.32,1.3312 152.886,0.7672 156.216,0.7672 C159.534,0.7672 162.118,1.3312 163.943,2.4772 C165.763,3.6172 167.091,5.1222 167.917,7.0142 C168.729,8.8882 169.208,11.0472 169.354,13.4562 C169.505,15.8942 169.572,18.3992 169.572,21.0252 C169.572,23.5842 169.505,26.0782 169.354,28.5102 C169.208,30.9302 168.729,33.1022 167.917,34.9882 C167.091,36.8922 165.763,38.4212 163.943,39.5612 C162.118,40.6952 159.534,41.2592 156.216,41.2592" id="Fill-24"></path><polygon id="Fill-26" points="176.0622 40.6227 176.0622 1.4157 187.0172 1.4157 197.3032 28.5527 197.4182 28.5527 197.4182 1.4157 204.9942 1.4157 204.9942 40.6227 194.3132 40.6227 183.7412 11.9517 183.6262 11.9517 183.6262 40.6227"></polygon><polygon id="Fill-28" points="211.7878 40.6227 211.7878 1.4157 232.9498 1.4157 232.9498 7.4507 219.9098 7.4507 219.9098 17.1067 231.9188 17.1067 231.9188 23.1367 219.9098 23.1367 219.9098 34.5877 233.3628 34.5877 233.3628 40.6227"></polygon></g><polygon id="E" fill="#231F20" points="31.3317 157.5241 180.4927 112.9671 195.4437 160.2051 120.7177 182.5131 126.8447 201.8501 195.8807 181.2391 210.7957 228.5071 141.8077 249.0821 148.2547 269.4371 225.4197 246.3761 240.3767 293.6021 88.7897 338.8931"></polygon></g></g></g></svg> 