<?xml version="1.0" encoding="UTF-8"?>
<svg width="30px" height="37px" viewBox="0 0 30 37" version="1.1" xmlns="http://www.w3.org/2000/svg" xmlns:xlink="http://www.w3.org/1999/xlink">
    <g id="UI-doc" stroke="none" stroke-width="1" fill="none" fill-rule="evenodd">
        <g id="UI" transform="translate(-116.000000, -2146.000000)">
            <g id="Group-27" transform="translate(116.000000, 2146.000000)">
                <polygon id="Fill-1" fill="#A5C400" points="0 30.2287 29.975 30.2287 29.975 0.2547 0 0.2547"></polygon>
                <path d="M8.9331,4.4495 L20.7441,4.4495 C19.4251,11.2245 17.3261,18.2995 17.2061,25.9715 L12.3501,25.9715 C12.6501,20.0965 13.9391,14.2815 15.3481,8.5865 L8.9331,8.5865 L8.9331,4.4495 Z" id="Fill-2" fill="#FFFFFF"></path>
                <path d="M0.001,36.8237 L29.975,36.8237 L29.975,0.2557 L0.001,0.2557 L0.001,36.8237 Z M0.6,29.6287 L29.375,29.6287 L29.375,0.8537 L0.6,0.8537 L0.6,29.6287 Z" id="Fill-4" fill="#000000"></path>
                <path d="M28.7754,3.1785 L28.4974,3.1785 L28.4974,1.8205 L28.4884,1.8205 L28.0104,3.1785 L27.7844,3.1785 L27.3304,1.8205 L27.3214,1.8205 L27.3214,3.1785 L27.0434,3.1785 L27.0434,1.4545 L27.4854,1.4545 L27.9154,2.7375 L27.9224,2.7375 L28.3414,1.4545 L28.7754,1.4545 L28.7754,3.1785 Z M26.8434,1.4545 L26.8434,1.6765 L26.3694,1.6765 L26.3694,3.1785 L26.0904,3.1785 L26.0904,1.6765 L25.6174,1.6765 L25.6174,1.4545 L26.8434,1.4545 Z" id="Fill-5" fill="#000000"></path>
                <polygon id="Fill-6" fill="#FFFFFF" points="1.9043 34.5765 2.4123 34.5765 2.8803 32.3035 2.8903 32.3035 3.3783 34.5765 3.8563 34.5765 4.5143 31.7935 4.0583 31.7935 3.6273 34.0685 3.6163 34.0685 3.1553 31.7935 2.6413 31.7935 2.1683 34.0685 2.1583 34.0685 1.7123 31.7935 1.2553 31.7935"></polygon>
                <polygon id="Fill-7" fill="#FFFFFF" points="5.2695 34.5765 5.7785 34.5765 6.2455 32.3035 6.2565 32.3035 6.7445 34.5765 7.2205 34.5765 7.8805 31.7935 7.4235 31.7935 6.9935 34.0685 6.9815 34.0685 6.5195 31.7935 6.0065 31.7935 5.5345 34.0685 5.5235 34.0685 5.0775 31.7935 4.6205 31.7935"></polygon>
                <polygon id="Fill-8" fill="#FFFFFF" points="8.6343 34.5765 9.1433 34.5765 9.6103 32.3035 9.6203 32.3035 10.1093 34.5765 10.5863 34.5765 11.2453 31.7935 10.7893 31.7935 10.3583 34.0685 10.3473 34.0685 9.8853 31.7935 9.3713 31.7935 8.8993 34.0685 8.8883 34.0685 8.4423 31.7935 7.9843 31.7935"></polygon>
                <polygon id="Fill-9" fill="#FFFFFF" points="11.491 34.5757 11.969 34.5757 11.969 34.0267 11.491 34.0267"></polygon>
                <g id="Group-16" transform="translate(12.000000, 30.747700)" fill="#FFFFFF">
                    <path d="M0.6387,4.7418 L1.0747,4.7418 L1.0747,3.5128 L1.0847,3.5128 C1.1837,3.7508 1.4177,3.9008 1.6667,3.9008 C2.3887,3.9008 2.5757,3.0178 2.5757,2.3858 C2.5757,1.5598 2.3267,0.9728 1.6667,0.9728 C1.3657,0.9728 1.1217,1.1808 1.0647,1.3888 L1.0547,1.3888 L1.0547,1.0458 L0.6387,1.0458 L0.6387,4.7418 Z M1.0487,2.4378 C1.0487,1.8038 1.1267,1.3468 1.6097,1.3468 C2.0147,1.3468 2.1187,1.7738 2.1187,2.3858 C2.1187,3.1018 2.0147,3.5268 1.6097,3.5268 C1.1427,3.5268 1.0487,2.9768 1.0487,2.4378 Z" id="Fill-10"></path>
                    <path d="M4.8701,2.4889 L4.8701,2.3129 C4.8701,1.7159 4.7921,0.9729 3.9411,0.9729 C3.0851,0.9729 2.9491,1.7779 2.9491,2.4739 C2.9491,3.4289 3.2351,3.9009 3.9151,3.9009 C4.6731,3.9009 4.8491,3.2109 4.8491,2.9149 L4.4141,2.9149 C4.4141,3.1229 4.3551,3.5589 3.9411,3.5589 C3.4071,3.5589 3.4071,2.9149 3.4071,2.4889 L4.8701,2.4889 Z M3.4221,2.1459 L3.4221,2.0429 C3.4221,1.8779 3.4741,1.3159 3.9311,1.3159 C4.3141,1.3159 4.4141,1.6839 4.4141,1.9959 L4.4141,2.1459 L3.4221,2.1459 Z" id="Fill-12"></path>
                    <path d="M7.1807,1.0455 L6.7657,1.0455 L6.7657,1.3995 L6.7537,1.3995 C6.6977,1.1815 6.4537,0.9735 6.1527,0.9735 C5.4467,0.9735 5.2447,1.6845 5.2447,2.4385 C5.2447,2.8065 5.2957,3.8285 6.1067,3.8285 C6.3817,3.8285 6.6407,3.6885 6.7347,3.4545 L6.7447,3.4545 L6.7447,3.8185 C6.7447,4.0105 6.7657,4.4415 6.2037,4.4415 C5.9767,4.4415 5.7787,4.3425 5.7587,4.0885 L5.3227,4.0885 C5.3937,4.7835 6.0647,4.7835 6.2347,4.7835 C6.7957,4.7835 7.1807,4.4835 7.1807,3.6515 L7.1807,1.0455 Z M6.2097,1.3475 C6.6767,1.3475 6.7707,1.8975 6.7707,2.4385 C6.7707,3.0075 6.6767,3.4545 6.2047,3.4545 C5.7697,3.4545 5.7017,2.8885 5.7017,2.4385 C5.7017,1.7745 5.8047,1.3475 6.2097,1.3475 Z" id="Fill-14"></path>
                </g>
                <path d="M19.779,31.3687 L20.215,31.3687 L20.215,30.8697 L19.779,30.8697 L19.779,31.3687 Z M19.779,34.5757 L20.215,34.5757 L20.215,31.7927 L19.779,31.7927 L19.779,34.5757 Z" id="Fill-17" fill="#FFFFFF"></path>
                <polygon id="Fill-18" fill="#FFFFFF" points="20.909 34.5757 21.387 34.5757 21.387 34.0267 20.909 34.0267"></polygon>
                <path d="M22.083,31.3687 L22.52,31.3687 L22.52,30.8697 L22.083,30.8697 L22.083,31.3687 Z M22.083,34.5757 L22.52,34.5757 L22.52,31.7927 L22.083,31.7927 L22.083,34.5757 Z" id="Fill-19" fill="#FFFFFF"></path>
                <g id="Group-26" transform="translate(23.000000, 30.747700)" fill="#FFFFFF">
                    <path d="M0.1172,3.8288 L0.5522,3.8288 L0.5522,1.9078 C0.5522,1.5028 0.8692,1.3478 1.1022,1.3478 C1.4972,1.3478 1.5132,1.6948 1.5132,1.9078 L1.5132,3.8288 L1.9492,3.8288 L1.9492,1.8548 C1.9492,1.5288 1.9492,0.9738 1.2162,0.9738 C0.9472,0.9738 0.6562,1.1188 0.5422,1.3738 L0.5312,1.3738 L0.5312,1.0458 L0.1172,1.0458 L0.1172,3.8288 Z" id="Fill-20"></path>
                    <path d="M2.6504,3.8288 L3.0884,3.8288 L3.0884,1.3898 L3.5644,1.3898 L3.5644,1.0458 L3.0884,1.0458 L3.0884,0.7198 C3.0884,0.5268 3.1804,0.4548 3.3684,0.4548 L3.5694,0.4548 L3.5694,0.0808 L3.2534,0.0808 C2.8324,0.0808 2.6504,0.2988 2.6504,0.7198 L2.6504,1.0458 L2.2464,1.0458 L2.2464,1.3898 L2.6504,1.3898 L2.6504,3.8288 Z" id="Fill-22"></path>
                    <path d="M4.7217,3.5592 C4.2757,3.5592 4.1887,3.0382 4.1887,2.4382 C4.1887,1.8342 4.2827,1.3162 4.7217,1.3162 C5.1897,1.3162 5.2787,1.8342 5.2787,2.4382 C5.2787,3.0382 5.1847,3.5592 4.7217,3.5592 M3.7297,2.4382 C3.7297,3.2202 3.9277,3.9012 4.7327,3.9012 C5.5327,3.9012 5.7337,3.2202 5.7337,2.4382 C5.7337,1.6532 5.5357,0.9732 4.7327,0.9732 C3.9337,0.9732 3.7297,1.6532 3.7297,2.4382" id="Fill-24"></path>
                </g>
            </g>
        </g>
    </g>
</svg>
