<?xml version="1.0" encoding="UTF-8"?>
<svg width="30px" height="37px" viewBox="0 0 30 37" version="1.1" xmlns="http://www.w3.org/2000/svg" xmlns:xlink="http://www.w3.org/1999/xlink">
    <g id="UI-doc" stroke="none" stroke-width="1" fill="none" fill-rule="evenodd">
        <g id="UI" transform="translate(-208.000000, -2146.000000)">
            <g id="Group-30" transform="translate(208.000000, 2146.000000)">
                <polygon id="Fill-1" fill="#F5A200" points="0 30.229 29.975 30.229 29.975 0.254 0 0.254"></polygon>
                <g id="Group-6" transform="translate(2.000000, 3.748000)" fill="#FFFFFF">
                    <path d="M8.5523,22.2246 L3.8753,22.2246 L3.8753,5.9776 L0.8183,5.9776 L0.8183,3.2196 C2.9163,3.2496 4.2953,2.3796 5.0453,0.3416 L8.5523,0.3416 L8.5523,22.2246 Z" id="Fill-2"></path>
                    <path d="M19.0723,12.6924 C18.1433,12.6924 17.7233,13.6224 17.7233,15.5994 C17.7233,17.6084 18.1433,18.5064 19.0723,18.5064 C20.0613,18.5064 20.4813,17.6084 20.4813,15.5994 C20.4813,13.6224 20.0613,12.6924 19.0723,12.6924 Z M17.7233,9.8144 C18.6223,8.9744 19.2823,8.3754 20.7813,8.3754 C23.5683,8.3754 25.0373,10.7434 25.0373,15.1504 C25.0373,19.2874 23.9583,22.5854 19.0123,22.5854 C15.5353,22.5854 13.7663,20.8154 13.1373,17.4584 C12.8673,15.9894 12.8373,14.1904 12.8373,11.7334 C12.8673,8.7344 12.8973,6.9364 13.1673,5.4674 C13.7973,2.1104 15.5643,0.3414 19.0423,0.3414 C22.1893,0.3414 24.7383,2.2904 24.7383,5.5884 L24.7383,6.6974 L20.3613,6.6974 L20.3613,6.1874 C20.3613,4.6884 19.7913,4.2984 19.0423,4.2984 C18.1433,4.4194 17.7533,5.2584 17.7233,6.4564 L17.7233,9.8144 Z" id="Fill-4"></path>
                </g>
                <path d="M0,36.825 L29.975,36.825 L29.975,0.255 L0,0.255 L0,36.825 Z M0.599,29.63 L29.374,29.63 L29.374,0.854 L0.599,0.854 L0.599,29.63 Z" id="Fill-7" fill="#000000"></path>
                <path d="M28.7754,3.1787 L28.4974,3.1787 L28.4974,1.8207 L28.4884,1.8207 L28.0104,3.1787 L27.7844,3.1787 L27.3294,1.8207 L27.3214,1.8207 L27.3214,3.1787 L27.0434,3.1787 L27.0434,1.4537 L27.4854,1.4537 L27.9154,2.7377 L27.9224,2.7377 L28.3414,1.4537 L28.7754,1.4537 L28.7754,3.1787 Z M26.8424,1.4537 L26.8424,1.6767 L26.3694,1.6767 L26.3694,3.1787 L26.0904,3.1787 L26.0904,1.6767 L25.6164,1.6767 L25.6164,1.4537 L26.8424,1.4537 Z" id="Fill-8" fill="#000000"></path>
                <polygon id="Fill-9" fill="#FFFFFF" points="1.9033 34.5761 2.4123 34.5761 2.8793 32.3031 2.8903 32.3031 3.3783 34.5761 3.8553 34.5761 4.5133 31.7931 4.0583 31.7931 3.6273 34.0681 3.6163 34.0681 3.1543 31.7931 2.6413 31.7931 2.1683 34.0681 2.1573 34.0681 1.7113 31.7931 1.2543 31.7931"></polygon>
                <polygon id="Fill-10" fill="#FFFFFF" points="5.2691 34.5761 5.7771 34.5761 6.2451 32.3031 6.2561 32.3031 6.7441 34.5761 7.2201 34.5761 7.8801 31.7931 7.4231 31.7931 6.9931 34.0681 6.9811 34.0681 6.5191 31.7931 6.0061 31.7931 5.5341 34.0681 5.5231 34.0681 5.0771 31.7931 4.6201 31.7931"></polygon>
                <polygon id="Fill-11" fill="#FFFFFF" points="8.6338 34.5761 9.1428 34.5761 9.6098 32.3031 9.6198 32.3031 10.1088 34.5761 10.5858 34.5761 11.2448 31.7931 10.7888 31.7931 10.3578 34.0681 10.3478 34.0681 9.8848 31.7931 9.3718 31.7931 8.8988 34.0681 8.8878 34.0681 8.4418 31.7931 7.9848 31.7931"></polygon>
                <polygon id="Fill-12" fill="#FFFFFF" points="11.492 34.576 11.968 34.576 11.968 34.027 11.492 34.027"></polygon>
                <g id="Group-19" transform="translate(12.000000, 30.748000)" fill="#FFFFFF">
                    <path d="M0.6382,4.7422 L1.0742,4.7422 L1.0742,3.5132 L1.0852,3.5132 C1.1832,3.7512 1.4172,3.9012 1.6662,3.9012 C2.3882,3.9012 2.5752,3.0182 2.5752,2.3852 C2.5752,1.5602 2.3252,0.9722 1.6662,0.9722 C1.3652,0.9722 1.1212,1.1812 1.0642,1.3882 L1.0542,1.3882 L1.0542,1.0452 L0.6382,1.0452 L0.6382,4.7422 Z M1.0482,2.4372 C1.0482,1.8042 1.1262,1.3462 1.6092,1.3462 C2.0142,1.3462 2.1182,1.7732 2.1182,2.3852 C2.1182,3.1022 2.0142,3.5272 1.6092,3.5272 C1.1422,3.5272 1.0482,2.9772 1.0482,2.4372 Z" id="Fill-13"></path>
                    <path d="M4.8692,2.4893 L4.8692,2.3133 C4.8692,1.7163 4.7922,0.9733 3.9412,0.9733 C3.0842,0.9733 2.9492,1.7783 2.9492,2.4743 C2.9492,3.4293 3.2352,3.9013 3.9152,3.9013 C4.6732,3.9013 4.8492,3.2113 4.8492,2.9153 L4.4132,2.9153 C4.4132,3.1223 4.3552,3.5593 3.9412,3.5593 C3.4072,3.5593 3.4072,2.9153 3.4072,2.4893 L4.8692,2.4893 Z M3.4222,2.1463 L3.4222,2.0423 C3.4222,1.8783 3.4732,1.3163 3.9312,1.3163 C4.3142,1.3163 4.4132,1.6833 4.4132,1.9963 L4.4132,2.1463 L3.4222,2.1463 Z" id="Fill-15"></path>
                    <path d="M7.1797,1.0449 L6.7647,1.0449 L6.7647,1.3989 L6.7537,1.3989 C6.6977,1.1809 6.4537,0.9729 6.1527,0.9729 C5.4467,0.9729 5.2447,1.6849 5.2447,2.4379 C5.2447,2.8069 5.2957,3.8279 6.1067,3.8279 C6.3817,3.8279 6.6407,3.6879 6.7337,3.4549 L6.7447,3.4549 L6.7447,3.8179 C6.7447,4.0109 6.7647,4.4409 6.2037,4.4409 C5.9767,4.4409 5.7787,4.3429 5.7577,4.0889 L5.3217,4.0889 C5.3937,4.7839 6.0647,4.7839 6.2347,4.7839 C6.7957,4.7839 7.1797,4.4829 7.1797,3.6519 L7.1797,1.0449 Z M6.2097,1.3469 C6.6767,1.3469 6.7707,1.8979 6.7707,2.4379 C6.7707,3.0079 6.6767,3.4549 6.2037,3.4549 C5.7697,3.4549 5.7007,2.8889 5.7007,2.4379 C5.7007,1.7739 5.8047,1.3469 6.2097,1.3469 Z" id="Fill-17"></path>
                </g>
                <path d="M19.778,31.369 L20.214,31.369 L20.214,30.87 L19.778,30.87 L19.778,31.369 Z M19.778,34.576 L20.214,34.576 L20.214,31.793 L19.778,31.793 L19.778,34.576 Z" id="Fill-20" fill="#FFFFFF"></path>
                <polygon id="Fill-21" fill="#FFFFFF" points="20.911 34.576 21.387 34.576 21.387 34.027 20.911 34.027"></polygon>
                <path d="M22.083,31.369 L22.52,31.369 L22.52,30.87 L22.083,30.87 L22.083,31.369 Z M22.083,34.576 L22.52,34.576 L22.52,31.793 L22.083,31.793 L22.083,34.576 Z" id="Fill-22" fill="#FFFFFF"></path>
                <g id="Group-29" transform="translate(23.000000, 30.748000)" fill="#FFFFFF">
                    <path d="M0.1162,3.8281 L0.5512,3.8281 L0.5512,1.9081 C0.5512,1.5031 0.8692,1.3471 1.1022,1.3471 C1.4972,1.3471 1.5122,1.6951 1.5122,1.9081 L1.5122,3.8281 L1.9492,3.8281 L1.9492,1.8551 C1.9492,1.5291 1.9492,0.9741 1.2162,0.9741 C0.9472,0.9741 0.6562,1.1191 0.5422,1.3741 L0.5312,1.3741 L0.5312,1.0451 L0.1162,1.0451 L0.1162,3.8281 Z" id="Fill-23"></path>
                    <path d="M2.6504,3.8281 L3.0874,3.8281 L3.0874,1.3891 L3.5634,1.3891 L3.5634,1.0451 L3.0874,1.0451 L3.0874,0.7201 C3.0874,0.5271 3.1794,0.4551 3.3684,0.4551 L3.5694,0.4551 L3.5694,0.0811 L3.2534,0.0811 C2.8324,0.0811 2.6504,0.2991 2.6504,0.7201 L2.6504,1.0451 L2.2464,1.0451 L2.2464,1.3891 L2.6504,1.3891 L2.6504,3.8281 Z" id="Fill-25"></path>
                    <path d="M4.7217,3.5596 C4.2757,3.5596 4.1887,3.0386 4.1887,2.4376 C4.1887,1.8336 4.2817,1.3166 4.7217,1.3166 C5.1897,1.3166 5.2787,1.8336 5.2787,2.4376 C5.2787,3.0386 5.1837,3.5596 4.7217,3.5596 M3.7297,2.4376 C3.7297,3.2206 3.9277,3.9016 4.7327,3.9016 C5.5327,3.9016 5.7337,3.2206 5.7337,2.4376 C5.7337,1.6536 5.5357,0.9726 4.7327,0.9726 C3.9337,0.9726 3.7297,1.6536 3.7297,2.4376" id="Fill-27"></path>
                </g>
            </g>
        </g>
    </g>
</svg>
