<?xml version="1.0" encoding="UTF-8"?>
<svg width="30px" height="37px" viewBox="0 0 30 37" version="1.1" xmlns="http://www.w3.org/2000/svg" xmlns:xlink="http://www.w3.org/1999/xlink">
    <g id="UI-doc" stroke="none" stroke-width="1" fill="none" fill-rule="evenodd">
        <g id="UI" transform="translate(-162.000000, -2146.000000)">
            <g id="Group-30" transform="translate(162.000000, 2146.000000)">
                <polygon id="Fill-1" fill="#F5A200" points="0 30.2287 29.975 30.2287 29.975 0.2547 0 0.2547"></polygon>
                <g id="Group-6" transform="translate(2.000000, 3.747700)" fill="#FFFFFF">
                    <path d="M8.5522,22.2248 L3.8762,22.2248 L3.8762,5.9778 L0.8192,5.9778 L0.8192,3.2208 C2.9172,3.2498 4.2962,2.3798 5.0452,0.3418 L8.5522,0.3418 L8.5522,22.2248 Z" id="Fill-2"></path>
                    <path d="M24.498,17.7883 L24.498,22.2253 L13.048,22.2253 L13.048,17.5783 C18.263,10.4743 19.942,9.2753 19.942,6.5473 C19.942,5.4383 19.521,4.7793 18.713,4.7793 C17.604,4.7793 17.363,5.6473 17.363,6.6373 L17.363,7.9253 L12.987,7.9253 L12.987,6.4873 C12.987,3.1003 14.636,0.3423 18.713,0.3423 C22.609,0.3423 24.738,2.8003 24.738,6.7273 C24.738,11.4033 20.781,14.4613 18.083,17.7883 L24.498,17.7883 Z" id="Fill-4"></path>
                </g>
                <path d="M0.001,36.8247 L29.975,36.8247 L29.975,0.2557 L0.001,0.2557 L0.001,36.8247 Z M0.599,29.6287 L29.375,29.6287 L29.375,0.8537 L0.599,0.8537 L0.599,29.6287 Z" id="Fill-7" fill="#000000"></path>
                <path d="M28.7754,3.1785 L28.4974,3.1785 L28.4974,1.8205 L28.4894,1.8205 L28.0114,3.1785 L27.7834,3.1785 L27.3304,1.8205 L27.3224,1.8205 L27.3224,3.1785 L27.0424,3.1785 L27.0424,1.4545 L27.4854,1.4545 L27.9154,2.7375 L27.9224,2.7375 L28.3404,1.4545 L28.7754,1.4545 L28.7754,3.1785 Z M26.8434,1.4545 L26.8434,1.6765 L26.3704,1.6765 L26.3704,3.1785 L26.0904,3.1785 L26.0904,1.6765 L25.6174,1.6765 L25.6174,1.4545 L26.8434,1.4545 Z" id="Fill-8" fill="#000000"></path>
                <polygon id="Fill-9" fill="#FFFFFF" points="1.9038 34.576 2.4128 34.576 2.8798 32.303 2.8898 32.303 3.3788 34.576 3.8558 34.576 4.5148 31.793 4.0588 31.793 3.6278 34.068 3.6168 34.068 3.1548 31.793 2.6418 31.793 2.1688 34.068 2.1578 34.068 1.7118 31.793 1.2548 31.793"></polygon>
                <polygon id="Fill-10" fill="#FFFFFF" points="5.269 34.576 5.778 34.576 6.245 32.303 6.256 32.303 6.745 34.576 7.221 34.576 7.881 31.793 7.424 31.793 6.993 34.068 6.982 34.068 6.519 31.793 6.006 31.793 5.534 34.068 5.524 34.068 5.077 31.793 4.62 31.793"></polygon>
                <polygon id="Fill-11" fill="#FFFFFF" points="8.6342 34.576 9.1432 34.576 9.6102 32.303 9.6202 32.303 10.1092 34.576 10.5862 34.576 11.2452 31.793 10.7892 31.793 10.3582 34.068 10.3472 34.068 9.8852 31.793 9.3712 31.793 8.8992 34.068 8.8882 34.068 8.4422 31.793 7.9852 31.793"></polygon>
                <polygon id="Fill-12" fill="#FFFFFF" points="11.492 34.5757 11.968 34.5757 11.968 34.0257 11.492 34.0257"></polygon>
                <g id="Group-19" transform="translate(12.000000, 30.747700)" fill="#FFFFFF">
                    <path d="M0.6386,4.7424 L1.0746,4.7424 L1.0746,3.5134 L1.0846,3.5134 C1.1836,3.7514 1.4176,3.9014 1.6666,3.9014 C2.3886,3.9014 2.5756,3.0184 2.5756,2.3854 C2.5756,1.5604 2.3256,0.9724 1.6666,0.9724 C1.3656,0.9724 1.1216,1.1814 1.0646,1.3884 L1.0546,1.3884 L1.0546,1.0454 L0.6386,1.0454 L0.6386,4.7424 Z M1.0486,2.4374 C1.0486,1.8034 1.1266,1.3464 1.6096,1.3464 C2.0146,1.3464 2.1186,1.7734 2.1186,2.3854 C2.1186,3.1014 2.0146,3.5274 1.6096,3.5274 C1.1426,3.5274 1.0486,2.9764 1.0486,2.4374 Z" id="Fill-13"></path>
                    <path d="M4.8701,2.4894 L4.8701,2.3124 C4.8701,1.7164 4.7921,0.9724 3.9411,0.9724 C3.0851,0.9724 2.9491,1.7774 2.9491,2.4744 C2.9491,3.4294 3.2351,3.9014 3.9151,3.9014 C4.6741,3.9014 4.8491,3.2114 4.8491,2.9154 L4.4141,2.9154 C4.4141,3.1224 4.3561,3.5584 3.9411,3.5584 C3.4071,3.5584 3.4071,2.9154 3.4071,2.4894 L4.8701,2.4894 Z M3.4221,2.1464 L3.4221,2.0424 C3.4221,1.8774 3.4741,1.3154 3.9311,1.3154 C4.3151,1.3154 4.4141,1.6834 4.4141,1.9954 L4.4141,2.1464 L3.4221,2.1464 Z" id="Fill-15"></path>
                    <path d="M7.1797,1.0451 L6.7657,1.0451 L6.7657,1.3991 L6.7547,1.3991 C6.6987,1.1811 6.4537,0.9731 6.1537,0.9731 C5.4477,0.9731 5.2447,1.6851 5.2447,2.4381 C5.2447,2.8071 5.2957,3.8281 6.1067,3.8281 C6.3807,3.8281 6.6407,3.6881 6.7347,3.4551 L6.7447,3.4551 L6.7447,3.8181 C6.7447,4.0111 6.7657,4.4411 6.2037,4.4411 C5.9757,4.4411 5.7797,4.3431 5.7587,4.0891 L5.3227,4.0891 C5.3947,4.7841 6.0657,4.7841 6.2357,4.7841 C6.7957,4.7841 7.1807,4.4831 7.1807,3.6521 L7.1807,1.0451 L7.1797,1.0451 Z M6.2097,1.3471 C6.6777,1.3471 6.7707,1.8981 6.7707,2.4381 C6.7707,3.0081 6.6777,3.4551 6.2037,3.4551 C5.7697,3.4551 5.7007,2.8891 5.7007,2.4381 C5.7007,1.7741 5.8047,1.3471 6.2097,1.3471 Z" id="Fill-17"></path>
                </g>
                <path d="M19.779,31.3697 L20.215,31.3697 L20.215,30.8697 L19.779,30.8697 L19.779,31.3697 Z M19.779,34.5757 L20.215,34.5757 L20.215,31.7937 L19.779,31.7937 L19.779,34.5757 Z" id="Fill-20" fill="#FFFFFF"></path>
                <polygon id="Fill-21" fill="#FFFFFF" points="20.909 34.5757 21.388 34.5757 21.388 34.0257 20.909 34.0257"></polygon>
                <path d="M22.084,31.3697 L22.521,31.3697 L22.521,30.8697 L22.084,30.8697 L22.084,31.3697 Z M22.084,34.5757 L22.521,34.5757 L22.521,31.7937 L22.084,31.7937 L22.084,34.5757 Z" id="Fill-22" fill="#FFFFFF"></path>
                <g id="Group-29" transform="translate(23.000000, 30.747700)" fill="#FFFFFF">
                    <path d="M0.1162,3.8283 L0.5522,3.8283 L0.5522,1.9083 C0.5522,1.5033 0.8692,1.3473 1.1032,1.3473 C1.4972,1.3473 1.5122,1.6953 1.5122,1.9083 L1.5122,3.8283 L1.9482,3.8283 L1.9482,1.8553 C1.9482,1.5293 1.9482,0.9733 1.2172,0.9733 C0.9472,0.9733 0.6562,1.1193 0.5432,1.3743 L0.5312,1.3743 L0.5312,1.0453 L0.1162,1.0453 L0.1162,3.8283 Z" id="Fill-23"></path>
                    <path d="M2.6504,3.8283 L3.0874,3.8283 L3.0874,1.3893 L3.5644,1.3893 L3.5644,1.0453 L3.0874,1.0453 L3.0874,0.7203 C3.0874,0.5273 3.1804,0.4553 3.3684,0.4553 L3.5704,0.4553 L3.5704,0.0813 L3.2534,0.0813 C2.8334,0.0813 2.6504,0.2993 2.6504,0.7193 L2.6504,1.0453 L2.2464,1.0453 L2.2464,1.3893 L2.6504,1.3893 L2.6504,3.8283 Z" id="Fill-25"></path>
                    <path d="M4.7216,3.5598 C4.2756,3.5598 4.1886,3.0388 4.1886,2.4378 C4.1886,1.8338 4.2816,1.3158 4.7216,1.3158 C5.1896,1.3158 5.2786,1.8338 5.2786,2.4378 C5.2786,3.0388 5.1846,3.5598 4.7216,3.5598 M3.7296,2.4378 C3.7296,3.2208 3.9286,3.9018 4.7326,3.9018 C5.5326,3.9018 5.7336,3.2208 5.7336,2.4378 C5.7336,1.6528 5.5366,0.9728 4.7326,0.9728 C3.9336,0.9728 3.7296,1.6528 3.7296,2.4378" id="Fill-27"></path>
                </g>
            </g>
        </g>
    </g>
</svg>
