<?xml version="1.0" encoding="UTF-8"?>
<svg width="30px" height="37px" viewBox="0 0 30 37" version="1.1" xmlns="http://www.w3.org/2000/svg" xmlns:xlink="http://www.w3.org/1999/xlink">
    <defs>
        <rect id="path-1" x="0" y="0.0264168618" width="29.9355035" height="37.6665105"></rect>
        <rect id="path-3" x="0" y="0.0264168618" width="29.9355035" height="37.6665105"></rect>
        <rect id="path-5" x="0" y="0.0264168618" width="29.9355035" height="37.6665105"></rect>
        <rect id="path-7" x="0" y="0.0264168618" width="29.9355035" height="37.6665105"></rect>
        <rect id="path-9" x="0" y="0.0264168618" width="29.9355035" height="37.6665105"></rect>
        <rect id="path-11" x="0" y="0.0264168618" width="29.9355035" height="37.6665105"></rect>
        <rect id="path-13" x="0" y="0.0264168618" width="29.9355035" height="37.6665105"></rect>
        <rect id="path-15" x="0" y="0.0264168618" width="29.9355035" height="37.6665105"></rect>
        <rect id="path-17" x="0" y="0.0264168618" width="29.9355035" height="37.6665105"></rect>
        <rect id="path-19" x="0" y="0.0264168618" width="29.9355035" height="37.6665105"></rect>
        <rect id="path-21" x="0" y="0.0264168618" width="29.9355035" height="37.6665105"></rect>
        <rect id="path-23" x="0" y="0.0264168618" width="29.9355035" height="37.6665105"></rect>
        <rect id="path-25" x="0" y="0.0264168618" width="29.9355035" height="37.6665105"></rect>
        <rect id="path-27" x="0" y="0.0264168618" width="29.9355035" height="37.6665105"></rect>
        <rect id="path-29" x="0" y="0.0264168618" width="29.9355035" height="37.6665105"></rect>
        <rect id="path-31" x="0" y="0.0264168618" width="29.9355035" height="37.6665105"></rect>
        <rect id="path-33" x="0" y="0.0264168618" width="29.9355035" height="37.6665105"></rect>
        <rect id="path-35" x="0" y="0.0264168618" width="29.9355035" height="37.6665105"></rect>
    </defs>
    <g id="UI-doc" stroke="none" stroke-width="1" fill="none" fill-rule="evenodd">
        <g id="UI" transform="translate(-73.000000, -2097.000000)">
            <g id="Rates-18" transform="translate(73.000000, 2097.000000)">
                <g id="Clipped">
                    <mask id="mask-2" fill="white">
                        <use xlink:href="#path-1"></use>
                    </mask>
                    <g id="SVGID_1_"></g>
                    <rect id="Rectangle-path" fill="#E2011A" fill-rule="nonzero" mask="url(#mask-2)" x="0" y="0.281030445" width="29.9098595" height="29.9095082"></rect>
                </g>
                <g id="Clipped">
                    <mask id="mask-4" fill="white">
                        <use xlink:href="#path-3"></use>
                    </mask>
                    <g id="SVGID_1_"></g>
                    <path d="M10.5292272,25.942623 L5.86306792,25.942623 L5.86306792,9.73088993 L2.81227166,9.73088993 L2.81227166,6.97918033 C4.90629977,7.00882904 6.28229508,6.14100703 7.02990632,4.10733021 L10.5292272,4.10733021 L10.5292272,25.942623 Z" id="Shape" fill="#FFFFFF" fill-rule="nonzero" mask="url(#mask-4)"></path>
                </g>
                <g id="Clipped">
                    <mask id="mask-6" fill="white">
                        <use xlink:href="#path-5"></use>
                    </mask>
                    <g id="SVGID_1_"></g>
                    <path d="M14.8357377,19.7212412 C14.8357377,17.5673536 15.3143326,16.0424824 17.0785714,14.6961358 C15.6129977,13.2305621 15.0748244,11.9441452 15.0748244,9.97032787 C15.0748244,6.53030445 17.2583607,4.10733021 20.8476112,4.10733021 C24.4367916,4.10733021 26.6203981,6.53030445 26.6203981,9.97032787 C26.6203981,11.9440749 26.0822248,13.2304918 24.6165808,14.6961358 C26.3818735,16.0425527 26.8594145,17.5673536 26.8594145,19.7212412 C26.8594145,23.6391569 25.6342623,26.3022717 20.8476112,26.3022717 C16.0622248,26.3022717 14.8357377,23.6391569 14.8357377,19.7212412 M20.8476112,16.6702342 C19.7706323,16.6702342 19.5011944,17.4178454 19.5011944,19.4522248 C19.5011944,21.5155504 19.7706323,22.2335129 20.8476112,22.2335129 C21.9238876,22.2335129 22.1939578,21.5155504 22.1939578,19.4522248 C22.1939578,17.4178454 21.9238876,16.6702342 20.8476112,16.6702342 M20.8476112,8.05587822 C19.8608431,8.05587822 19.6211241,8.53440281 19.6211241,10.5987822 C19.6211241,12.6621077 19.8608431,13.1409836 20.8476112,13.1409836 C21.8343091,13.1409836 22.0740984,12.6621077 22.0740984,10.5987822 C22.0740984,8.53440281 21.8343091,8.05587822 20.8476112,8.05587822" id="Shape" fill="#FFFFFF" fill-rule="nonzero" mask="url(#mask-6)"></path>
                </g>
                <g id="Clipped">
                    <mask id="mask-8" fill="white">
                        <use xlink:href="#path-7"></use>
                    </mask>
                    <g id="SVGID_1_"></g>
                    <path d="M0,36.7708665 L29.9098595,36.7708665 L29.9098595,0.281030445 L0,0.281030445 L0,36.7708665 Z M29.3118267,29.591733 L0.598735363,29.591733 L0.598735363,0.878782201 L29.3118267,0.878782201 L29.3118267,29.591733 Z" id="Shape" fill="#000000" fill-rule="nonzero" mask="url(#mask-8)"></path>
                </g>
                <g id="Clipped">
                    <mask id="mask-10" fill="white">
                        <use xlink:href="#path-9"></use>
                    </mask>
                    <g id="SVGID_1_"></g>
                    <path d="M26.7859953,1.47751756 L26.7859953,1.69946136 L26.3125293,1.69946136 L26.3125293,3.19805621 L26.0343794,3.19805621 L26.0343794,1.69946136 L25.5616159,1.69946136 L25.5616159,1.47751756 L26.7859953,1.47751756 Z M28.7136534,3.19805621 L28.4355035,3.19805621 L28.4355035,1.8429274 L28.4274239,1.8429274 L27.9505855,3.19805621 L27.7236534,3.19805621 L27.2704215,1.8429274 L27.2623419,1.8429274 L27.2623419,3.19805621 L26.9841218,3.19805621 L26.9841218,1.47751756 L27.4259719,1.47751756 L27.8549649,2.75754098 L27.8630445,2.75754098 L28.2800234,1.47751756 L28.7137237,1.47751756 L28.7137237,3.19805621 L28.7136534,3.19805621 Z" id="Shape" fill="#000000" fill-rule="nonzero" mask="url(#mask-10)"></path>
                </g>
                <g id="Clipped">
                    <mask id="mask-12" fill="white">
                        <use xlink:href="#path-11"></use>
                    </mask>
                    <g id="SVGID_1_"></g>
                    <polygon id="Shape" fill="#FFFFFF" fill-rule="nonzero" mask="url(#mask-12)" points="1.89969555 34.5280328 2.40716628 34.5280328 2.87360656 32.2596253 2.88400468 32.2596253 3.37067916 34.5280328 3.84751756 34.5280328 4.50449649 31.7511007 4.04957845 31.7511007 3.61981265 34.0215457 3.60871194 34.0215457 3.14803279 31.7511007 2.63550351 31.7511007 2.1636534 34.0215457 2.15360656 34.0215457 1.70810304 31.7511007 1.25206089 31.7511007"></polygon>
                </g>
                <g id="Clipped">
                    <mask id="mask-14" fill="white">
                        <use xlink:href="#path-13"></use>
                    </mask>
                    <g id="SVGID_1_"></g>
                    <polygon id="Shape" fill="#FFFFFF" fill-rule="nonzero" mask="url(#mask-14)" points="5.25786885 34.5280328 5.76540984 34.5280328 6.23142857 32.2596253 6.24259953 32.2596253 6.72955504 34.5280328 7.20470726 34.5280328 7.86337237 31.7511007 7.40740047 31.7511007 6.97770492 34.0215457 6.9669555 34.0215457 6.50557377 31.7511007 5.9930445 31.7511007 5.52189696 34.0215457 5.51142857 34.0215457 5.06592506 31.7511007 4.61030445 31.7511007"></polygon>
                </g>
                <g id="Clipped">
                    <mask id="mask-16" fill="white">
                        <use xlink:href="#path-15"></use>
                    </mask>
                    <g id="SVGID_1_"></g>
                    <polygon id="Shape" fill="#FFFFFF" fill-rule="nonzero" mask="url(#mask-16)" points="8.61533958 34.5280328 9.12323185 34.5280328 9.58932084 32.2596253 9.59971897 32.2596253 10.087377 34.5280328 10.5632319 34.5280328 11.2212646 31.7511007 10.7659251 31.7511007 10.3355269 34.0215457 10.3251288 34.0215457 9.86374707 31.7511007 9.35156909 31.7511007 8.87971897 34.0215457 8.86932084 34.0215457 8.42374707 31.7511007 7.9670726 31.7511007"></polygon>
                </g>
                <g id="Clipped">
                    <mask id="mask-18" fill="white">
                        <use xlink:href="#path-17"></use>
                    </mask>
                    <g id="SVGID_1_"></g>
                    <polygon id="Rectangle-path" fill="#FFFFFF" fill-rule="nonzero" mask="url(#mask-18)" points="11.4667447 33.9798126 11.9667447 33.9798126 11.9667447 34.528103 11.4667447 34.528103"></polygon>
                </g>
                <g id="Clipped">
                    <mask id="mask-20" fill="white">
                        <use xlink:href="#path-19"></use>
                    </mask>
                    <g id="SVGID_1_"></g>
                    <path d="M13.0202108,33.1405855 C13.0202108,32.5074239 13.0983372,32.0521546 13.5802342,32.0521546 C13.984356,32.0521546 14.0880562,32.4778454 14.0880562,33.0880328 C14.0880562,33.8033255 13.984356,34.2276815 13.5802342,34.2276815 C13.1142155,34.2276815 13.0202108,33.6786885 13.0202108,33.1405855 Z M12.6113817,35.4399766 L13.0457845,35.4399766 L13.0457845,34.2128571 L13.0568852,34.2128571 C13.1555269,34.4506089 13.3885714,34.6007494 13.6367916,34.6007494 C14.3567916,34.6007494 14.5436768,33.7197892 14.5436768,33.0880328 C14.5436768,32.2649649 14.2948244,31.6790164 13.6367916,31.6790164 C13.336089,31.6790164 13.0932787,31.8871194 13.0360187,32.0938876 L13.0259016,32.0938876 L13.0259016,31.7510304 L12.6113817,31.7510304 L12.6113817,35.4399766 Z" id="Shape" fill="#FFFFFF" mask="url(#mask-20)"></path>
                </g>
                <g id="Clipped">
                    <mask id="mask-22" fill="white">
                        <use xlink:href="#path-21"></use>
                    </mask>
                    <g id="SVGID_1_"></g>
                    <path d="M15.3886651,32.8496487 L15.3886651,32.7458782 C15.3886651,32.5815457 15.4405152,32.0212412 15.8965574,32.0212412 C16.2798126,32.0212412 16.3788056,32.3883372 16.3788056,32.6994379 L16.3788056,32.8496487 L15.3886651,32.8496487 Z M16.8340749,33.1918033 L16.8340749,33.0160187 C16.8340749,32.4199532 16.7559485,31.6790867 15.9066042,31.6790867 C15.0522717,31.6790867 14.9168852,32.4819204 14.9168852,33.1769789 C14.9168852,34.1299532 15.2017799,34.6008197 15.8810304,34.6008197 C16.6374239,34.6008197 16.8125761,33.9118033 16.8125761,33.6167916 L16.3788056,33.6167916 C16.3788056,33.8235597 16.3209133,34.2593677 15.9066042,34.2593677 C15.3735597,34.2593677 15.3735597,33.6167916 15.3735597,33.1918735 L16.8340749,33.1918735 L16.8340749,33.1918033 Z" id="Shape" fill="#FFFFFF" mask="url(#mask-22)"></path>
                </g>
                <g id="Clipped">
                    <mask id="mask-24" fill="white">
                        <use xlink:href="#path-23"></use>
                    </mask>
                    <g id="SVGID_1_"></g>
                    <path d="M18.1703747,32.0521546 C18.6364637,32.0521546 18.7294145,32.6010773 18.7294145,33.1405855 C18.7294145,33.7090398 18.6364637,34.1555269 18.1649649,34.1555269 C17.7311944,34.1555269 17.6625527,33.590445 17.6625527,33.1405855 C17.6624824,32.4778454 17.7662529,32.0521546 18.1703747,32.0521546 Z M19.1388759,31.7511007 L18.7253396,31.7511007 L18.7253396,32.1047073 L18.7138876,32.1047073 C18.65726,31.8864871 18.4140984,31.6790164 18.1130445,31.6790164 C17.4092037,31.6790164 17.2071429,32.3888993 17.2071429,33.1405855 C17.2071429,33.5083138 17.2583607,34.5280328 18.066534,34.5280328 C18.3413115,34.5280328 18.6,34.3879391 18.6942857,34.1555269 L18.7050351,34.1555269 L18.7050351,34.518548 C18.7050351,34.7098595 18.7252693,35.139555 18.1648946,35.139555 C17.93726,35.139555 17.7399063,35.0412646 17.7203747,34.7879859 L17.2853396,34.7879859 C17.3567213,35.4817096 18.0255035,35.4817096 18.1952459,35.4817096 C18.7549883,35.4817096 19.1388759,35.1813583 19.1388759,34.3522482 L19.1388759,31.7511007 Z" id="Shape" fill="#FFFFFF" mask="url(#mask-24)"></path>
                </g>
                <g id="Clipped">
                    <mask id="mask-26" fill="white">
                        <use xlink:href="#path-25"></use>
                    </mask>
                    <g id="SVGID_1_"></g>
                    <path d="M19.7362763,34.5280328 L20.2362763,34.5280328 L20.2362763,31.751733 L19.7362763,31.751733 L19.7362763,34.5280328 Z M19.7362763,31.3275176 L20.2362763,31.3275176 L20.2362763,30.8290398 L19.7362763,30.8290398 L19.7362763,31.3275176 Z" id="Shape" fill="#FFFFFF" mask="url(#mask-26)"></path>
                </g>
                <g id="Clipped">
                    <mask id="mask-28" fill="white">
                        <use xlink:href="#path-27"></use>
                    </mask>
                    <g id="SVGID_1_"></g>
                    <polygon id="Rectangle-path" fill="#FFFFFF" fill-rule="nonzero" mask="url(#mask-28)" points="20.8644028 33.9798126 21.3644028 33.9798126 21.3644028 34.528103 20.8644028 34.528103"></polygon>
                </g>
                <g id="Clipped">
                    <mask id="mask-30" fill="white">
                        <use xlink:href="#path-29"></use>
                    </mask>
                    <g id="SVGID_1_"></g>
                    <path d="M22.0356674,34.5280328 L22.5356674,34.5280328 L22.5356674,31.751733 L22.0356674,31.751733 L22.0356674,34.5280328 Z M22.0356674,31.3275176 L22.5356674,31.3275176 L22.5356674,30.8290398 L22.0356674,30.8290398 L22.0356674,31.3275176 Z" id="Shape" fill="#FFFFFF" mask="url(#mask-30)"></path>
                </g>
                <g id="Clipped">
                    <mask id="mask-32" fill="white">
                        <use xlink:href="#path-31"></use>
                    </mask>
                    <g id="SVGID_1_"></g>
                    <path d="M23.0668384,34.5280328 L23.5006089,34.5280328 L23.5006089,32.611897 C23.5006089,32.2077752 23.8178923,32.0521546 24.0508665,32.0521546 C24.4442389,32.0521546 24.4596956,32.3996487 24.4596956,32.611897 L24.4596956,34.5280328 L24.8948009,34.5280328 L24.8948009,32.5593443 C24.8948009,32.2340515 24.8948009,31.6790867 24.1640515,31.6790867 C23.8960187,31.6790867 23.6057143,31.8245199 23.491897,32.0791335 L23.480445,32.0791335 L23.480445,31.7511007 L23.0668384,31.7511007 L23.0668384,34.5280328 Z" id="Shape" fill="#FFFFFF" fill-rule="nonzero" mask="url(#mask-32)"></path>
                </g>
                <g id="Clipped">
                    <mask id="mask-34" fill="white">
                        <use xlink:href="#path-33"></use>
                    </mask>
                    <g id="SVGID_1_"></g>
                    <path d="M25.5952693,34.5280328 L26.0317096,34.5280328 L26.0317096,32.0938876 L26.5072131,32.0938876 L26.5072131,31.7510304 L26.0317096,31.7510304 L26.0317096,31.4257377 C26.0317096,31.2337939 26.1239578,31.1617096 26.3112646,31.1617096 L26.512623,31.1617096 L26.512623,30.7885012 L26.1967447,30.7885012 C25.7764637,30.7885012 25.5952693,31.006089 25.5952693,31.4256674 L25.5952693,31.7509602 L25.1918501,31.7509602 L25.1918501,32.0938173 L25.5952693,32.0938173 L25.5952693,34.5280328 Z" id="Shape" fill="#FFFFFF" fill-rule="nonzero" mask="url(#mask-34)"></path>
                </g>
                <g id="Clipped">
                    <mask id="mask-36" fill="white">
                        <use xlink:href="#path-35"></use>
                    </mask>
                    <g id="SVGID_1_"></g>
                    <path d="M26.672178,33.1405855 C26.672178,33.9218501 26.8702342,34.6007494 27.6723653,34.6007494 C28.4704918,34.6007494 28.6719204,33.9218501 28.6719204,33.1405855 C28.6719204,32.3572834 28.4751991,31.6790164 27.6723653,31.6790164 C26.875644,31.6790164 26.672178,32.3572834 26.672178,33.1405855 M27.6616159,34.26 C27.2163934,34.26 27.129555,33.7400234 27.129555,33.1405855 C27.129555,32.5384778 27.2225059,32.021171 27.6616159,32.021171 C28.1284075,32.021171 28.2172834,32.5384075 28.2172834,33.1405855 C28.2172834,33.7399532 28.1229977,34.26 27.6616159,34.26" id="Shape" fill="#FFFFFF" mask="url(#mask-36)"></path>
                </g>
            </g>
        </g>
    </g>
</svg>
