<?xml version="1.0" encoding="UTF-8" standalone="no"?>
<!-- Generator: Adobe Illustrator 16.0.0, SVG Export Plug-In . SVG Version: 6.00 Build 0)  -->

<svg
   version="1.1"
   id="Layer_1"
   x="0px"
   y="0px"
   width="511.562px"
   height="470.414px"
   viewBox="0 0 511.562 470.414"
   enable-background="new 0 0 511.562 470.414"
   xml:space="preserve"
   xmlns="http://www.w3.org/2000/svg"
   xmlns:svg="http://www.w3.org/2000/svg"><defs
   id="defs22" />

<path
   d="M422.584,0H90.617C40.656,0,0,39.444,0,87.901v294.886c0,49.133,39.426,87.626,89.796,87.626h331.951  c50.362,0,89.814-38.493,89.814-87.626V87.901C511.562,38.618,472.487,0,422.584,0"
   id="path11" />
<path
   fill="#FAA41A"
   d="M501.479,382.767c0,43.492-35.021,77.558-79.731,77.558H89.796c-44.693,0-79.723-34.065-79.723-77.558  V87.886c0-43.642,35.392-77.811,80.544-77.811h331.967c44.236,0,78.895,34.168,78.895,77.811V382.767z"
   id="path13" />
<path
   d="M439.313,279.947h-64.093l-10.16-63.896l-37.56,63.448h-7.023c-4.264-7.345-5.952-18.097-5.952-24.682  c0-10.915,0.785-21.557,0.785-35.41c0-18.372-5.401-28.233-19.81-31.697v-0.543c30.648-4.262,44.547-24.541,44.547-53.091  c0-40.562-26.981-49.355-62.343-49.355h-95.144l-40.209,190.406h50.561l14.631-69.283h33.609c17.931,0,25.26,8.773,25.26,25.561  c0,12.771-1.331,22.881-1.331,32.714c0,3.643,0.826,12.099,3.28,15.379c-0.025,0,36.545,38.564,36.545,38.564l-31.439,67.611  l67.249-39.957l50.112,38.498l-9.354-63.786L439.313,279.947z M256.263,170.198h-40.187l9.627-45.904h37.389  c13.313,0,27.16,3.463,27.16,19.754C290.252,164.584,274.481,170.198,256.263,170.198z"
   id="path15" />
<polygon
   fill="#FFFFFF"
   points="341.415,334.492 294.577,362.299 316.015,316.257 289.946,288.801 332.815,288.801 359.93,242.989   367.274,289.255 409.802,289.255 371.462,316.083 378.312,362.86 "
   id="polygon17" />
</svg>
