<svg xmlns="http://www.w3.org/2000/svg" width="40" height="40" viewBox="0 0 28 27.81"><path fill="#fff" d="M21.54 7.05v-.63a5.32 5.32 0 00-2.17-4.29 5.3 5.3 0 011.06 3.2v1.72h-1.1V5.33a5.33 5.33 0 00-10.66 0v1.72H0v18.73a2.03 2.03 0 002.03 2.03h23.94A2.03 2.03 0 0028 25.78V7.05zM9.78 5.33A4.22 4.22 0 0114 1.1a4.32 4.32 0 014.22 4.22v1.73H12v-.63A4.22 4.22 0 0116.2 2.2a3.8 3.8 0 01.58.04 4.06 4.06 0 00-1.69-.37 4.22 4.22 0 00-3.44 1.78 5.3 5.3 0 00-.78 2.77v.63h-1.1V5.33z"/><path fill="#f25022" d="M8.13 11.56h5.42v5.42H8.13z"/><path fill="#7fba00" d="M14.45 11.56h5.42v5.42h-5.42z"/><path fill="#00a4ef" d="M8.13 17.88h5.42v5.42H8.13z"/><path fill="#ffb900" d="M14.45 17.88h5.42v5.42h-5.42z"/></svg>
