<svg xmlns="http://www.w3.org/2000/svg" width="38" height="17.52" viewBox="0 0 38 17.52"><path fill="#009ae4" fill-rule="evenodd" d="M9.87 14.45s.08.35.28.22.28-.33.47-.33 1.02-.16 1.21 0 .22.02.32.02a3.8 3.8 0 01.38.05c.25-.03.2-.42.02-.54-.26-.2-.61-.34-.87-.54l-.08-.6.21-.3v-1l-.12-.26-.03-.75-.1-.13v-.28c.06-.1.2-.2.26-.29.02-.18-.07-.31-.05-.5-.05-.23-.05-.52-.1-.76v-.85c.19-.06.24-.14.25-.23a1.81 1.81 0 00-.1-.5c-.02-1.37-.03-2.8-.06-4.16.1-.17.23-.25.24-.37 0-.1-.1-.18-.23-.28v-.3s.22-.43.4-.43a.28.28 0 00.29-.26.22.22 0 00-.18-.36h-1.16c-.32 0-.59-.04-.9-.04L9.8.7c-.33.1-.26.28-.13.39a.95.95 0 00.47.21.45.45 0 01.47.3l.06 2.64.03 1.95v1.94l.05 2.29a1.12 1.12 0 01-.1.35 2.48 2.48 0 00-.04.64c.21.19.17.16.02.42l-.04 1.69-.16.3s-.56.35-.56.63zm-9.5 2.73c-.3-.06-.35-.2-.25-.28.06-.05.23-.05.3-.08a.83.83 0 00.29-.2c.1-.14.04-.47.17-.73a12.3 12.3 0 00.04-3.06c-.07-.76 0-3.29 0-3.6a.61.61 0 00.12-.44c0-.1.07-.27 0-.4-.1-.12-.08-.61-.08-.89a1.6 1.6 0 01.13-.78.66.66 0 000-.44c-.1-.21-.23.04-.22-.4.02-1.05.06-2.11.03-3.17 0-.1.17-.11.2-.2a.5.5 0 000-.36c-.03-.06-.2.02-.25-.03-.3-.28-.66-.45-.83-.83A.53.53 0 01.2.75c.23-.11.66 0 .92-.04.14-.02.22-.1.36-.11A23.14 23.14 0 014.75.55c.17.02.23.32.39.4.21.1.53.08.7.26a1.44 1.44 0 01.48.9c.05.49.13 1.03.12 1.4a1.88 1.88 0 01-.23.86 10.72 10.72 0 01-.66 1.07c-.14.2-.39.4-.45.64s.57.06.7.28-.1.45-.03.68c.06.2.42.22.46.44.1.55-.13 1.13-.04 1.68.03.17.31.18.34.36.03.38.02.79.02 1.2l.02 1.27c-.02.16-.22.25-.24.4-.04.41.1.87 0 1.28-.1.42-.43.72-.57 1.13-.11.36-.08.88-.26 1.1a3.56 3.56 0 00-.94.5c-.35.26-.58.56-.68.57-.14.12-.44.04-.6.1s-.18.2-.34.17c-.14-.02-.1-.13-.2-.21a.2.2 0 00-.23 0c-.35.28-.09.2-.48.17a14.86 14.86 0 01-1.67-.02zm2.23-1.6l.27-.52-.07-1.72.23-.32v-1.73c0-.26-.04-.53-.04-.79-.27-.22-.14-.22.08-.48 0-.25.06-.46.06-.7l-.08-.65.12-.32c0-.32.04-.58.04-.9 0-.3 0-.4.06-.38a3.07 3.07 0 01.34.33l.42.41c.26.25.52.27.41.68-.1.39.19.5.1.87a2.31 2.31 0 00-.13.65.64.64 0 00.18.35c.1.13.14.12.08.27a1.97 1.97 0 00-.2.52c-.02.18.08.27.17.6a1.23 1.23 0 010 .7l-.24.94c0 .24-.03.48-.04.72-.03.36-.08.37-.33.63-.23.23-.52.44-.75.65-.24.09-.43.1-.68.2zm.6-10.1a1.18 1.18 0 00.34 0c.06-.03.1-.1.18-.28.12-.22.28-.5.43-.52a3.14 3.14 0 00.36-.07s.12-.02.08-.33-.13-.6-.05-.68a.38.38 0 000-.4c-.08-.1-.15-.2-.02-.33s.22-.34-.1-.3-.3-.1-.34-.2-.38-.08-.56-.09c-.18.04-.34.02-.33.21s-.03 1.1-.02 1.2l.03 1.79zm10 8.24c-.02.08-.2.08-.19.16.02.12.03.29.14.3.33.05.78-.08 1.1-.02.13.02.14.24.25.3h.37c.1-.05.07-.23.16-.28a.48.48 0 01.39-.05c.07.03-.02.2.05.21.57-.02 1.08.04 1.62 0 .1-.02 0-.17.08-.24s.35.06.37-.06c.09-.64-.05-1.35.01-2 .02-.2.22-.32.26-.52.02-.07.1-.07.1-.13a2.26 2.26 0 00-.04-.74.48.48 0 00-.39-.07c-.08.06 0 .3-.06.38-.03.05-.14-.04-.16 0s0 .12.02.18c0 .03 0 .06-.02.08-.15.07-.38-.1-.5 0s.01.3-.1.42c-.18.2-.56.31-.74.51-.21.24-.2.48-.43.69a2.75 2.75 0 01-.75.27c-.26.1-.4.3-.67.38-.08.03-.19-.12-.16-.2.2-.68.48-1.35.7-2.02.14-.43.21-.7.37-1.13a6.68 6.68 0 01.63-1.37c.05-.08.23-.03.25-.12.07-.21-.06-.46 0-.68a.84.84 0 01.36-.42c.1-.06.25.03.3-.08.1-.25 0-.51.06-.77a2.37 2.37 0 01.24-.45c.1-.21.1-.4.2-.61a4.1 4.1 0 00.35-.6 2.73 2.73 0 00.04-.65c0-.07.1-.11.11-.18.04-.87.08-1.73.03-2.6 0-.07-.16-.06-.16-.13 0-.27.04-.5.02-.74 0-.04.02-.08-.03-.08-.72-.03-1.43-.02-2.14 0-.6 0-1.18-.05-1.77 0a.32.32 0 00-.23.08.45.45 0 00-.08.28v1.26c0 .08.17.03.2.11a1.72 1.72 0 01.07.72c-.01.07-.1.17-.1.25.03.27.07.45.12.7.02.1.1.18.13.28.03.12-.08.36.05.37a.75.75 0 00.25 0c.1-.03-.03-.2 0-.3.03-.07.15-.07.16-.14.06-.38-.04-.82.02-1.2a.44.44 0 01.18-.3c.08-.05.24.08.3 0 .09-.1 0-.23.05-.36a1.33 1.33 0 01.35-.48.88.88 0 01.45-.28c.4-.05.88 0 1.43-.03.05 0 .06.07.07.12a2.26 2.26 0 010 .76 2.94 2.94 0 01-.53.75 5.2 5.2 0 00-.41.49c-.14.2.07.48 0 .71a2.45 2.45 0 01-.42.7c-.13.16-.31.24-.43.4a2.95 2.95 0 00-.32.67 3.11 3.11 0 00-.16.61c-.03.17.05.36-.02.5-.06.11-.18.1-.26.19a1.33 1.33 0 00-.23.46 2.29 2.29 0 01-.17.48c-.11.2-.33.39-.43.6a3.31 3.31 0 00-.18.73l-.14.69a3.96 3.96 0 00-.12.87c0 .09.1.15.14.23s.12.13.1.2c-.04.1-.22.1-.23.2a.3.3 0 00.08.28c.07.07.2.04.26.12a.33.33 0 010 .3c-.04.07-.16.05-.18.14-.07.33.02.56-.04.9zm19.88 3.25c-.05-.13.06-.16.13-.23a.74.74 0 00.25-.41 3.12 3.12 0 00.11-.33.97.97 0 00-.06-.5c-.07-.15-.17-.23-.13-.37 0-.1.22-.11.39-.18a.38.38 0 00.19-.2c.04-.09-.08-.07-.15-.2s-.07-.31-.12-.4a1.58 1.58 0 01-.26-.58c-.02-.5.13-1.01.15-1.5a5.96 5.96 0 00.08-.91 1.43 1.43 0 00-.24-.57 3 3 0 01-.27-.51 8.78 8.78 0 01-.05-.95c-.01-.06-.16-.13-.17-.19-.03-.41.01-.83-.01-1.24-.02-.08-.08-.1-.09-.17-.02-.23 0-.46 0-.65l-.02-.53c0-.08-.07-.13-.07-.2v-1.4c0-.47-.03-.9 0-1.37 0-.08.17-.08.17-.16-.02-.37-.05-.51-.04-.88 0-.04.09-.14.09-.18a2.45 2.45 0 00-.01-.87c-.06-.19-.2-.25-.36-.37-.15-.1-.3-.28-.44-.38a1.57 1.57 0 01-.41-.41c-.08-.12.05-.13.19-.13a3.14 3.14 0 01.56.04c.06 0 .17.1.22.13.14.05.23-.02.36.03a7.08 7.08 0 01.66.33c.17.09.22.22.39.3.03.02.55.17.6.18.15.04.23-.07.38-.03l.63.18c.1.03.17.15.28.17.51.1.42-.07.83.34.12.12.31.21.4.36a3.4 3.4 0 01.22.67 3.24 3.24 0 01.24.5c.09.5 0 1 .05 1.5.02.15.18.31.2.47a7.59 7.59 0 010 1.73c-.03.2-.2.28-.22.47-.05.33.05.67.02 1a1.09 1.09 0 01-.18.45c-.06.1-.2.14-.24.24a4.84 4.84 0 00-.14.97c-.02.57 0 1.02.02 1.6a6.65 6.65 0 010 1.17c-.01.14-.13.22-.15.36-.06.38-.01.78-.05 1.17 0 .06-.1.14-.12.2a4.63 4.63 0 01-.2 1.28 1.57 1.57 0 01-.59.68 2.36 2.36 0 01-.74.24 2.31 2.31 0 00-.51.1c-.1.05-.03.05-.11.11a.16.16 0 01-.18 0c-.07-.05-.05-.07-.12-.1a.48.48 0 00-.38 0c-.09.03-.06.1-.15.11a2.8 2.8 0 01-.6.08c-.1 0-.2.05-.23-.06zm1.7-13.06a.73.73 0 01.54.1.94.94 0 01.42.43l.23.22a2.53 2.53 0 01.56 1.08 3.44 3.44 0 01-.1 1.54 1.25 1.25 0 00-.16.5c-.05.45-.18.38-.3.72a1.42 1.42 0 00-.04.42l-.03 2.36a2.62 2.62 0 01-.3 1.2 1.14 1.14 0 00-.18.61 1.48 1.48 0 01-.18.7l-.22.5c-.08.2-.16.27-.22.24s-.09-.15-.09-.34l.02-2.87.03-3.05a.51.51 0 00-.15-.43 2.4 2.4 0 00-.18-.8 1.33 1.33 0 01-.12-.7l-.02-2.12c0-.43.1-.29.5-.3zM18.11 16.08a3.23 3.23 0 010-.98c.01-.07.15 0 .2-.06a.36.36 0 00.06-.3c-.02-.06-.06.02-.1-.03a.24.24 0 01.02-.26c.08-.1.24-.07.29-.19.07-.15-.05-.35 0-.51.02-.05.15.05.16 0 .06-.25-.01-.52.03-.77 0-.07.06-.1.07-.17a2.9 2.9 0 000-.84c-.03-.17-.17-.3-.2-.46a7.48 7.48 0 01-.02-1.94 8.61 8.61 0 01.55-1.7c.12-.28.17-.2.27-.48a.45.45 0 00.03-.28c-.04-.1-.17-.2-.15-.3.02-.15.2-.14.24-.28.06-.18-.06-.4 0-.58.08-.22.34-.34.4-.56s0-.55.06-.76a5 5 0 01.46-1.07 7.1 7.1 0 00.41-.65 4.18 4.18 0 00.12-.72c-.14-.19-.48.07-.7-.01-.1-.04-.1-.22-.22-.27a.93.93 0 00-.63.1c-.23.17-.23.37-.32.64-.13.4-.03.85-.2 1.24-.06.15-.33.2-.45.3-.07.05-.1.11-.2.11a.17.17 0 01-.18-.11 2.68 2.68 0 010-.54c0-.14-.08-.28-.04-.42.01-.07.18-.04.18-.12.07-.8-.02-1.6-.01-2.36 0-.27.07-.23.34-.24h1.67c.9 0 1.8-.03 2.7-.01.13 0 .3.06.31.2a1.58 1.58 0 01-.28.76c-.07.13-.22.21-.27.35-.08.23.01.5-.08.72-.05.14-.32.17-.37.3-.08.2.05.44-.03.63-.04.1-.24.04-.28.14-.11.34-.05.71-.14 1.05-.05.2-.2.32-.22.52-.07.52.05 1.06 0 1.59 0 .11-.13.19-.16.3-.08.25-.13.53-.21.79-.04.1-.18.17-.21.28-.05.17.06.36 0 .51-.09.2-.38.28-.42.5-.13.59.07 1.21-.02 1.82-.05.26-.28.48-.33.74-.06.35.04.75-.04 1.1a9.32 9.32 0 01-.44.92c-.03.31-.4.6-.2.83a1.86 1.86 0 00.93-.04c.13-.06-.02-.34.1-.42a6.73 6.73 0 011.14-.57 4.67 4.67 0 00.7-.37c.1-.08.1-.26.23-.3.07-.03.09.15.16.16.26.05.49-.06.74 0 .1.03.1.17.13.27s.07.2.01.27c-.03.05-.14 0-.16.05a.58.58 0 000 .35c.02.09.1.14.11.23a7.27 7.27 0 010 1.43c-.01.1-.07.2-.17.2-.67-.02-1.3.03-1.97.03-.07 0-.03-.13-.1-.16a1.3 1.3 0 00-.66-.04c-.22.05-.24.23-.45.27-.4.08-.84 0-1.23.06-.14.02-.25.14-.38.17-.2.05-.5.1-.59-.07zm-10.4 1.1a3.1 3.1 0 01-.94 0c-.1 0-.25.08-.34.06s-.25-.23-.2-.31c.25-.33.73-.37.95-.7.14-.2.01-.47.07-.7.02-.07.14-.07.18-.13a.17.17 0 000-.18c-.1-.1-.15.11-.18-.2a4.1 4.1 0 01-.01-.84c.01-.17.14-.14.17-.23.04-.17-.05-.3 0-.47.02-.08.16-.06.2-.13a.23.23 0 000-.23c-.1-.13-.33-.13-.35-.28a4.76 4.76 0 01-.02-.88c0-.3-.02-.6 0-.9 0-.06.14-.06.16-.11a.7.7 0 000-.34c-.01-.09.02-.27 0-.35 0-.14-.06-.2 0-.31.05-.09.2-.04.2-.13.07-.5-.08-1.01-.02-1.51 0-.08.14-.07.16-.15a.6.6 0 000-.41c-.04-.06-.17-.06-.17-.13-.06-.73.04-1.42-.02-2.15 0-.07-.17.03-.17-.27s-.04-.6-.03-.83c0-.18.38-.18.38-.36a4.31 4.31 0 00-.03-.84c-.02-.09-.14-.07-.17-.16a.28.28 0 01.03-.23c.04-.1.15-.15.17-.25a1.2 1.2 0 000-.56c-.01-.06-.12-.12-.14-.18-.06-.1-.03-.19-.1-.28-.05-.06-.2-.02-.26-.07-.15-.13-.24-.28-.37-.4a1.6 1.6 0 01-.38-.36.33.33 0 01.1-.37.27.27 0 01.28 0c.07.04.07.18.14.2.33.04.66-.1.99-.04.14.04.15.21.28.27.09.04.25-.03.33.02a2.52 2.52 0 01.3.35c.13.12.23.17.29.34a1.86 1.86 0 01.04.67c0 .2.03.4.01.6 0 .08-.14.04-.15.1a.47.47 0 00.05.36c.04.07.16.03.19.12a1.16 1.16 0 01.02.63c-.01.07-.16.02-.16.1a18.02 18.02 0 00.02 2.89c.02.16.28.22.3.38a18.66 18.66 0 01-.03 2.74 1.01 1.01 0 01-.13.39.62.62 0 00-.02.33 3.72 3.72 0 00.01.48c.01.09.2.17.19.26a3.84 3.84 0 00.03.62c.01.11-.2.19-.27.28a.31.31 0 00-.04.28c.04.07.1.04.13.11a.37.37 0 01-.03.3c-.03.07-.16.06-.18.13-.03.2.08.41.06.62-.01.06-.15.04-.16.1-.04.3.05.61 0 .92-.02.11-.2.16-.2.28 0 .06.15.02.18.08.05.09-.07.27.03.3a2.1 2.1 0 001.06-.01c.19-.05.27-.31.46-.33.23-.02.4.13.63.17a2.17 2.17 0 00.93-.02c.17-.04.27-.23.45-.25a17.3 17.3 0 012.29-.05c.74 0 1.69-.04 2.24.02.31.01-.03 1.12.09 1.71.02.13.13.2.2.32.1.19.14.28-.13.28-.51 0-1.03.04-1.58.01-.11 0-.1-.21-.2-.25s-.24.05-.36.02c-.17-.04-.37-.2-.55-.23-.47-.05-.95.07-1.42 0-.11-.01-.13-.22-.23-.23-1.1-.08-2.17.04-3.27-.02-.24-.01-.26-.1-.41-.14a1.38 1.38 0 00-.8 0c-.37.18-.37.51-.76.65zm13.31-4.32c-.23-.01-.25-.38-.23-.6s.33-.23.43-.43c.08-.15-.04-.42.05-.56s.36-.15.46-.3c.06-.1-.03-.26-.02-.37 0-.24.06-.43.05-.67a2.66 2.66 0 01-.04-.5c.03-.16.14-.12.19-.3.06-.2-.04-.44.02-.65.03-.08.25-.04.23-.13-.02-.1-.2-.05-.23-.15a2.36 2.36 0 01.03-1c.05-.2.27-.34.33-.54s-.07-.43 0-.63c.04-.14.27-.17.3-.3.08-.33 0-.73.1-1.06a1.1 1.1 0 01.24-.48.47.47 0 00.15-.21c.05-.14-.06-.26-.03-.4.02-.13.11-.2.18-.32.07-.14.1-.33.18-.47a4.84 4.84 0 00.34-.61c.06-.17-.07-.44 0-.6.11-.23.39-.23.49-.45.08-.19-.06-.43.03-.61a.4.4 0 01.35-.2.3.3 0 01.28.17c.07.2 0 .44.09.63.14.35.4.55.53.9.07.18 0 .44.04.63.06.25.1.51.19.76.1.32.25.62.34.94.08.28.1.58.16.87a4.64 4.64 0 00.2.6c.03.09.14.06.16.15.04.16-.09.33-.05.48.04.2.25.38.28.57a6 6 0 010 .92 7.24 7.24 0 00.08.82c.02.17.12.41.12.54.02.45.04.9.04 1.36 0 .67 0 1.38-.02 2.05 0 .08-.1.12-.13.2a5 5 0 00-.26.71 2.3 2.3 0 01-.1.46c-.04.08-.21.16-.24.25a2.76 2.76 0 000 .65 1.43 1.43 0 01-.2.55 3.96 3.96 0 00-.2.5c-.04.15.04.33-.01.48-.02.08-.14.12-.15.2-.05.2.04.43-.03.64-.03.1-.06.1-.17.14-.07.04-.28.08-.29 0-.05-.36.05-.6 0-.96a10.76 10.76 0 00-.35-1.07c-.05-.2.04-.55-.05-.73-.17-.32-.7-.46-.68-.82a1.62 1.62 0 01.44-.87 3.58 3.58 0 00.34-.74 1.52 1.52 0 00.1-.52.53.53 0 00-.24-.5 8.17 8.17 0 00-1.48-.84c-.07-.03-.15.1-.15.18s.09.14.1.22c.02.22-.12.46-.02.67s.52.28.46.51a.37.37 0 01-.22.29.56.56 0 01-.26.05 5.38 5.38 0 00-.85-.03 3.54 3.54 0 00-.83.34 1.26 1.26 0 01-.57.2zm2.5-3.55v-.67l.01-.58c.01-.13.13-.23.14-.36.03-.2-.1-.46-.04-.66.02-.08.23 0 .28-.07l.1-.27c.03-.07.1-.13.1-.15a4.71 4.71 0 01.02-.54c.02-.13.04-.25.06-.25s.04.11.11.2.11.21.19.33a.4.4 0 00.15.17c.1.03.2-.01.29.02.06.03.08.13.14.17.04.03.13-.02.14.03.04.23 0 .54.04.77.01.06.14.03.14.09q.03.6.02 1.2l-.02 1.08c-.01.1-.28.1-.35.05a1.13 1.13 0 00-.43-.29c-.08-.01-.07-.14-.15-.16a1.84 1.84 0 00-.55-.07 3.6 3.6 0 01-.39.02c-.02 0 0-.04 0-.07zm5.4-6.95l.02.72-.02.91.02 1.04c0 .26-.05.78-.02 1 .02.28.04.33.43.33a1.12 1.12 0 00.63-.39c.13-.13.1-.36.16-.46a1.62 1.62 0 00.22-.46c.03-.22-.05-.4.1-.54a3.37 3.37 0 00.11-.82 1.48 1.48 0 00-.44-.75c-.17-.18-.36-.34-.44-.47a.71.71 0 00-.45-.36c-.33-.07-.33-.04-.33.24zM27.16 14.7c-.06.25.12.35.35.49a8.26 8.26 0 01.71.53 4.24 4.24 0 01.96 1.55c.13-.15.04-.83.11-1.23.02-.1.11-.15.12-.24a4.3 4.3 0 000-.95c-.01-.12-.13-.2-.16-.32a.62.62 0 010-.28c.03-.11.11-.2.12-.32a4.13 4.13 0 000-.99c-.02-.12-.2-.2-.2-.32.01-.1.23-.1.24-.2a4.49 4.49 0 00-.12-.87c-.08-.66-.13-1.32-.2-1.98a2.7 2.7 0 01-.08-.72c.13-.32.24-.65.36-.9.06-.08.14.07.2.14a2.24 2.24 0 01.5.86c.07.38-.14.72-.1 1.1.02.1.2.09.23.2a8.64 8.64 0 01.44 1.54 12.7 12.7 0 01.16 1.83 2.52 2.52 0 01-.08.8c-.11.36-.34.65-.45 1-.11.36-.15.47.24.47a1.1 1.1 0 01.45.06c.32.16.45.53.75.72l.24.15c.43.24.48.07.57-.3.11-.5.14-.95.22-1.44a6.77 6.77 0 00.04-.75c.02-.36.04-.72.03-1.07a.76.76 0 00-.12-.48c-.08-.1-.33 0-.36-.12-.04-.16.2-.3.2-.47a10.58 10.58 0 01-.13-1.34c-.01-.54-.12-.27-.3-.48a.66.66 0 01-.16-.4c-.05-.5.02-1.03-.05-1.51a1.2 1.2 0 00-.28-.6c-.05-.06-.15.02-.18-.05-.06-.12.12-.2.05-.31a2.5 2.5 0 00-.76-.63c-.07-.06-.21.06-.28 0a.31.31 0 010-.34 1.37 1.37 0 00.92-.54 3.37 3.37 0 00.6-1.17c.07-.2-.02-.44 0-.65a4.03 4.03 0 00.18-1.14 4.08 4.08 0 00-.7-1.55 1.92 1.92 0 00-.74-.63c-.24-.11-.44-.02-.7-.1-.3-.08-.53-.25-.83-.3-.24-.05-.48.04-.72 0-.14-.04-.17-.2-.31-.23-.1-.01-.21.14-.31.14-.72.06-1.3-.07-2 .02-.11.01-.08.13 0 .2.14.08.34.04.48.1a1.9 1.9 0 01.66.48 2.96 2.96 0 01.38.63c.06.11.23-.1.35-.12.16-.02.27-.02.37.1s-.1.26-.2.36a4.38 4.38 0 01-.55.42c-.13.1-.35.17-.45.34-.21.38.04.82.12 1.25l.1.46c.12.5.08.92.15 1.44.02.16.14.3.16.47.02.2-.02.35.01.54a2.48 2.48 0 00.1.26 5.61 5.61 0 01.2 1.19c.05 1.23-.03 2.43.03 3.66.01.11.18.16.2.27a1.1 1.1 0 01-.13.53c-.24.66-.51 1.17-.66 1.74z"/></svg>