<svg xmlns="http://www.w3.org/2000/svg" width="32" height="32" viewBox="0 0 32 32"><defs><linearGradient id="a" x1=".81" x2=".21" y1=".9" y2=".13" gradientUnits="objectBoundingBox"><stop offset="0" stop-color="#002782"/><stop offset="1" stop-color="#0073d3"/></linearGradient></defs><g transform="translate(-902 -338)"><circle cx="16" cy="16" r="16" fill="url(#a)" transform="translate(902 338)"/><path fill="#fff" fill-rule="evenodd" d="M928.8 358.23a4.1 4.1 0 01-1.48.95l-7.84 2.86v-2.11l5.77-2.1c.65-.23.75-.57.22-.74a3.82 3.82 0 00-2.14.1l-3.85 1.39v-2.2l.23-.07a12.98 12.98 0 012.67-.58 11.2 11.2 0 014.97.6c1.7.55 1.88 1.35 1.45 1.9zm-8.57-3.6v-5.4c0-.63-.11-1.22-.7-1.38-.45-.15-.73.27-.73.9v13.54l-3.57-1.16V345a42.48 42.48 0 014.93 1.38c3.04 1.06 4.07 2.38 4.07 5.35 0 2.9-1.76 4-4 2.9zm-11.58 5.08c-1.73-.5-2.02-1.54-1.23-2.13a8.43 8.43 0 011.97-.97l5.14-1.86v2.12l-3.7 1.35c-.65.24-.75.57-.22.75a3.83 3.83 0 002.14-.11l1.78-.66v1.9l-.35.06a11.43 11.43 0 01-5.53-.45z"/></g></svg>