<svg xmlns="http://www.w3.org/2000/svg" width="40" height="40" viewBox="0 0 40 40"><defs><linearGradient id="a" x1=".5" x2=".5" y1="1" gradientUnits="objectBoundingBox"><stop offset="0" stop-color="#0082b6"/><stop offset="1" stop-color="#0f1c30"/></linearGradient></defs><g transform="translate(-4 -1008.36)"><circle cx="20" cy="20" r="20" fill="url(#a)" transform="translate(4 1008.36)"/><path fill="#fff" d="M15.76 1040.93a6 6 0 01-3.7-4.73l-6.29-2.52a18.95 18.95 0 01-.77-5.32c.01-.48.04-.96.07-1.43l9.24 3.71a6 6 0 013.6-1.27c.32-.36 3.83-4.33 5.12-5.9a6.7 6.7 0 01-.03-.6 7.5 7.5 0 017.5-7.5 7.5 7.5 0 017.5 7.5 7.5 7.5 0 01-7.5 7.5l-.6-.03-5.9 5.11a6.05 6.05 0 01-.43 2.16 6 6 0 01-5.57 3.76 6 6 0 01-2.24-.44zm.75-1.85a4 4 0 005.2-2.22 4 4 0 00-2.22-5.2 4.02 4.02 0 00-1.45-.3H18a4 4 0 00-1.34.24l2.46.98a3 3 0 011.66 3.9 3 3 0 01-3.9 1.67l-2.46-1a4 4 0 002.09 1.93zm9.49-16.22a4.5 4.5 0 004.5 4.5 4.5 4.5 0 004.5-4.5 4.5 4.5 0 00-4.5-4.5 4.5 4.5 0 00-4.5 4.5zm1 0a3.5 3.5 0 013.5-3.5 3.5 3.5 0 013.5 3.5 3.5 3.5 0 01-3.5 3.5 3.5 3.5 0 01-3.5-3.5z"/></g></svg>